<svg width="22" height="87" viewBox="0 0 22 87" fill="none" xmlns="http://www.w3.org/2000/svg">
<path d="M16 86.7735L21.7735 81L16 75.2265L10.2265 81L16 86.7735ZM0.999996 0C0.447712 2.41411e-08 -3.52105e-06 0.447716 -3.49691e-06 1C-3.47277e-06 1.55228 0.447712 2 0.999997 2L0.999996 0ZM16 0.999999L17 0.999999L17 -6.99382e-07L16 -6.55671e-07L16 0.999999ZM7.11374 -2.6724e-07L0.999996 0L0.999997 2L7.11374 2L7.11374 -2.6724e-07ZM17 81L17 0.999999L15 0.999999L15 81L17 81ZM16 -6.55671e-07L7.11374 -2.6724e-07L7.11374 2L16 2L16 -6.55671e-07Z" fill="white"/>
</svg>
