<svg width="220" height="299" viewBox="0 0 220 299" fill="none" xmlns="http://www.w3.org/2000/svg">
<g opacity="0.9">
<path d="M140.909 10.5258C140.909 4.71255 136.188 1.18778e-05 130.364 1.13687e-05L89.9394 7.83519e-06C84.1153 7.3261e-06 79.3939 4.71255 79.3939 10.5257L79.3939 50.8744C79.3939 56.6876 84.1153 61.4001 89.9394 61.4001L130.364 61.4001C136.188 61.4001 140.909 56.6876 140.909 50.8744L140.909 10.5258Z" fill="#219653"/>
<path d="M61.8181 89.4688C61.8181 83.6556 57.0967 78.943 51.2726 78.943L10.8482 78.943C5.0241 78.943 0.302727 83.6556 0.302727 89.4688L0.302723 129.817C0.302723 135.631 5.0241 140.343 10.8482 140.343L51.2726 140.343C57.0967 140.343 61.8181 135.631 61.8181 129.817L61.8181 89.4688Z" fill="#219653"/>
<path d="M89.8145 38.5944L102.242 50.9991L52.5306 100.618L40.1026 88.2132L89.8145 38.5944Z" fill="#219653"/>
<path d="M0.302727 89.4688C0.302727 83.6556 5.0241 78.943 10.8482 78.943L51.2726 78.943C57.0967 78.943 61.8181 83.6556 61.8181 89.4688L61.8181 129.817C61.8181 135.631 57.0967 140.343 51.2726 140.343L10.8482 140.343C5.0241 140.343 0.302723 135.631 0.302723 129.817L0.302727 89.4688Z" fill="#219653"/>
<path d="M0.30272 168.412C0.30272 162.599 5.0241 157.886 10.8482 157.886L51.2726 157.886C57.0967 157.886 61.8181 162.599 61.8181 168.412L61.8181 208.76C61.8181 214.574 57.0967 219.286 51.2726 219.286L10.8482 219.286C5.02409 219.286 0.302716 214.574 0.302716 208.76L0.30272 168.412Z" fill="#219653"/>
<path d="M79.3939 247.355C79.3939 241.542 84.1152 236.829 89.9394 236.829L130.364 236.829C136.188 236.829 140.909 241.542 140.909 247.355L140.909 287.703C140.909 293.517 136.188 298.229 130.364 298.229L89.9394 298.229C84.1152 298.229 79.3939 293.517 79.3939 287.703L79.3939 247.355Z" fill="#219653"/>
<path d="M158.485 168.412C158.485 162.599 163.206 157.886 169.03 157.886L209.455 157.886C215.279 157.886 220 162.599 220 168.412L220 208.76C220 214.574 215.279 219.286 209.455 219.286L169.03 219.286C163.206 219.286 158.485 214.574 158.485 208.76L158.485 168.412Z" fill="#219653"/>
<path d="M167.773 196.48L180.201 208.885L130.489 258.504L118.061 246.099L167.773 196.48Z" fill="#219653"/>
<path d="M0.302713 247.355C0.302713 241.542 5.02409 236.829 10.8482 236.829L51.2726 236.829C57.0967 236.829 61.8181 241.542 61.8181 247.355L61.8181 287.703C61.8181 293.517 57.0967 298.229 51.2726 298.229L10.8482 298.229C5.02408 298.229 0.302709 293.517 0.302709 287.703L0.302713 247.355Z" fill="#219653"/>
<path d="M79.3939 168.412C79.3939 162.599 84.1153 157.886 89.9394 157.886L130.364 157.886C136.188 157.886 140.909 162.599 140.909 168.412L140.909 208.76C140.909 214.574 136.188 219.286 130.364 219.286L89.9394 219.286C84.1152 219.286 79.3939 214.574 79.3939 208.76L79.3939 168.412Z" fill="#219653"/>
<path d="M88.6815 196.48L101.109 208.885L51.3975 258.504L38.9696 246.099L88.6815 196.48Z" fill="#219653"/>
<path d="M220 10.5258C220 4.71256 215.279 1.87912e-05 209.455 1.82821e-05L169.031 1.47486e-05C163.206 1.42395e-05 158.485 4.71255 158.485 10.5258L158.485 50.8744C158.485 56.6876 163.206 61.4001 169.03 61.4001L209.455 61.4001C215.279 61.4002 220 56.6876 220 50.8744L220 10.5258Z" fill="#219653"/>
<path d="M220 168.412C220 162.599 215.279 157.886 209.455 157.886L169.03 157.886C163.206 157.886 158.485 162.599 158.485 168.412L158.485 208.76C158.485 214.574 163.206 219.286 169.03 219.286L209.455 219.286C215.279 219.286 220 214.574 220 208.76L220 168.412Z" fill="#219653"/>
<path d="M140.909 89.4688C140.909 83.6556 136.188 78.943 130.364 78.943L89.9394 78.943C84.1153 78.943 79.3939 83.6556 79.3939 89.4688L79.3939 129.817C79.3939 135.631 84.1153 140.343 89.9394 140.343L130.364 140.343C136.188 140.343 140.909 135.631 140.909 129.817L140.909 89.4688Z" fill="#219653"/>
<path d="M61.8181 168.412C61.8181 162.599 57.0967 157.886 51.2726 157.886L10.8482 157.886C5.0241 157.886 0.30272 162.599 0.30272 168.412L0.302716 208.76C0.302716 214.574 5.02409 219.286 10.8482 219.286L51.2726 219.286C57.0967 219.286 61.8181 214.574 61.8181 208.76L61.8181 168.412Z" fill="#219653"/>
<path d="M168.906 38.5944L181.334 50.9991L131.622 100.618L119.194 88.2132L168.906 38.5944Z" fill="#219653"/>
<path d="M89.8145 117.537L102.242 129.942L52.5306 179.561L40.1026 167.156L89.8145 117.537Z" fill="#219653"/>
<path d="M131.622 117.537L119.194 129.942L168.906 179.561L181.333 167.156L131.622 117.537Z" fill="#219653"/>
<path d="M0.30272 168.412C0.30272 162.599 5.0241 157.886 10.8482 157.886L51.2726 157.886C57.0967 157.886 61.8181 162.599 61.8181 168.412L61.8181 208.76C61.8181 214.574 57.0967 219.286 51.2726 219.286L10.8482 219.286C5.02409 219.286 0.302716 214.574 0.302716 208.76L0.30272 168.412Z" fill="#219653"/>
</g>
</svg>
