<svg width="207" height="203" viewBox="0 0 207 203" fill="none" xmlns="http://www.w3.org/2000/svg">
<g clip-path="url(#clip0_2420_202)">
<g opacity="0.9">
<path d="M31.32 -29.9362C31.32 -36.4226 26.0764 -41.6809 19.608 -41.6809H-25.288C-31.7564 -41.6809 -37 -36.4226 -37 -29.9362L-37 15.0851C-37 21.5715 -31.7564 26.8298 -25.288 26.8298H19.608C26.0764 26.8298 31.32 21.5715 31.32 15.0851V-29.9362Z" fill="#E0E0E0"/>
<path d="M-37 -29.9362C-37 -36.4226 -31.7564 -41.6809 -25.288 -41.6809H19.608C26.0764 -41.6809 31.32 -36.4226 31.32 -29.9362V15.0851C31.32 21.5715 26.0764 26.8298 19.608 26.8298H-25.288C-31.7564 26.8298 -37 21.5715 -37 15.0851L-37 -29.9362Z" fill="#E0E0E0"/>
<path d="M-37 58.1489C-37 51.6625 -31.7564 46.4043 -25.288 46.4043H19.608C26.0764 46.4043 31.32 51.6625 31.32 58.1489V103.17C31.32 109.657 26.0764 114.915 19.608 114.915H-25.288C-31.7564 114.915 -37 109.657 -37 103.17L-37 58.1489Z" fill="#E0E0E0"/>
<path d="M50.84 146.234C50.84 139.748 56.0837 134.489 62.552 134.489H107.448C113.916 134.489 119.16 139.748 119.16 146.234L119.16 191.255C119.16 197.742 113.916 203 107.448 203H62.552C56.0837 203 50.84 197.742 50.84 191.255V146.234Z" fill="#E0E0E0"/>
<path d="M138.68 58.1489C138.68 51.6625 143.924 46.4043 150.392 46.4043H195.288C201.756 46.4043 207 51.6625 207 58.1489V103.17C207 109.657 201.756 114.915 195.288 114.915L150.392 114.915C143.924 114.915 138.68 109.657 138.68 103.17V58.1489Z" fill="#E0E0E0"/>
<path d="M148.995 89.4681L162.798 103.309L107.587 158.674L93.7841 144.833L148.995 89.4681Z" fill="#E0E0E0"/>
<path d="M-37 146.234C-37 139.748 -31.7564 134.489 -25.288 134.489H19.608C26.0764 134.489 31.32 139.748 31.32 146.234V191.255C31.32 197.742 26.0764 203 19.608 203H-25.288C-31.7564 203 -37 197.742 -37 191.255V146.234Z" fill="#E0E0E0"/>
<path d="M50.84 58.1489C50.84 51.6625 56.0837 46.4043 62.552 46.4043L107.448 46.4043C113.916 46.4043 119.16 51.6625 119.16 58.1489V103.17C119.16 109.657 113.916 114.915 107.448 114.915H62.552C56.0837 114.915 50.84 109.657 50.84 103.17V58.1489Z" fill="#E0E0E0"/>
<path d="M61.155 89.4681L74.9577 103.309L19.7468 158.674L5.94408 144.833L61.155 89.4681Z" fill="#E0E0E0"/>
<path d="M207 58.1489C207 51.6625 201.756 46.4043 195.288 46.4043H150.392C143.924 46.4043 138.68 51.6625 138.68 58.1489V103.17C138.68 109.657 143.924 114.915 150.392 114.915L195.288 114.915C201.756 114.915 207 109.657 207 103.17V58.1489Z" fill="#E0E0E0"/>
<path d="M119.16 -29.9362C119.16 -36.4226 113.916 -41.6809 107.448 -41.6809H62.552C56.0837 -41.6809 50.84 -36.4226 50.84 -29.9362V15.0851C50.84 21.5715 56.0837 26.8298 62.552 26.8298L107.448 26.8298C113.916 26.8298 119.16 21.5715 119.16 15.0851V-29.9362Z" fill="#E0E0E0"/>
<path d="M31.32 58.1489C31.32 51.6625 26.0764 46.4043 19.608 46.4043H-25.288C-31.7564 46.4043 -37 51.6625 -37 58.1489L-37 103.17C-37 109.657 -31.7564 114.915 -25.288 114.915H19.608C26.0764 114.915 31.32 109.657 31.32 103.17V58.1489Z" fill="#E0E0E0"/>
<path d="M62.4133 1.38298L76.2161 15.2242L21.0052 70.5892L7.20244 56.7479L62.4133 1.38298Z" fill="#E0E0E0"/>
<path d="M108.845 1.38298L95.0423 15.2242L150.253 70.5892L164.056 56.7479L108.845 1.38298Z" fill="#E0E0E0"/>
<path d="M-37 58.1489C-37 51.6625 -31.7564 46.4043 -25.288 46.4043H19.608C26.0764 46.4043 31.32 51.6625 31.32 58.1489V103.17C31.32 109.657 26.0764 114.915 19.608 114.915H-25.288C-31.7564 114.915 -37 109.657 -37 103.17L-37 58.1489Z" fill="#E0E0E0"/>
</g>
</g>
<defs>
<clipPath id="clip0_2420_202">
<rect width="244" height="276" fill="white" transform="translate(-37 -73)"/>
</clipPath>
</defs>
</svg>
