<svg width="288" height="417" viewBox="0 0 288 417" fill="none" xmlns="http://www.w3.org/2000/svg">
<g opacity="0.9">
<path d="M200.032 98.8732C200.032 92.4489 194.815 87.241 188.379 87.241H143.712C137.277 87.241 132.06 92.4489 132.06 98.8732V143.463C132.06 149.887 137.277 155.095 143.712 155.095H188.379C194.815 155.095 200.032 149.887 200.032 143.463V98.8732Z" fill="#E0E0E0"/>
<path d="M112.639 11.6321C112.639 5.20788 107.422 0 100.987 0L56.3197 0C49.8843 0 44.6673 5.20788 44.6673 11.6321V56.222C44.6673 62.6462 49.8843 67.8541 56.3197 67.8541H100.987C107.422 67.8541 112.639 62.6462 112.639 56.222V11.6321Z" fill="#E0E0E0"/>
<path d="M112.639 186.114C112.639 179.69 107.422 174.482 100.987 174.482H56.3197C49.8843 174.482 44.6673 179.69 44.6673 186.114V230.704C44.6673 237.128 49.8843 242.336 56.3197 242.336H100.987C107.422 242.336 112.639 237.128 112.639 230.704V186.114Z" fill="#E0E0E0"/>
<path d="M102.377 42.6512L88.6445 56.3598L143.574 111.194L157.307 97.4856L102.377 42.6512Z" fill="#E0E0E0"/>
<path d="M143.574 129.892L157.307 143.601L102.377 198.435L88.6446 184.727L143.574 129.892Z" fill="#E0E0E0"/>
<path d="M44.6673 11.6321C44.6673 5.20788 49.8843 0 56.3197 0L100.987 0C107.422 0 112.639 5.20788 112.639 11.6321V56.222C112.639 62.6462 107.422 67.8541 100.987 67.8541H56.3197C49.8843 67.8541 44.6673 62.6462 44.6673 56.222V11.6321Z" fill="#E0E0E0"/>
<path d="M44.6673 186.114C44.6673 179.69 49.8843 174.482 56.3197 174.482H100.987C107.422 174.482 112.639 179.69 112.639 186.114V230.704C112.639 237.128 107.422 242.336 100.987 242.336H56.3197C49.8843 242.336 44.6673 237.128 44.6673 230.704V186.114Z" fill="#E0E0E0"/>
<path d="M200.032 11.6321C200.032 5.20788 194.815 0 188.379 0L143.712 0C137.277 0 132.06 5.20788 132.06 11.6321V56.222C132.06 62.6462 137.277 67.8541 143.712 67.8541H188.379C194.815 67.8541 200.032 62.6462 200.032 56.222V11.6321Z" fill="#E0E0E0"/>
<path d="M44.6673 11.6321C44.6673 5.20788 49.8843 0 56.3197 0L100.987 0C107.422 0 112.639 5.20788 112.639 11.6321V56.222C112.639 62.6462 107.422 67.8541 100.987 67.8541H56.3197C49.8843 67.8541 44.6673 62.6462 44.6673 56.222V11.6321Z" fill="#E0E0E0"/>
<path d="M44.6673 273.355C44.6673 266.931 49.8843 261.723 56.3197 261.723H100.987C107.422 261.723 112.639 266.931 112.639 273.355V317.945C112.639 324.369 107.422 329.577 100.987 329.577H56.3197C49.8843 329.577 44.6673 324.369 44.6673 317.945L44.6673 273.355Z" fill="#E0E0E0"/>
<path d="M13.7324 217.133L0 230.842L54.9296 285.676L68.662 271.968L13.7324 217.133Z" fill="#E0E0E0"/>
<path d="M132.06 360.596C132.06 354.172 137.277 348.964 143.712 348.964H188.379C194.815 348.964 200.032 354.172 200.032 360.596V405.186C200.032 411.61 194.815 416.818 188.379 416.818H143.712C137.277 416.818 132.06 411.61 132.06 405.186V360.596Z" fill="#E0E0E0"/>
<path d="M219.452 273.355C219.452 266.931 224.669 261.723 231.105 261.723H275.772C282.207 261.723 287.424 266.931 287.424 273.355V317.945C287.424 324.369 282.207 329.577 275.772 329.577H231.105C224.669 329.577 219.452 324.369 219.452 317.945V273.355Z" fill="#E0E0E0"/>
<path d="M229.715 304.374L243.447 318.083L188.518 372.917L174.785 359.209L229.715 304.374Z" fill="#E0E0E0"/>
<path d="M44.6673 360.596C44.6673 354.172 49.8843 348.964 56.3197 348.964H100.987C107.422 348.964 112.639 354.172 112.639 360.596V405.186C112.639 411.61 107.422 416.818 100.987 416.818H56.3197C49.8843 416.818 44.6673 411.61 44.6673 405.186V360.596Z" fill="#E0E0E0"/>
<path d="M132.06 273.355C132.06 266.931 137.277 261.723 143.712 261.723H188.379C194.815 261.723 200.032 266.931 200.032 273.355V317.945C200.032 324.369 194.815 329.577 188.379 329.577H143.712C137.277 329.577 132.06 324.369 132.06 317.945V273.355Z" fill="#E0E0E0"/>
<path d="M142.322 304.374L156.055 318.083L101.125 372.917L87.3926 359.209L142.322 304.374Z" fill="#E0E0E0"/>
<path d="M287.424 98.8732C287.424 92.4489 282.207 87.241 275.772 87.241H231.105C224.669 87.241 219.452 92.4489 219.452 98.8732V143.463C219.452 149.887 224.669 155.095 231.105 155.095L275.772 155.095C282.207 155.095 287.424 149.887 287.424 143.463V98.8732Z" fill="#E0E0E0"/>
<path d="M287.424 273.355C287.424 266.931 282.207 261.723 275.772 261.723H231.105C224.669 261.723 219.452 266.931 219.452 273.355V317.945C219.452 324.369 224.669 329.577 231.105 329.577H275.772C282.207 329.577 287.424 324.369 287.424 317.945V273.355Z" fill="#E0E0E0"/>
<path d="M200.032 11.6321C200.032 5.20788 194.815 0 188.379 0L143.712 0C137.277 0 132.06 5.20788 132.06 11.6321V56.222C132.06 62.6462 137.277 67.8541 143.712 67.8541H188.379C194.815 67.8541 200.032 62.6462 200.032 56.222V11.6321Z" fill="#E0E0E0"/>
<path d="M200.032 186.114C200.032 179.69 194.815 174.482 188.379 174.482H143.712C137.277 174.482 132.06 179.69 132.06 186.114V230.704C132.06 237.128 137.277 242.336 143.712 242.336H188.379C194.815 242.336 200.032 237.128 200.032 230.704V186.114Z" fill="#E0E0E0"/>
<path d="M112.639 273.355C112.639 266.931 107.422 261.723 100.987 261.723H56.3197C49.8843 261.723 44.6673 266.931 44.6673 273.355L44.6673 317.945C44.6673 324.369 49.8843 329.577 56.3197 329.577H100.987C107.422 329.577 112.639 324.369 112.639 317.945V273.355Z" fill="#E0E0E0"/>
<path d="M189.769 42.6512L176.037 56.3598L230.967 111.194L244.699 97.4856L189.769 42.6512Z" fill="#E0E0E0"/>
<path d="M230.967 129.892L244.699 143.601L189.769 198.435L176.037 184.727L230.967 129.892Z" fill="#E0E0E0"/>
<path d="M143.574 217.133L157.307 230.842L102.377 285.676L88.6446 271.968L143.574 217.133Z" fill="#E0E0E0"/>
<path d="M189.769 217.133L176.037 230.842L230.967 285.676L244.699 271.968L189.769 217.133Z" fill="#E0E0E0"/>
<path d="M44.6673 273.355C44.6673 266.931 49.8843 261.723 56.3197 261.723H100.987C107.422 261.723 112.639 266.931 112.639 273.355V317.945C112.639 324.369 107.422 329.577 100.987 329.577H56.3197C49.8843 329.577 44.6673 324.369 44.6673 317.945L44.6673 273.355Z" fill="#E0E0E0"/>
<path d="M54.9297 304.374L68.6622 318.083L13.7325 372.917L0.000118534 359.209L54.9297 304.374Z" fill="#E0E0E0"/>
</g>
</svg>
