<svg width="343" height="654" viewBox="0 0 343 654" fill="none" xmlns="http://www.w3.org/2000/svg">
<g clip-path="url(#clip0_2482_202)">
<path d="M-39.4034 -31.1925C-39.4034 -39.5119 -32.6642 -46.2561 -24.3508 -46.2561H33.3509C41.6642 -46.2561 48.4035 -39.5119 48.4035 -31.1925V26.5513C48.4035 34.8707 41.6642 41.615 33.3509 41.615L-24.3508 41.615C-32.6642 41.615 -39.4034 34.8707 -39.4034 26.5513V-31.1925Z" fill="#239A55"/>
<path d="M73.4912 81.7846C73.4912 73.4652 80.2305 66.721 88.5438 66.721H146.246C154.559 66.721 161.298 73.4652 161.298 81.7846V139.528C161.298 147.848 154.559 154.592 146.246 154.592H88.5438C80.2305 154.592 73.4912 147.848 73.4912 139.528L73.4912 81.7846Z" fill="#239A55"/>
<path d="M86.7483 -104L104.488 -86.2474L33.5293 -15.2368L15.7896 -32.9894L86.7483 -104Z" fill="#239A55"/>
<path d="M33.5291 8.97711L15.7895 26.7298L86.7482 97.7403L104.488 79.9877L33.5291 8.97711Z" fill="#239A55"/>
<path d="M161.298 81.7846C161.298 73.4652 154.559 66.721 146.246 66.721H88.5438C80.2305 66.721 73.4912 73.4652 73.4912 81.7846L73.4912 139.528C73.4912 147.848 80.2305 154.592 88.5438 154.592H146.246C154.559 154.592 161.298 147.848 161.298 139.528V81.7846Z" fill="#239A55"/>
<path d="M148.041 -104L130.301 -86.2474L201.26 -15.2368L219 -32.9894L148.041 -104Z" fill="#239A55"/>
<path d="M201.26 8.97711L219 26.7298L148.041 97.7403L130.302 79.9877L201.26 8.97711Z" fill="#239A55"/>
<path d="M-152.298 81.7846C-152.298 73.4652 -145.559 66.721 -137.245 66.721H-79.5438C-71.2304 66.721 -64.4911 73.4652 -64.4911 81.7846V139.528C-64.4911 147.848 -71.2304 154.592 -79.5438 154.592H-137.245C-145.559 154.592 -152.298 147.848 -152.298 139.528V81.7846Z" fill="#239A55"/>
<path d="M-139.041 -104L-121.301 -86.2474L-192.26 -15.2368L-210 -32.9894L-139.041 -104Z" fill="#239A55"/>
<path d="M-192.26 8.97711L-210 26.7298L-139.041 97.7403L-121.301 79.9877L-192.26 8.97711Z" fill="#239A55"/>
<path d="M-152.298 81.7846C-152.298 73.4652 -145.559 66.721 -137.245 66.721H-79.5438C-71.2304 66.721 -64.4911 73.4652 -64.4911 81.7846V139.528C-64.4911 147.848 -71.2304 154.592 -79.5438 154.592H-137.245C-145.559 154.592 -152.298 147.848 -152.298 139.528V81.7846Z" fill="#239A55"/>
<path d="M-152.298 307.739C-152.298 299.419 -145.559 292.675 -137.245 292.675H-79.5438C-71.2304 292.675 -64.4911 299.419 -64.4911 307.739L-64.4911 365.483C-64.4911 373.802 -71.2304 380.546 -79.5438 380.546H-137.245C-145.559 380.546 -152.298 373.802 -152.298 365.483L-152.298 307.739Z" fill="#239A55"/>
<path d="M-139.041 121.954L-121.301 139.707L-192.26 210.717L-210 192.965L-139.041 121.954Z" fill="#239A55"/>
<path d="M-192.26 234.931L-210 252.684L-139.041 323.695L-121.301 305.942L-192.26 234.931Z" fill="#239A55"/>
<path d="M-152.298 307.739C-152.298 299.419 -145.559 292.675 -137.245 292.675H-79.5438C-71.2304 292.675 -64.4911 299.419 -64.4911 307.739L-64.4911 365.483C-64.4911 373.802 -71.2304 380.546 -79.5438 380.546H-137.245C-145.559 380.546 -152.298 373.802 -152.298 365.483L-152.298 307.739Z" fill="#239A55"/>
<path d="M-139.041 347.909L-121.301 365.661L-192.26 436.672L-210 418.919L-139.041 347.909Z" fill="#239A55"/>
<path d="M-192.26 460.886L-210 478.638L-139.041 549.649L-126.86 537.459L-121.301 531.896L-134.558 518.629L-192.26 460.886Z" fill="#239A55"/>
<path d="M161.298 -31.1925C161.298 -39.5119 154.559 -46.2561 146.246 -46.2561H88.5438C80.2305 -46.2561 73.4912 -39.5119 73.4912 -31.1925V26.5513C73.4912 34.8707 80.2305 41.615 88.5438 41.615H146.246C154.559 41.615 161.298 34.8707 161.298 26.5513V-31.1925Z" fill="#239A55"/>
<path d="M161.298 194.762C161.298 186.442 154.559 179.698 146.246 179.698H88.5438C80.2305 179.698 73.4912 186.442 73.4912 194.762V252.506C73.4912 260.825 80.2305 267.569 88.5438 267.569H146.246C154.559 267.569 161.298 260.825 161.298 252.506V194.762Z" fill="#239A55"/>
<path d="M201.26 121.954L219 139.707L148.041 210.717L130.302 192.965L201.26 121.954Z" fill="#239A55"/>
<path d="M48.4035 307.739C48.4035 299.419 41.6642 292.675 33.3509 292.675H-24.3508C-32.6642 292.675 -39.4034 299.419 -39.4034 307.739L-39.4034 365.483C-39.4034 373.802 -32.6642 380.546 -24.3508 380.546H33.3509C41.6642 380.546 48.4035 373.802 48.4035 365.483V307.739Z" fill="#239A55"/>
<path d="M-64.4911 194.762C-64.4911 186.442 -71.2304 179.698 -79.5438 179.698H-137.245C-145.559 179.698 -152.298 186.442 -152.298 194.762V252.506C-152.298 260.825 -145.559 267.569 -137.245 267.569H-79.5438C-71.2304 267.569 -64.4911 260.825 -64.4911 252.506V194.762Z" fill="#239A55"/>
<path d="M-64.4911 420.716C-64.4911 412.397 -71.2304 405.652 -79.5438 405.652H-137.245C-145.559 405.652 -152.298 412.397 -152.298 420.716V478.46C-152.298 486.779 -145.559 493.523 -137.245 493.523H-79.5438C-71.2304 493.523 -64.4911 486.779 -64.4911 478.46V420.716Z" fill="#239A55"/>
<path d="M-77.7482 234.931L-95.4879 252.684L-24.5292 323.695L-6.78949 305.942L-77.7482 234.931Z" fill="#239A55"/>
<path d="M-24.5291 347.909L-6.78937 365.661L-77.7481 436.672L-95.4878 418.919L-24.5291 347.909Z" fill="#239A55"/>
<path d="M161.298 307.739C161.298 299.419 154.559 292.675 146.246 292.675H88.5438C80.2305 292.675 73.4912 299.419 73.4912 307.739V365.483C73.4912 373.802 80.2305 380.546 88.5438 380.546H146.246C154.559 380.546 161.298 373.802 161.298 365.483V307.739Z" fill="#239A55"/>
<path d="M48.4035 194.762C48.4035 186.442 41.6642 179.698 33.3509 179.698H-24.3508C-32.6642 179.698 -39.4034 186.442 -39.4034 194.762V252.506C-39.4034 260.825 -32.6642 267.569 -24.3508 267.569H33.3509C41.6642 267.569 48.4035 260.825 48.4035 252.506V194.762Z" fill="#239A55"/>
<path d="M48.4035 420.716C48.4035 412.397 41.6642 405.652 33.3509 405.652H-24.3508C-32.6642 405.652 -39.4034 412.397 -39.4034 420.716V478.46C-39.4034 486.779 -32.6642 493.523 -24.3508 493.523H33.3509C41.6642 493.523 48.4035 486.779 48.4035 478.46V420.716Z" fill="#239A55"/>
<path d="M35.1464 234.931L17.4067 252.684L88.3655 323.695L106.105 305.942L35.1464 234.931Z" fill="#239A55"/>
<path d="M88.3656 347.909L106.105 365.661L35.1466 436.672L17.4069 418.919L88.3656 347.909Z" fill="#239A55"/>
<path d="M-39.4034 420.716C-39.4034 412.397 -32.6642 405.652 -24.3508 405.652H33.3509C41.6642 405.652 48.4035 412.397 48.4035 420.716V478.46C48.4035 486.779 41.6642 493.523 33.3509 493.523H-24.3508C-32.6642 493.523 -39.4034 486.779 -39.4034 478.46V420.716Z" fill="#239A55"/>
<path d="M-26.1463 460.886L-8.40666 478.638L-79.3654 549.649L-91.5463 537.459L-97.1051 531.896L-83.8481 518.629L-26.1463 460.886Z" fill="#239A55"/>
<path d="M73.4912 420.716C73.4912 412.397 80.2305 405.652 88.5438 405.652H146.246C154.559 405.652 161.298 412.397 161.298 420.716V478.46C161.298 486.779 154.559 493.523 146.246 493.523H88.5438C80.2305 493.523 73.4912 486.779 73.4912 478.46V420.716Z" fill="#239A55"/>
<path d="M-152.298 -31.1925C-152.298 -39.5119 -145.559 -46.2561 -137.245 -46.2561H-79.5438C-71.2304 -46.2561 -64.4911 -39.5119 -64.4911 -31.1925V26.5513C-64.4911 34.8707 -71.2304 41.615 -79.5438 41.615H-137.245C-145.559 41.615 -152.298 34.8707 -152.298 26.5513V-31.1925Z" fill="#239A55"/>
<path d="M-152.298 194.762C-152.298 186.442 -145.559 179.698 -137.245 179.698H-79.5438C-71.2304 179.698 -64.4911 186.442 -64.4911 194.762V252.506C-64.4911 260.825 -71.2304 267.569 -79.5438 267.569H-137.245C-145.559 267.569 -152.298 260.825 -152.298 252.506V194.762Z" fill="#239A55"/>
<path d="M-39.4034 81.7846C-39.4034 73.4652 -32.6642 66.721 -24.3508 66.721L33.3509 66.721C41.6642 66.721 48.4035 73.4652 48.4035 81.7846L48.4035 139.528C48.4035 147.848 41.6642 154.592 33.3509 154.592H-24.3508C-32.6642 154.592 -39.4034 147.848 -39.4034 139.528V81.7846Z" fill="#239A55"/>
<path d="M73.4912 194.762C73.4912 186.442 80.2305 179.698 88.5438 179.698H146.246C154.559 179.698 161.298 186.442 161.298 194.762V252.506C161.298 260.825 154.559 267.569 146.246 267.569H88.5438C80.2305 267.569 73.4912 260.825 73.4912 252.506V194.762Z" fill="#239A55"/>
<path d="M-26.1463 -104L-8.40666 -86.2474L-79.3654 -15.2368L-97.1051 -32.9894L-26.1463 -104Z" fill="#239A55"/>
<path d="M-79.3654 8.97711L-97.1051 26.7298L-26.1464 97.7403L-8.40671 79.9877L-79.3654 8.97711Z" fill="#239A55"/>
<path d="M33.5291 121.954L15.7895 139.707L86.7482 210.717L104.488 192.965L33.5291 121.954Z" fill="#239A55"/>
<path d="M-26.1463 121.954L-8.40666 139.707L-79.3654 210.717L-97.1051 192.965L-26.1463 121.954Z" fill="#239A55"/>
<path d="M161.298 194.762C161.298 186.442 154.559 179.698 146.246 179.698H88.5438C80.2305 179.698 73.4912 186.442 73.4912 194.762V252.506C73.4912 260.825 80.2305 267.569 88.5438 267.569H146.246C154.559 267.569 161.298 260.825 161.298 252.506V194.762Z" fill="#239A55"/>
<path d="M161.298 420.716C161.298 412.397 154.559 405.652 146.246 405.652H88.5438C80.2305 405.652 73.4912 412.397 73.4912 420.716V478.46C73.4912 486.779 80.2305 493.523 88.5438 493.523H146.246C154.559 493.523 161.298 486.779 161.298 478.46V420.716Z" fill="#239A55"/>
<path d="M148.041 234.931L130.301 252.684L201.26 323.695L219 305.942L148.041 234.931Z" fill="#239A55"/>
<path d="M201.26 347.909L219 365.661L148.041 436.672L130.302 418.919L201.26 347.909Z" fill="#239A55"/>
<path d="M161.298 420.716C161.298 412.397 154.559 405.652 146.246 405.652H88.5438C80.2305 405.652 73.4912 412.397 73.4912 420.716V478.46C73.4912 486.779 80.2305 493.523 88.5438 493.523H146.246C154.559 493.523 161.298 486.779 161.298 478.46V420.716Z" fill="#239A55"/>
<path d="M148.041 460.886L130.301 478.638L201.26 549.649L219 531.896L148.041 460.886Z" fill="#239A55"/>
<path d="M48.4035 533.693C48.4035 525.374 41.6642 518.629 33.3509 518.629H-24.3508C-32.6642 518.629 -39.4034 525.374 -39.4034 533.693L-39.4035 591.437C-39.4035 599.756 -32.6642 606.501 -24.3509 606.501H33.3508C41.6642 606.501 48.4035 599.756 48.4035 591.437L48.4035 533.693Z" fill="#239A55"/>
<path d="M-64.4912 646.67C-64.4912 638.351 -71.2305 631.607 -79.5438 631.607H-137.246C-145.559 631.607 -152.298 638.351 -152.298 646.67V704.414C-152.298 712.733 -145.559 719.478 -137.246 719.478H-79.5438C-71.2305 719.478 -64.4912 712.733 -64.4912 704.414V646.67Z" fill="#239A55"/>
<path d="M-24.5291 573.863L-6.78941 591.615L-77.7481 662.626L-95.4879 644.873L-24.5291 573.863Z" fill="#239A55"/>
<path d="M-152.298 646.67C-152.298 638.351 -145.559 631.607 -137.246 631.607H-79.5438C-71.2305 631.607 -64.4912 638.351 -64.4912 646.67V704.414C-64.4912 712.733 -71.2305 719.478 -79.5438 719.478H-137.246C-145.559 719.478 -152.298 712.733 -152.298 704.414V646.67Z" fill="#239A55"/>
<path d="M-192.26 573.863L-210 591.615L-139.041 662.626L-121.301 644.873L-192.26 573.863Z" fill="#239A55"/>
<path d="M161.298 420.716C161.298 412.397 154.559 405.652 146.246 405.652H88.5438C80.2305 405.652 73.4912 412.397 73.4912 420.716V478.46C73.4912 486.779 80.2305 493.523 88.5438 493.523H146.246C154.559 493.523 161.298 486.779 161.298 478.46V420.716Z" fill="#239A55"/>
<path d="M161.298 646.67C161.298 638.351 154.559 631.607 146.246 631.607H88.5438C80.2305 631.607 73.4912 638.351 73.4912 646.67V704.414C73.4912 712.733 80.2305 719.478 88.5438 719.478H146.246C154.559 719.478 161.298 712.733 161.298 704.414V646.67Z" fill="#239A55"/>
<path d="M148.041 460.886L130.301 478.638L201.26 549.649L219 531.896L148.041 460.886Z" fill="#239A55"/>
<path d="M201.26 573.863L219 591.615L148.041 662.626L130.301 644.873L201.26 573.863Z" fill="#239A55"/>
<path d="M161.298 420.716C161.298 412.397 154.559 405.652 146.246 405.652H88.5438C80.2305 405.652 73.4912 412.397 73.4912 420.716V478.46C73.4912 486.779 80.2305 493.523 88.5438 493.523H146.246C154.559 493.523 161.298 486.779 161.298 478.46V420.716Z" fill="#239A55"/>
<path d="M201.26 347.909L219 365.661L148.041 436.672L130.302 418.919L201.26 347.909Z" fill="#239A55"/>
<path d="M48.4035 420.716C48.4035 412.397 41.6642 405.652 33.3509 405.652H-24.3508C-32.6642 405.652 -39.4034 412.397 -39.4034 420.716V478.46C-39.4034 486.779 -32.6642 493.523 -24.3508 493.523H33.3509C41.6642 493.523 48.4035 486.779 48.4035 478.46V420.716Z" fill="#239A55"/>
<path d="M88.3656 347.909L106.105 365.661L35.1466 436.672L17.4069 418.919L88.3656 347.909Z" fill="#239A55"/>
<path d="M161.298 646.67C161.298 638.351 154.559 631.607 146.246 631.607H88.5438C80.2305 631.607 73.4912 638.351 73.4912 646.67V704.414C73.4912 712.733 80.2305 719.478 88.5438 719.478H146.246C154.559 719.478 161.298 712.733 161.298 704.414V646.67Z" fill="#239A55"/>
<path d="M161.298 872.624C161.298 864.305 154.559 857.561 146.246 857.561H88.5438C80.2305 857.561 73.4912 864.305 73.4912 872.624V930.368C73.4912 938.688 80.2305 945.432 88.5438 945.432H146.246C154.559 945.432 161.298 938.688 161.298 930.368V872.624Z" fill="#239A55"/>
<path d="M148.041 686.84L130.301 704.593L201.26 775.603L219 757.85L148.041 686.84Z" fill="#239A55"/>
<path d="M201.26 799.817L219 817.57L148.041 888.58L130.301 870.827L201.26 799.817Z" fill="#239A55"/>
<path d="M161.298 872.624C161.298 864.305 154.559 857.561 146.246 857.561H88.5438C80.2305 857.561 73.4912 864.305 73.4912 872.624V930.368C73.4912 938.688 80.2305 945.432 88.5438 945.432H146.246C154.559 945.432 161.298 938.688 161.298 930.368V872.624Z" fill="#239A55"/>
<path d="M148.041 912.794L130.301 930.547L201.26 1001.56L219 983.805L148.041 912.794Z" fill="#239A55"/>
<path d="M201.26 1025.77L219 1043.52L148.041 1114.53L135.86 1102.34L130.301 1096.78L143.559 1083.52L201.26 1025.77Z" fill="#239A55"/>
<path d="M-152.298 533.693C-152.298 525.374 -145.559 518.629 -137.245 518.629H-79.5438C-71.2304 518.629 -64.4911 525.374 -64.4911 533.693L-64.4912 591.437C-64.4912 599.756 -71.2305 606.501 -79.5438 606.501H-137.246C-145.559 606.501 -152.298 599.756 -152.298 591.437L-152.298 533.693Z" fill="#239A55"/>
<path d="M-152.298 759.647C-152.298 751.328 -145.559 744.584 -137.246 744.584H-79.5438C-71.2305 744.584 -64.4912 751.328 -64.4912 759.647V817.391C-64.4912 825.711 -71.2305 832.455 -79.5438 832.455H-137.246C-145.559 832.455 -152.298 825.711 -152.298 817.391V759.647Z" fill="#239A55"/>
<path d="M-192.26 686.84L-210 704.593L-139.041 775.603L-121.301 757.85L-192.26 686.84Z" fill="#239A55"/>
<path d="M-39.4035 872.624C-39.4035 864.305 -32.6642 857.561 -24.3509 857.561H33.3508C41.6642 857.561 48.4035 864.305 48.4035 872.624V930.368C48.4035 938.688 41.6642 945.432 33.3508 945.432H-24.3509C-32.6642 945.432 -39.4035 938.688 -39.4035 930.368V872.624Z" fill="#239A55"/>
<path d="M73.4912 759.647C73.4912 751.328 80.2305 744.584 88.5438 744.584H146.246C154.559 744.584 161.298 751.328 161.298 759.647V817.391C161.298 825.711 154.559 832.455 146.246 832.455H88.5438C80.2305 832.455 73.4912 825.711 73.4912 817.391V759.647Z" fill="#239A55"/>
<path d="M73.4912 985.602C73.4912 977.282 80.2305 970.538 88.5438 970.538H146.246C154.559 970.538 161.298 977.282 161.298 985.602V1043.35C161.298 1051.66 154.559 1058.41 146.246 1058.41H88.5438C80.2305 1058.41 73.4912 1051.66 73.4912 1043.35V985.602Z" fill="#239A55"/>
<path d="M86.7483 799.817L104.488 817.57L33.5292 888.58L15.7895 870.827L86.7483 799.817Z" fill="#239A55"/>
<path d="M33.5291 912.794L15.7894 930.547L86.7481 1001.56L104.488 983.805L33.5291 912.794Z" fill="#239A55"/>
<path d="M-152.298 872.624C-152.298 864.305 -145.559 857.561 -137.246 857.561H-79.5438C-71.2305 857.561 -64.4912 864.305 -64.4912 872.624V930.368C-64.4912 938.688 -71.2305 945.432 -79.5438 945.432H-137.246C-145.559 945.432 -152.298 938.688 -152.298 930.368V872.624Z" fill="#239A55"/>
<path d="M-39.4035 759.647C-39.4035 751.328 -32.6642 744.584 -24.3509 744.584H33.3508C41.6642 744.584 48.4035 751.328 48.4035 759.647V817.391C48.4035 825.711 41.6642 832.455 33.3508 832.455H-24.3509C-32.6642 832.455 -39.4035 825.711 -39.4035 817.391V759.647Z" fill="#239A55"/>
<path d="M-39.4035 985.602C-39.4035 977.282 -32.6642 970.538 -24.3509 970.538H33.3508C41.6642 970.538 48.4035 977.282 48.4035 985.602V1043.35C48.4035 1051.66 41.6642 1058.41 33.3508 1058.41H-24.3509C-32.6642 1058.41 -39.4035 1051.66 -39.4035 1043.35V985.602Z" fill="#239A55"/>
<path d="M-26.1464 799.817L-8.40671 817.57L-79.3654 888.58L-97.1051 870.827L-26.1464 799.817Z" fill="#239A55"/>
<path d="M-79.3656 912.794L-97.1053 930.547L-26.1465 1001.56L-8.40685 983.805L-79.3656 912.794Z" fill="#239A55"/>
<path d="M48.4035 985.602C48.4035 977.282 41.6642 970.538 33.3508 970.538H-24.3509C-32.6642 970.538 -39.4035 977.282 -39.4035 985.602V1043.35C-39.4035 1051.66 -32.6642 1058.41 -24.3509 1058.41H33.3508C41.6642 1058.41 48.4035 1051.66 48.4035 1043.35V985.602Z" fill="#239A55"/>
<path d="M35.1464 1025.77L17.4067 1043.52L88.3654 1114.53L100.546 1102.34L106.105 1096.78L92.8481 1083.52L35.1464 1025.77Z" fill="#239A55"/>
<path d="M-64.4912 985.602C-64.4912 977.282 -71.2305 970.538 -79.5438 970.538H-137.246C-145.559 970.538 -152.298 977.282 -152.298 985.602V1043.35C-152.298 1051.66 -145.559 1058.41 -137.246 1058.41H-79.5438C-71.2305 1058.41 -64.4912 1051.66 -64.4912 1043.35V985.602Z" fill="#239A55"/>
<path d="M-77.7483 1025.77L-95.488 1043.52L-24.5292 1114.53L-12.3483 1102.34L-6.78955 1096.78L-20.0466 1083.52L-77.7483 1025.77Z" fill="#239A55"/>
<path d="M161.298 533.693C161.298 525.374 154.559 518.629 146.246 518.629H88.5438C80.2305 518.629 73.4912 525.374 73.4912 533.693V591.437C73.4912 599.756 80.2305 606.501 88.5438 606.501H146.246C154.559 606.501 161.298 599.756 161.298 591.437L161.298 533.693Z" fill="#239A55"/>
<path d="M161.298 759.647C161.298 751.328 154.559 744.584 146.246 744.584H88.5438C80.2305 744.584 73.4912 751.328 73.4912 759.647V817.391C73.4912 825.711 80.2305 832.455 88.5438 832.455H146.246C154.559 832.455 161.298 825.711 161.298 817.391V759.647Z" fill="#239A55"/>
<path d="M48.4035 420.716C48.4035 412.397 41.6642 405.652 33.3509 405.652H-24.3508C-32.6642 405.652 -39.4034 412.397 -39.4034 420.716V478.46C-39.4034 486.779 -32.6642 493.523 -24.3508 493.523H33.3509C41.6642 493.523 48.4035 486.779 48.4035 478.46V420.716Z" fill="#239A55"/>
<path d="M48.4035 646.67C48.4035 638.351 41.6642 631.607 33.3508 631.607H-24.3509C-32.6642 631.607 -39.4035 638.351 -39.4035 646.67V704.414C-39.4035 712.733 -32.6642 719.478 -24.3509 719.478H33.3508C41.6642 719.478 48.4035 712.733 48.4035 704.414V646.67Z" fill="#239A55"/>
<path d="M-64.4912 759.647C-64.4912 751.328 -71.2305 744.584 -79.5438 744.584H-137.246C-145.559 744.584 -152.298 751.328 -152.298 759.647V817.391C-152.298 825.711 -145.559 832.455 -137.246 832.455H-79.5438C-71.2305 832.455 -64.4912 825.711 -64.4912 817.391V759.647Z" fill="#239A55"/>
<path d="M35.1464 460.886L17.4067 478.638L88.3654 549.649L106.105 531.896L35.1464 460.886Z" fill="#239A55"/>
<path d="M88.3655 573.863L106.105 591.615L35.1464 662.626L17.4067 644.873L88.3655 573.863Z" fill="#239A55"/>
<path d="M-24.5291 686.84L-6.78941 704.593L-77.7481 775.603L-95.4879 757.85L-24.5291 686.84Z" fill="#239A55"/>
<path d="M35.1464 686.84L17.4067 704.593L88.3654 775.603L106.105 757.85L35.1464 686.84Z" fill="#239A55"/>
<path d="M-152.298 759.647C-152.298 751.328 -145.559 744.584 -137.246 744.584H-79.5438C-71.2305 744.584 -64.4912 751.328 -64.4912 759.647V817.391C-64.4912 825.711 -71.2305 832.455 -79.5438 832.455H-137.246C-145.559 832.455 -152.298 825.711 -152.298 817.391V759.647Z" fill="#239A55"/>
<path d="M-152.298 985.602C-152.298 977.282 -145.559 970.538 -137.246 970.538H-79.5438C-71.2305 970.538 -64.4912 977.282 -64.4912 985.602V1043.35C-64.4912 1051.66 -71.2305 1058.41 -79.5438 1058.41H-137.246C-145.559 1058.41 -152.298 1051.66 -152.298 1043.35V985.602Z" fill="#239A55"/>
<path d="M-139.041 799.817L-121.301 817.57L-192.26 888.58L-210 870.827L-139.041 799.817Z" fill="#239A55"/>
<path d="M-192.26 912.794L-210 930.547L-139.041 1001.56L-121.301 983.805L-192.26 912.794Z" fill="#239A55"/>
<path d="M-152.298 985.602C-152.298 977.282 -145.559 970.538 -137.246 970.538H-79.5438C-71.2305 970.538 -64.4912 977.282 -64.4912 985.602V1043.35C-64.4912 1051.66 -71.2305 1058.41 -79.5438 1058.41H-137.246C-145.559 1058.41 -152.298 1051.66 -152.298 1043.35V985.602Z" fill="#239A55"/>
<path d="M-139.041 1025.77L-121.301 1043.52L-192.26 1114.53L-210 1096.78L-139.041 1025.77Z" fill="#239A55"/>
<path d="M161.298 1268.94C161.298 1277.26 154.559 1284 146.246 1284H88.5438C80.2305 1284 73.4912 1277.26 73.4912 1268.94V1211.19C73.4912 1202.87 80.2305 1196.13 88.5438 1196.13H146.246C154.559 1196.13 161.298 1202.87 161.298 1211.19V1268.94Z" fill="#239A55"/>
<path d="M161.298 1268.94C161.298 1277.26 154.559 1284 146.246 1284H88.5438C80.2305 1284 73.4912 1277.26 73.4912 1268.94V1211.19C73.4912 1202.87 80.2305 1196.13 88.5438 1196.13H146.246C154.559 1196.13 161.298 1202.87 161.298 1211.19V1268.94Z" fill="#239A55"/>
<path d="M148.041 1228.77L130.301 1211.01L201.26 1140L219 1157.76L148.041 1228.77Z" fill="#239A55"/>
<path d="M-39.4035 1268.94C-39.4035 1277.26 -32.6642 1284 -24.3509 1284H33.3508C41.6642 1284 48.4035 1277.26 48.4035 1268.94V1211.19C48.4035 1202.87 41.6642 1196.13 33.3508 1196.13H-24.3509C-32.6642 1196.13 -39.4035 1202.87 -39.4035 1211.19V1268.94Z" fill="#239A55"/>
<path d="M73.4912 1155.96C73.4912 1164.28 80.2305 1171.02 88.5438 1171.02H146.246C154.559 1171.02 161.298 1164.28 161.298 1155.96L161.298 1098.22C161.298 1089.9 154.559 1083.15 146.246 1083.15H88.5438C80.2305 1083.15 73.4912 1089.9 73.4912 1098.22V1155.96Z" fill="#239A55"/>
<path d="M33.5291 1228.77L15.7894 1211.01L86.7481 1140L104.488 1157.76L33.5291 1228.77Z" fill="#239A55"/>
<path d="M-152.298 1268.94C-152.298 1277.26 -145.559 1284 -137.246 1284H-79.5438C-71.2305 1284 -64.4912 1277.26 -64.4912 1268.94V1211.19C-64.4912 1202.87 -71.2305 1196.13 -79.5438 1196.13H-137.246C-145.559 1196.13 -152.298 1202.87 -152.298 1211.19V1268.94Z" fill="#239A55"/>
<path d="M-39.4035 1155.96C-39.4035 1164.28 -32.6642 1171.02 -24.3509 1171.02H33.3508C41.6642 1171.02 48.4035 1164.28 48.4035 1155.96V1098.22C48.4035 1089.9 41.6642 1083.15 33.3508 1083.15H-24.3509C-32.6642 1083.15 -39.4035 1089.9 -39.4035 1098.22V1155.96Z" fill="#239A55"/>
<path d="M-79.3656 1228.77L-97.1053 1211.01L-26.1465 1140L-8.40685 1157.76L-79.3656 1228.77Z" fill="#239A55"/>
<path d="M48.4035 1155.96C48.4035 1164.28 41.6642 1171.02 33.3508 1171.02H-24.3509C-32.6642 1171.02 -39.4035 1164.28 -39.4035 1155.96V1098.22C-39.4035 1089.9 -32.6642 1083.15 -24.3509 1083.15H33.3508C41.6642 1083.15 48.4035 1089.9 48.4035 1098.22V1155.96Z" fill="#239A55"/>
<path d="M-64.4912 1155.96C-64.4912 1164.28 -71.2305 1171.02 -79.5438 1171.02H-137.246C-145.559 1171.02 -152.298 1164.28 -152.298 1155.96V1098.22C-152.298 1089.9 -145.559 1083.15 -137.246 1083.15H-79.5438C-71.2305 1083.15 -64.4912 1089.9 -64.4912 1098.22V1155.96Z" fill="#239A55"/>
<path d="M-152.298 1155.96C-152.298 1164.28 -145.559 1171.02 -137.246 1171.02H-79.5438C-71.2305 1171.02 -64.4912 1164.28 -64.4912 1155.96V1098.22C-64.4912 1089.9 -71.2305 1083.15 -79.5438 1083.15H-137.246C-145.559 1083.15 -152.298 1089.9 -152.298 1098.22V1155.96Z" fill="#239A55"/>
<path d="M-192.26 1228.77L-210 1211.01L-139.041 1140L-121.302 1157.76L-192.26 1228.77Z" fill="#239A55"/>
<path d="M-152.298 1155.96C-152.298 1164.28 -145.559 1171.02 -137.246 1171.02H-79.5438C-71.2305 1171.02 -64.4912 1164.28 -64.4912 1155.96V1098.22C-64.4912 1089.9 -71.2305 1083.15 -79.5438 1083.15H-137.246C-145.559 1083.15 -152.298 1089.9 -152.298 1098.22V1155.96Z" fill="#239A55"/>
<path d="M300.597 -31.1925C300.597 -39.5119 307.336 -46.2561 315.649 -46.2561H373.351C381.664 -46.2561 388.404 -39.5119 388.404 -31.1925V26.5513C388.404 34.8707 381.664 41.615 373.351 41.615L315.649 41.615C307.336 41.615 300.597 34.8707 300.597 26.5513V-31.1925Z" fill="#239A55"/>
<path d="M413.491 81.7846C413.491 73.4652 420.23 66.721 428.544 66.721H486.246C494.559 66.721 501.298 73.4652 501.298 81.7846V139.528C501.298 147.848 494.559 154.592 486.246 154.592H428.544C420.23 154.592 413.491 147.848 413.491 139.528V81.7846Z" fill="#239A55"/>
<path d="M426.748 -104L444.488 -86.2474L373.529 -15.2368L355.79 -32.9894L426.748 -104Z" fill="#239A55"/>
<path d="M373.529 8.97711L355.789 26.7298L426.748 97.7403L444.488 79.9877L373.529 8.97711Z" fill="#239A55"/>
<path d="M501.298 81.7846C501.298 73.4652 494.559 66.721 486.246 66.721H428.544C420.23 66.721 413.491 73.4652 413.491 81.7846V139.528C413.491 147.848 420.23 154.592 428.544 154.592H486.246C494.559 154.592 501.298 147.848 501.298 139.528V81.7846Z" fill="#239A55"/>
<path d="M488.041 -104L470.301 -86.2474L541.26 -15.2368L559 -32.9894L488.041 -104Z" fill="#239A55"/>
<path d="M541.26 8.97711L559 26.7298L488.041 97.7403L470.302 79.9877L541.26 8.97711Z" fill="#239A55"/>
<path d="M187.702 81.7846C187.702 73.4652 194.441 66.721 202.755 66.721H260.456C268.77 66.721 275.509 73.4652 275.509 81.7846V139.528C275.509 147.848 268.77 154.592 260.456 154.592H202.755C194.441 154.592 187.702 147.848 187.702 139.528V81.7846Z" fill="#239A55"/>
<path d="M200.959 -104L218.699 -86.2474L147.74 -15.2368L130 -32.9894L200.959 -104Z" fill="#239A55"/>
<path d="M187.702 81.7846C187.702 73.4652 194.441 66.721 202.755 66.721H260.456C268.77 66.721 275.509 73.4652 275.509 81.7846V139.528C275.509 147.848 268.77 154.592 260.456 154.592H202.755C194.441 154.592 187.702 147.848 187.702 139.528V81.7846Z" fill="#239A55"/>
<path d="M187.702 307.739C187.702 299.419 194.441 292.675 202.755 292.675H260.456C268.77 292.675 275.509 299.419 275.509 307.739L275.509 365.483C275.509 373.802 268.77 380.546 260.456 380.546H202.755C194.441 380.546 187.702 373.802 187.702 365.483L187.702 307.739Z" fill="#239A55"/>
<path d="M200.959 121.954L218.699 139.707L147.74 210.717L130 192.965L200.959 121.954Z" fill="#239A55"/>
<path d="M147.74 234.931L130 252.684L200.959 323.695L218.699 305.942L147.74 234.931Z" fill="#239A55"/>
<path d="M187.702 307.739C187.702 299.419 194.441 292.675 202.755 292.675H260.456C268.77 292.675 275.509 299.419 275.509 307.739L275.509 365.483C275.509 373.802 268.77 380.546 260.456 380.546H202.755C194.441 380.546 187.702 373.802 187.702 365.483L187.702 307.739Z" fill="#239A55"/>
<path d="M200.959 347.909L218.699 365.661L147.74 436.672L130 418.919L200.959 347.909Z" fill="#239A55"/>
<path d="M147.74 460.886L130 478.638L200.959 549.649L213.14 537.459L218.699 531.896L205.442 518.629L147.74 460.886Z" fill="#239A55"/>
<path d="M501.298 -31.1925C501.298 -39.5119 494.559 -46.2561 486.246 -46.2561H428.544C420.23 -46.2561 413.491 -39.5119 413.491 -31.1925V26.5513C413.491 34.8707 420.23 41.615 428.544 41.615H486.246C494.559 41.615 501.298 34.8707 501.298 26.5513V-31.1925Z" fill="#239A55"/>
<path d="M501.298 194.762C501.298 186.442 494.559 179.698 486.246 179.698H428.544C420.23 179.698 413.491 186.442 413.491 194.762V252.506C413.491 260.825 420.23 267.569 428.544 267.569H486.246C494.559 267.569 501.298 260.825 501.298 252.506V194.762Z" fill="#239A55"/>
<path d="M541.26 121.954L559 139.707L488.041 210.717L470.302 192.965L541.26 121.954Z" fill="#239A55"/>
<path d="M388.404 307.739C388.404 299.419 381.664 292.675 373.351 292.675H315.649C307.336 292.675 300.597 299.419 300.597 307.739L300.597 365.483C300.597 373.802 307.336 380.546 315.649 380.546H373.351C381.664 380.546 388.404 373.802 388.404 365.483V307.739Z" fill="#239A55"/>
<path d="M275.509 194.762C275.509 186.442 268.77 179.698 260.456 179.698H202.755C194.441 179.698 187.702 186.442 187.702 194.762V252.506C187.702 260.825 194.441 267.569 202.755 267.569H260.456C268.77 267.569 275.509 260.825 275.509 252.506V194.762Z" fill="#239A55"/>
<path d="M275.509 420.716C275.509 412.397 268.77 405.652 260.456 405.652H202.755C194.441 405.652 187.702 412.397 187.702 420.716V478.46C187.702 486.779 194.441 493.523 202.755 493.523H260.456C268.77 493.523 275.509 486.779 275.509 478.46V420.716Z" fill="#239A55"/>
<path d="M262.252 234.931L244.512 252.684L315.471 323.695L333.211 305.942L262.252 234.931Z" fill="#239A55"/>
<path d="M315.471 347.909L333.211 365.661L262.252 436.672L244.512 418.919L315.471 347.909Z" fill="#239A55"/>
<path d="M501.298 307.739C501.298 299.419 494.559 292.675 486.246 292.675H428.544C420.23 292.675 413.491 299.419 413.491 307.739V365.483C413.491 373.802 420.23 380.546 428.544 380.546H486.246C494.559 380.546 501.298 373.802 501.298 365.483V307.739Z" fill="#239A55"/>
<path d="M388.404 194.762C388.404 186.442 381.664 179.698 373.351 179.698H315.649C307.336 179.698 300.597 186.442 300.597 194.762V252.506C300.597 260.825 307.336 267.569 315.649 267.569H373.351C381.664 267.569 388.404 260.825 388.404 252.506V194.762Z" fill="#239A55"/>
<path d="M388.404 420.716C388.404 412.397 381.664 405.652 373.351 405.652H315.649C307.336 405.652 300.597 412.397 300.597 420.716V478.46C300.597 486.779 307.336 493.523 315.649 493.523H373.351C381.664 493.523 388.404 486.779 388.404 478.46V420.716Z" fill="#239A55"/>
<path d="M375.146 234.931L357.407 252.684L428.365 323.695L446.105 305.942L375.146 234.931Z" fill="#239A55"/>
<path d="M428.366 347.909L446.105 365.661L375.147 436.672L357.407 418.919L428.366 347.909Z" fill="#239A55"/>
<path d="M300.597 420.716C300.597 412.397 307.336 405.652 315.649 405.652H373.351C381.664 405.652 388.404 412.397 388.404 420.716V478.46C388.404 486.779 381.664 493.523 373.351 493.523H315.649C307.336 493.523 300.597 486.779 300.597 478.46V420.716Z" fill="#239A55"/>
<path d="M313.854 460.886L331.593 478.638L260.635 549.649L248.454 537.459L242.895 531.896L256.152 518.629L313.854 460.886Z" fill="#239A55"/>
<path d="M413.491 420.716C413.491 412.397 420.23 405.652 428.544 405.652H486.246C494.559 405.652 501.298 412.397 501.298 420.716V478.46C501.298 486.779 494.559 493.523 486.246 493.523H428.544C420.23 493.523 413.491 486.779 413.491 478.46V420.716Z" fill="#239A55"/>
<path d="M187.702 -31.1925C187.702 -39.5119 194.441 -46.2561 202.755 -46.2561H260.456C268.77 -46.2561 275.509 -39.5119 275.509 -31.1925V26.5513C275.509 34.8707 268.77 41.615 260.456 41.615H202.755C194.441 41.615 187.702 34.8707 187.702 26.5513V-31.1925Z" fill="#239A55"/>
<path d="M187.702 194.762C187.702 186.442 194.441 179.698 202.755 179.698H260.456C268.77 179.698 275.509 186.442 275.509 194.762V252.506C275.509 260.825 268.77 267.569 260.456 267.569H202.755C194.441 267.569 187.702 260.825 187.702 252.506V194.762Z" fill="#239A55"/>
<path d="M300.597 81.7846C300.597 73.4652 307.336 66.721 315.649 66.721L373.351 66.721C381.664 66.721 388.404 73.4652 388.404 81.7846V139.528C388.404 147.848 381.664 154.592 373.351 154.592H315.649C307.336 154.592 300.597 147.848 300.597 139.528V81.7846Z" fill="#239A55"/>
<path d="M413.491 194.762C413.491 186.442 420.23 179.698 428.544 179.698H486.246C494.559 179.698 501.298 186.442 501.298 194.762V252.506C501.298 260.825 494.559 267.569 486.246 267.569H428.544C420.23 267.569 413.491 260.825 413.491 252.506V194.762Z" fill="#239A55"/>
<path d="M313.854 -104L331.593 -86.2474L260.635 -15.2368L242.895 -32.9894L313.854 -104Z" fill="#239A55"/>
<path d="M260.635 8.97711L242.895 26.7298L313.854 97.7403L331.593 79.9877L260.635 8.97711Z" fill="#239A55"/>
<path d="M373.529 121.954L355.789 139.707L426.748 210.717L444.488 192.965L373.529 121.954Z" fill="#239A55"/>
<path d="M313.854 121.954L331.593 139.707L260.635 210.717L242.895 192.965L313.854 121.954Z" fill="#239A55"/>
<path d="M501.298 194.762C501.298 186.442 494.559 179.698 486.246 179.698H428.544C420.23 179.698 413.491 186.442 413.491 194.762V252.506C413.491 260.825 420.23 267.569 428.544 267.569H486.246C494.559 267.569 501.298 260.825 501.298 252.506V194.762Z" fill="#239A55"/>
<path d="M501.298 420.716C501.298 412.397 494.559 405.652 486.246 405.652H428.544C420.23 405.652 413.491 412.397 413.491 420.716V478.46C413.491 486.779 420.23 493.523 428.544 493.523H486.246C494.559 493.523 501.298 486.779 501.298 478.46V420.716Z" fill="#239A55"/>
<path d="M488.041 234.931L470.301 252.684L541.26 323.695L559 305.942L488.041 234.931Z" fill="#239A55"/>
<path d="M541.26 347.909L559 365.661L488.041 436.672L470.302 418.919L541.26 347.909Z" fill="#239A55"/>
<path d="M501.298 420.716C501.298 412.397 494.559 405.652 486.246 405.652H428.544C420.23 405.652 413.491 412.397 413.491 420.716V478.46C413.491 486.779 420.23 493.523 428.544 493.523H486.246C494.559 493.523 501.298 486.779 501.298 478.46V420.716Z" fill="#239A55"/>
<path d="M488.041 460.886L470.301 478.638L541.26 549.649L559 531.896L488.041 460.886Z" fill="#239A55"/>
<path d="M388.404 533.693C388.404 525.374 381.664 518.629 373.351 518.629H315.649C307.336 518.629 300.597 525.374 300.597 533.693L300.596 591.437C300.596 599.756 307.336 606.501 315.649 606.501H373.351C381.664 606.501 388.403 599.756 388.403 591.437L388.404 533.693Z" fill="#239A55"/>
<path d="M275.509 646.67C275.509 638.351 268.77 631.607 260.456 631.607H202.754C194.441 631.607 187.702 638.351 187.702 646.67V704.414C187.702 712.733 194.441 719.478 202.754 719.478H260.456C268.77 719.478 275.509 712.733 275.509 704.414V646.67Z" fill="#239A55"/>
<path d="M315.471 573.863L333.211 591.615L262.252 662.626L244.512 644.873L315.471 573.863Z" fill="#239A55"/>
<path d="M187.702 646.67C187.702 638.351 194.441 631.607 202.754 631.607H260.456C268.77 631.607 275.509 638.351 275.509 646.67V704.414C275.509 712.733 268.77 719.478 260.456 719.478H202.754C194.441 719.478 187.702 712.733 187.702 704.414V646.67Z" fill="#239A55"/>
<path d="M501.298 420.716C501.298 412.397 494.559 405.652 486.246 405.652H428.544C420.23 405.652 413.491 412.397 413.491 420.716V478.46C413.491 486.779 420.23 493.523 428.544 493.523H486.246C494.559 493.523 501.298 486.779 501.298 478.46V420.716Z" fill="#239A55"/>
<path d="M501.298 646.67C501.298 638.351 494.559 631.607 486.246 631.607H428.544C420.23 631.607 413.491 638.351 413.491 646.67V704.414C413.491 712.733 420.23 719.478 428.544 719.478H486.246C494.559 719.478 501.298 712.733 501.298 704.414V646.67Z" fill="#239A55"/>
<path d="M488.041 460.886L470.301 478.638L541.26 549.649L559 531.896L488.041 460.886Z" fill="#239A55"/>
<path d="M541.26 573.863L559 591.615L488.041 662.626L470.301 644.873L541.26 573.863Z" fill="#239A55"/>
<path d="M501.298 420.716C501.298 412.397 494.559 405.652 486.246 405.652H428.544C420.23 405.652 413.491 412.397 413.491 420.716V478.46C413.491 486.779 420.23 493.523 428.544 493.523H486.246C494.559 493.523 501.298 486.779 501.298 478.46V420.716Z" fill="#239A55"/>
<path d="M541.26 347.909L559 365.661L488.041 436.672L470.302 418.919L541.26 347.909Z" fill="#239A55"/>
<path d="M388.404 420.716C388.404 412.397 381.664 405.652 373.351 405.652H315.649C307.336 405.652 300.597 412.397 300.597 420.716V478.46C300.597 486.779 307.336 493.523 315.649 493.523H373.351C381.664 493.523 388.404 486.779 388.404 478.46V420.716Z" fill="#239A55"/>
<path d="M428.366 347.909L446.105 365.661L375.147 436.672L357.407 418.919L428.366 347.909Z" fill="#239A55"/>
<path d="M501.298 646.67C501.298 638.351 494.559 631.607 486.246 631.607H428.544C420.23 631.607 413.491 638.351 413.491 646.67V704.414C413.491 712.733 420.23 719.478 428.544 719.478H486.246C494.559 719.478 501.298 712.733 501.298 704.414V646.67Z" fill="#239A55"/>
<path d="M501.298 872.624C501.298 864.305 494.559 857.561 486.246 857.561H428.544C420.23 857.561 413.491 864.305 413.491 872.624V930.368C413.491 938.688 420.23 945.432 428.544 945.432H486.246C494.559 945.432 501.298 938.688 501.298 930.368V872.624Z" fill="#239A55"/>
<path d="M488.041 686.84L470.301 704.593L541.26 775.603L559 757.85L488.041 686.84Z" fill="#239A55"/>
<path d="M541.26 799.817L559 817.57L488.041 888.58L470.301 870.827L541.26 799.817Z" fill="#239A55"/>
<path d="M501.298 872.624C501.298 864.305 494.559 857.561 486.246 857.561H428.544C420.23 857.561 413.491 864.305 413.491 872.624V930.368C413.491 938.688 420.23 945.432 428.544 945.432H486.246C494.559 945.432 501.298 938.688 501.298 930.368V872.624Z" fill="#239A55"/>
<path d="M488.041 912.794L470.301 930.547L541.26 1001.56L559 983.805L488.041 912.794Z" fill="#239A55"/>
<path d="M541.26 1025.77L559 1043.52L488.041 1114.53L475.86 1102.34L470.301 1096.78L483.559 1083.52L541.26 1025.77Z" fill="#239A55"/>
<path d="M187.702 533.693C187.702 525.374 194.441 518.629 202.755 518.629H260.456C268.77 518.629 275.509 525.374 275.509 533.693L275.509 591.437C275.509 599.756 268.77 606.501 260.456 606.501H202.754C194.441 606.501 187.702 599.756 187.702 591.437L187.702 533.693Z" fill="#239A55"/>
<path d="M187.702 759.647C187.702 751.328 194.441 744.584 202.754 744.584H260.456C268.77 744.584 275.509 751.328 275.509 759.647V817.391C275.509 825.711 268.77 832.455 260.456 832.455H202.754C194.441 832.455 187.702 825.711 187.702 817.391V759.647Z" fill="#239A55"/>
<path d="M147.74 686.84L130 704.593L200.959 775.603L218.699 757.85L147.74 686.84Z" fill="#239A55"/>
<path d="M300.596 872.624C300.596 864.305 307.336 857.561 315.649 857.561H373.351C381.664 857.561 388.403 864.305 388.403 872.624V930.368C388.403 938.688 381.664 945.432 373.351 945.432H315.649C307.336 945.432 300.596 938.688 300.596 930.368V872.624Z" fill="#239A55"/>
<path d="M413.491 759.647C413.491 751.328 420.23 744.584 428.544 744.584H486.246C494.559 744.584 501.298 751.328 501.298 759.647V817.391C501.298 825.711 494.559 832.455 486.246 832.455H428.544C420.23 832.455 413.491 825.711 413.491 817.391V759.647Z" fill="#239A55"/>
<path d="M413.491 985.602C413.491 977.282 420.23 970.538 428.544 970.538H486.246C494.559 970.538 501.298 977.282 501.298 985.602V1043.35C501.298 1051.66 494.559 1058.41 486.246 1058.41H428.544C420.23 1058.41 413.491 1051.66 413.491 1043.35V985.602Z" fill="#239A55"/>
<path d="M426.748 799.817L444.488 817.57L373.529 888.58L355.79 870.827L426.748 799.817Z" fill="#239A55"/>
<path d="M373.529 912.794L355.789 930.547L426.748 1001.56L444.488 983.805L373.529 912.794Z" fill="#239A55"/>
<path d="M187.702 872.624C187.702 864.305 194.441 857.561 202.754 857.561H260.456C268.77 857.561 275.509 864.305 275.509 872.624V930.368C275.509 938.688 268.77 945.432 260.456 945.432H202.754C194.441 945.432 187.702 938.688 187.702 930.368V872.624Z" fill="#239A55"/>
<path d="M300.596 759.647C300.596 751.328 307.336 744.584 315.649 744.584H373.351C381.664 744.584 388.403 751.328 388.403 759.647V817.391C388.403 825.711 381.664 832.455 373.351 832.455H315.649C307.336 832.455 300.596 825.711 300.596 817.391V759.647Z" fill="#239A55"/>
<path d="M300.596 985.602C300.596 977.282 307.336 970.538 315.649 970.538H373.351C381.664 970.538 388.403 977.282 388.403 985.602V1043.35C388.403 1051.66 381.664 1058.41 373.351 1058.41H315.649C307.336 1058.41 300.596 1051.66 300.596 1043.35V985.602Z" fill="#239A55"/>
<path d="M313.854 799.817L331.593 817.57L260.635 888.58L242.895 870.827L313.854 799.817Z" fill="#239A55"/>
<path d="M260.634 912.794L242.895 930.547L313.853 1001.56L331.593 983.805L260.634 912.794Z" fill="#239A55"/>
<path d="M388.403 985.602C388.403 977.282 381.664 970.538 373.351 970.538H315.649C307.336 970.538 300.596 977.282 300.596 985.602V1043.35C300.596 1051.66 307.336 1058.41 315.649 1058.41H373.351C381.664 1058.41 388.403 1051.66 388.403 1043.35V985.602Z" fill="#239A55"/>
<path d="M375.146 1025.77L357.407 1043.52L428.365 1114.53L440.546 1102.34L446.105 1096.78L432.848 1083.52L375.146 1025.77Z" fill="#239A55"/>
<path d="M275.509 985.602C275.509 977.282 268.77 970.538 260.456 970.538H202.754C194.441 970.538 187.702 977.282 187.702 985.602V1043.35C187.702 1051.66 194.441 1058.41 202.754 1058.41H260.456C268.77 1058.41 275.509 1051.66 275.509 1043.35V985.602Z" fill="#239A55"/>
<path d="M262.252 1025.77L244.512 1043.52L315.471 1114.53L327.652 1102.34L333.21 1096.78L319.953 1083.52L262.252 1025.77Z" fill="#239A55"/>
<path d="M501.298 533.693C501.298 525.374 494.559 518.629 486.246 518.629H428.544C420.23 518.629 413.491 525.374 413.491 533.693V591.437C413.491 599.756 420.23 606.501 428.544 606.501H486.246C494.559 606.501 501.298 599.756 501.298 591.437V533.693Z" fill="#239A55"/>
<path d="M501.298 759.647C501.298 751.328 494.559 744.584 486.246 744.584H428.544C420.23 744.584 413.491 751.328 413.491 759.647V817.391C413.491 825.711 420.23 832.455 428.544 832.455H486.246C494.559 832.455 501.298 825.711 501.298 817.391V759.647Z" fill="#239A55"/>
<path d="M388.404 420.716C388.404 412.397 381.664 405.652 373.351 405.652H315.649C307.336 405.652 300.597 412.397 300.597 420.716V478.46C300.597 486.779 307.336 493.523 315.649 493.523H373.351C381.664 493.523 388.404 486.779 388.404 478.46V420.716Z" fill="#239A55"/>
<path d="M388.403 646.67C388.403 638.351 381.664 631.607 373.351 631.607H315.649C307.336 631.607 300.596 638.351 300.596 646.67V704.414C300.596 712.733 307.336 719.478 315.649 719.478H373.351C381.664 719.478 388.403 712.733 388.403 704.414V646.67Z" fill="#239A55"/>
<path d="M275.509 759.647C275.509 751.328 268.77 744.584 260.456 744.584H202.754C194.441 744.584 187.702 751.328 187.702 759.647V817.391C187.702 825.711 194.441 832.455 202.754 832.455H260.456C268.77 832.455 275.509 825.711 275.509 817.391V759.647Z" fill="#239A55"/>
<path d="M375.146 460.886L357.407 478.638L428.365 549.649L446.105 531.896L375.146 460.886Z" fill="#239A55"/>
<path d="M428.365 573.863L446.105 591.615L375.146 662.626L357.407 644.873L428.365 573.863Z" fill="#239A55"/>
<path d="M315.471 686.84L333.211 704.593L262.252 775.603L244.512 757.85L315.471 686.84Z" fill="#239A55"/>
<path d="M375.146 686.84L357.407 704.593L428.365 775.603L446.105 757.85L375.146 686.84Z" fill="#239A55"/>
<path d="M187.702 759.647C187.702 751.328 194.441 744.584 202.754 744.584H260.456C268.77 744.584 275.509 751.328 275.509 759.647V817.391C275.509 825.711 268.77 832.455 260.456 832.455H202.754C194.441 832.455 187.702 825.711 187.702 817.391V759.647Z" fill="#239A55"/>
<path d="M187.702 985.602C187.702 977.282 194.441 970.538 202.754 970.538H260.456C268.77 970.538 275.509 977.282 275.509 985.602V1043.35C275.509 1051.66 268.77 1058.41 260.456 1058.41H202.754C194.441 1058.41 187.702 1051.66 187.702 1043.35V985.602Z" fill="#239A55"/>
<path d="M200.959 799.817L218.699 817.57L147.74 888.58L130 870.827L200.959 799.817Z" fill="#239A55"/>
<path d="M147.74 912.794L130 930.547L200.959 1001.56L218.699 983.805L147.74 912.794Z" fill="#239A55"/>
<path d="M187.702 985.602C187.702 977.282 194.441 970.538 202.754 970.538H260.456C268.77 970.538 275.509 977.282 275.509 985.602V1043.35C275.509 1051.66 268.77 1058.41 260.456 1058.41H202.754C194.441 1058.41 187.702 1051.66 187.702 1043.35V985.602Z" fill="#239A55"/>
<path d="M200.959 1025.77L218.699 1043.52L147.74 1114.53L130 1096.78L200.959 1025.77Z" fill="#239A55"/>
<path d="M501.298 1268.94C501.298 1277.26 494.559 1284 486.246 1284H428.544C420.23 1284 413.491 1277.26 413.491 1268.94V1211.19C413.491 1202.87 420.23 1196.13 428.544 1196.13H486.246C494.559 1196.13 501.298 1202.87 501.298 1211.19L501.298 1268.94Z" fill="#239A55"/>
<path d="M501.298 1268.94C501.298 1277.26 494.559 1284 486.246 1284H428.544C420.23 1284 413.491 1277.26 413.491 1268.94V1211.19C413.491 1202.87 420.23 1196.13 428.544 1196.13H486.246C494.559 1196.13 501.298 1202.87 501.298 1211.19L501.298 1268.94Z" fill="#239A55"/>
<path d="M488.041 1228.77L470.301 1211.01L541.26 1140L559 1157.76L488.041 1228.77Z" fill="#239A55"/>
<path d="M300.596 1268.94C300.596 1277.26 307.336 1284 315.649 1284H373.351C381.664 1284 388.403 1277.26 388.403 1268.94V1211.19C388.403 1202.87 381.664 1196.13 373.351 1196.13H315.649C307.336 1196.13 300.596 1202.87 300.596 1211.19V1268.94Z" fill="#239A55"/>
<path d="M413.491 1155.96C413.491 1164.28 420.23 1171.02 428.544 1171.02H486.246C494.559 1171.02 501.298 1164.28 501.298 1155.96V1098.22C501.298 1089.9 494.559 1083.15 486.246 1083.15H428.544C420.23 1083.15 413.491 1089.9 413.491 1098.22V1155.96Z" fill="#239A55"/>
<path d="M373.529 1228.77L355.789 1211.01L426.748 1140L444.488 1157.76L373.529 1228.77Z" fill="#239A55"/>
<path d="M187.702 1268.94C187.702 1277.26 194.441 1284 202.754 1284H260.456C268.77 1284 275.509 1277.26 275.509 1268.94V1211.19C275.509 1202.87 268.77 1196.13 260.456 1196.13H202.754C194.441 1196.13 187.702 1202.87 187.702 1211.19V1268.94Z" fill="#239A55"/>
<path d="M300.596 1155.96C300.596 1164.28 307.336 1171.02 315.649 1171.02H373.351C381.664 1171.02 388.403 1164.28 388.403 1155.96V1098.22C388.403 1089.9 381.664 1083.15 373.351 1083.15H315.649C307.336 1083.15 300.596 1089.9 300.596 1098.22V1155.96Z" fill="#239A55"/>
<path d="M260.634 1228.77L242.895 1211.01L313.853 1140L331.593 1157.76L260.634 1228.77Z" fill="#239A55"/>
<path d="M388.403 1155.96C388.403 1164.28 381.664 1171.02 373.351 1171.02H315.649C307.336 1171.02 300.596 1164.28 300.596 1155.96V1098.22C300.596 1089.9 307.336 1083.15 315.649 1083.15H373.351C381.664 1083.15 388.403 1089.9 388.403 1098.22V1155.96Z" fill="#239A55"/>
<path d="M275.509 1155.96C275.509 1164.28 268.77 1171.02 260.456 1171.02H202.754C194.441 1171.02 187.702 1164.28 187.702 1155.96V1098.22C187.702 1089.9 194.441 1083.15 202.754 1083.15H260.456C268.77 1083.15 275.509 1089.9 275.509 1098.22V1155.96Z" fill="#239A55"/>
<path d="M187.702 1155.96C187.702 1164.28 194.441 1171.02 202.754 1171.02H260.456C268.77 1171.02 275.509 1164.28 275.509 1155.96V1098.22C275.509 1089.9 268.77 1083.15 260.456 1083.15H202.754C194.441 1083.15 187.702 1089.9 187.702 1098.22V1155.96Z" fill="#239A55"/>
<path d="M147.74 1228.77L130 1211.01L200.959 1140L218.698 1157.76L147.74 1228.77Z" fill="#239A55"/>
<path d="M187.702 1155.96C187.702 1164.28 194.441 1171.02 202.754 1171.02H260.456C268.77 1171.02 275.509 1164.28 275.509 1155.96V1098.22C275.509 1089.9 268.77 1083.15 260.456 1083.15H202.754C194.441 1083.15 187.702 1089.9 187.702 1098.22V1155.96Z" fill="#239A55"/>
</g>
<defs>
<clipPath id="clip0_2482_202">
<rect width="769" height="1388" fill="white" transform="translate(-210 -104)"/>
</clipPath>
</defs>
</svg>
