<svg width="147" height="47" viewBox="0 0 147 47" fill="none" xmlns="http://www.w3.org/2000/svg">
<path d="M141 46.7735L146.773 41L141 35.2265L135.227 41L141 46.7735ZM0.999998 7.62939e-06C0.447713 7.65354e-06 -1.7726e-06 0.447723 -1.74846e-06 1.00001C-1.72431e-06 1.55229 0.447714 2.00001 0.999998 2.00001L0.999998 7.62939e-06ZM141 1L142 1L142 1.46609e-06L141 1.5098e-06L141 1ZM58.0616 5.13515e-06L0.999998 7.62939e-06L0.999998 2.00001L58.0616 2.00001L58.0616 5.13515e-06ZM142 41L142 1L140 1L140 41L142 41ZM141 1.5098e-06L58.0616 5.13515e-06L58.0616 2.00001L141 2L141 1.5098e-06Z" fill="white"/>
</svg>
