<svg width="243" height="330" viewBox="0 0 243 330" fill="none" xmlns="http://www.w3.org/2000/svg">
<g opacity="0.9">
<path d="M155.608 11.6322C155.608 5.2079 150.391 1.31263e-05 143.956 1.25637e-05L99.2885 8.65878e-06C92.8531 8.09617e-06 87.6362 5.2079 87.6362 11.6321L87.6362 56.222C87.6362 62.6462 92.8531 67.8541 99.2885 67.8541L143.956 67.8541C150.391 67.8541 155.608 62.6463 155.608 56.222L155.608 11.6322Z" fill="#219653"/>
<path d="M68.2156 98.8732C68.2156 92.4489 62.9987 87.241 56.5633 87.241L11.896 87.241C5.46057 87.241 0.243644 92.4489 0.243644 98.8732L0.24364 143.463C0.243639 149.887 5.46057 155.095 11.896 155.095L56.5633 155.095C62.9987 155.095 68.2156 149.887 68.2156 143.463L68.2156 98.8732Z" fill="#219653"/>
<path d="M99.1505 42.6512L112.883 56.3598L57.9533 111.194L44.2209 97.4856L99.1505 42.6512Z" fill="#219653"/>
<path d="M0.243644 98.8732C0.243644 92.4489 5.46057 87.241 11.896 87.241L56.5633 87.241C62.9987 87.241 68.2156 92.4489 68.2156 98.8732L68.2156 143.463C68.2156 149.887 62.9987 155.095 56.5633 155.095L11.896 155.095C5.46057 155.095 0.243639 149.887 0.24364 143.463L0.243644 98.8732Z" fill="#219653"/>
<path d="M0.243636 186.114C0.243637 179.69 5.46056 174.482 11.896 174.482L56.5633 174.482C62.9987 174.482 68.2156 179.69 68.2156 186.114L68.2156 230.704C68.2156 237.128 62.9987 242.336 56.5633 242.336L11.896 242.336C5.46056 242.336 0.243632 237.128 0.243632 230.704L0.243636 186.114Z" fill="#219653"/>
<path d="M87.6361 273.355C87.6361 266.931 92.8531 261.723 99.2885 261.723L143.956 261.723C150.391 261.723 155.608 266.931 155.608 273.355L155.608 317.945C155.608 324.369 150.391 329.577 143.956 329.577L99.2885 329.577C92.8531 329.577 87.6361 324.369 87.6361 317.945L87.6361 273.355Z" fill="#219653"/>
<path d="M175.029 186.114C175.029 179.69 180.246 174.482 186.681 174.482L231.348 174.482C237.784 174.482 243.001 179.69 243.001 186.114L243.001 230.704C243.001 237.128 237.784 242.336 231.348 242.336L186.681 242.336C180.246 242.336 175.029 237.128 175.029 230.704L175.029 186.114Z" fill="#219653"/>
<path d="M185.291 217.133L199.023 230.842L144.094 285.676L130.361 271.968L185.291 217.133Z" fill="#219653"/>
<path d="M0.243628 273.355C0.243629 266.931 5.46056 261.723 11.896 261.723L56.5633 261.723C62.9987 261.723 68.2156 266.931 68.2156 273.355L68.2156 317.945C68.2156 324.369 62.9987 329.577 56.5632 329.577L11.896 329.577C5.46055 329.577 0.243624 324.369 0.243625 317.945L0.243628 273.355Z" fill="#219653"/>
<path d="M87.6362 186.114C87.6362 179.69 92.8531 174.482 99.2885 174.482L143.956 174.482C150.391 174.482 155.608 179.69 155.608 186.114L155.608 230.704C155.608 237.128 150.391 242.336 143.956 242.336L99.2885 242.336C92.8531 242.336 87.6361 237.128 87.6361 230.704L87.6362 186.114Z" fill="#219653"/>
<path d="M97.8986 217.133L111.631 230.842L56.7013 285.676L42.9689 271.968L97.8986 217.133Z" fill="#219653"/>
<path d="M243.001 11.6322C243.001 5.20791 237.784 2.07664e-05 231.348 2.02038e-05L186.681 1.62989e-05C180.246 1.57363e-05 175.029 5.20791 175.029 11.6322L175.029 56.222C175.029 62.6463 180.246 67.8541 186.681 67.8541L231.348 67.8541C237.784 67.8541 243.001 62.6463 243.001 56.222L243.001 11.6322Z" fill="#219653"/>
<path d="M243.001 186.114C243.001 179.69 237.784 174.482 231.348 174.482L186.681 174.482C180.246 174.482 175.029 179.69 175.029 186.114L175.029 230.704C175.029 237.128 180.246 242.336 186.681 242.336L231.348 242.336C237.784 242.336 243.001 237.128 243.001 230.704L243.001 186.114Z" fill="#219653"/>
<path d="M155.608 98.8732C155.608 92.4489 150.391 87.241 143.956 87.241L99.2885 87.241C92.8531 87.241 87.6362 92.4489 87.6362 98.8732L87.6362 143.463C87.6362 149.887 92.8531 155.095 99.2885 155.095L143.956 155.095C150.391 155.095 155.608 149.887 155.608 143.463L155.608 98.8732Z" fill="#219653"/>
<path d="M68.2156 186.114C68.2156 179.69 62.9987 174.482 56.5633 174.482L11.896 174.482C5.46056 174.482 0.243637 179.69 0.243636 186.114L0.243632 230.704C0.243632 237.128 5.46056 242.336 11.896 242.336L56.5633 242.336C62.9987 242.336 68.2156 237.128 68.2156 230.704L68.2156 186.114Z" fill="#219653"/>
<path d="M186.543 42.6512L200.275 56.3598L145.346 111.194L131.613 97.4856L186.543 42.6512Z" fill="#219653"/>
<path d="M99.1505 129.892L112.883 143.601L57.9533 198.435L44.2209 184.727L99.1505 129.892Z" fill="#219653"/>
<path d="M145.346 129.892L131.613 143.601L186.543 198.435L200.275 184.727L145.346 129.892Z" fill="#219653"/>
<path d="M0.243636 186.114C0.243637 179.69 5.46056 174.482 11.896 174.482L56.5633 174.482C62.9987 174.482 68.2156 179.69 68.2156 186.114L68.2156 230.704C68.2156 237.128 62.9987 242.336 56.5633 242.336L11.896 242.336C5.46056 242.336 0.243632 237.128 0.243632 230.704L0.243636 186.114Z" fill="#219653"/>
</g>
</svg>
