<svg width="87" height="155" viewBox="0 0 87 155" fill="none" xmlns="http://www.w3.org/2000/svg">
<g opacity="0.9">
<path d="M14.04 149.529C14.04 152.551 16.4899 155 19.512 155H40.488C43.5101 155 45.96 152.551 45.96 149.529V128.559C45.96 125.538 43.5101 123.088 40.488 123.088H19.512C16.4899 123.088 14.04 125.538 14.04 128.559V149.529Z" fill="#E0E0E0"/>
<path d="M55.08 108.5C55.08 111.521 57.5299 113.971 60.552 113.971H81.528C84.5501 113.971 87 111.521 87 108.5V87.5294C87 84.5081 84.5501 82.0588 81.528 82.0588H60.552C57.5299 82.0588 55.08 84.5081 55.08 87.5294V108.5Z" fill="#E0E0E0"/>
<path d="M40.5528 134.941L34.104 128.494L59.8992 102.705L66.348 109.153L40.5528 134.941Z" fill="#E0E0E0"/>
<path d="M87 108.5C87 111.521 84.5501 113.971 81.528 113.971H60.552C57.5299 113.971 55.08 111.521 55.08 108.5V87.5294C55.08 84.5081 57.5299 82.0588 60.552 82.0588H81.528C84.5501 82.0588 87 84.5081 87 87.5294V108.5Z" fill="#E0E0E0"/>
<path d="M87 67.4706C87 70.4919 84.5501 72.9412 81.528 72.9412H60.552C57.5299 72.9412 55.08 70.4919 55.08 67.4706V46.5C55.08 43.4787 57.5299 41.0294 60.552 41.0294H81.528C84.5501 41.0294 87 43.4787 87 46.5V67.4706Z" fill="#E0E0E0"/>
<path d="M45.96 26.4412C45.96 29.4625 43.5101 31.9118 40.488 31.9118H19.512C16.4899 31.9118 14.04 29.4625 14.04 26.4412V5.4706C14.04 2.44926 16.4899 0 19.512 0H40.488C43.5101 0 45.96 2.44926 45.96 5.4706V26.4412Z" fill="#E0E0E0"/>
<path d="M4.92 67.4706C4.92 70.4919 2.4701 72.9412 -0.552002 72.9412H-21.528C-24.5501 72.9412 -27 70.4919 -27 67.4706V46.5C-27 43.4787 -24.5501 41.0294 -21.528 41.0294H-0.552002C2.4701 41.0294 4.92 43.4787 4.92 46.5V67.4706Z" fill="#E0E0E0"/>
<path d="M0.100716 52.8823L-6.3481 46.4352L19.4472 20.6466L25.896 27.0938L0.100716 52.8823Z" fill="#E0E0E0"/>
<path d="M87 26.4412C87 29.4625 84.5501 31.9118 81.528 31.9118H60.552C57.5299 31.9118 55.08 29.4625 55.08 26.4412L55.08 5.4706C55.08 2.44926 57.5299 0 60.552 0H81.528C84.5501 0 87 2.44926 87 5.4706V26.4412Z" fill="#E0E0E0"/>
<path d="M45.96 67.4706C45.96 70.4919 43.5101 72.9412 40.488 72.9412H19.512C16.4899 72.9412 14.04 70.4919 14.04 67.4706V46.5C14.04 43.4787 16.4899 41.0294 19.512 41.0294H40.488C43.5101 41.0294 45.96 43.4787 45.96 46.5V67.4706Z" fill="#E0E0E0"/>
<path d="M41.1407 52.8823L34.6919 46.4352L60.4871 20.6466L66.936 27.0938L41.1407 52.8823Z" fill="#E0E0E0"/>
<path d="M-27 149.529C-27 152.551 -24.5501 155 -21.528 155H-0.552002C2.4701 155 4.92 152.551 4.92 149.529V128.559C4.92 125.538 2.4701 123.088 -0.552002 123.088H-21.528C-24.5501 123.088 -27 125.538 -27 128.559V149.529Z" fill="#E0E0E0"/>
<path d="M-27 67.4706C-27 70.4919 -24.5501 72.9412 -21.528 72.9412H-0.552002C2.4701 72.9412 4.92 70.4919 4.92 67.4706V46.5C4.92 43.4787 2.4701 41.0294 -0.552002 41.0294H-21.528C-24.5501 41.0294 -27 43.4787 -27 46.5V67.4706Z" fill="#E0E0E0"/>
<path d="M14.04 108.5C14.04 111.521 16.4899 113.971 19.512 113.971H40.488C43.5101 113.971 45.96 111.521 45.96 108.5L45.96 87.5294C45.96 84.5081 43.5101 82.0588 40.488 82.0588H19.512C16.4899 82.0588 14.04 84.5081 14.04 87.5294V108.5Z" fill="#E0E0E0"/>
<path d="M55.08 67.4706C55.08 70.4919 57.5299 72.9412 60.552 72.9412H81.528C84.5501 72.9412 87 70.4919 87 67.4706V46.5C87 43.4787 84.5501 41.0294 81.528 41.0294H60.552C57.5299 41.0294 55.08 43.4787 55.08 46.5V67.4706Z" fill="#E0E0E0"/>
<path d="M-0.487183 134.941L-6.936 128.494L18.8593 102.705L25.3081 109.153L-0.487183 134.941Z" fill="#E0E0E0"/>
<path d="M40.5528 93.9118L34.104 87.4646L59.8992 61.676L66.348 68.1231L40.5528 93.9118Z" fill="#E0E0E0"/>
<path d="M18.8593 93.9118L25.3081 87.4646L-0.48716 61.676L-6.93597 68.1231L18.8593 93.9118Z" fill="#E0E0E0"/>
<path d="M87 67.4706C87 70.4919 84.5501 72.9412 81.528 72.9412H60.552C57.5299 72.9412 55.08 70.4919 55.08 67.4706V46.5C55.08 43.4787 57.5299 41.0294 60.552 41.0294H81.528C84.5501 41.0294 87 43.4787 87 46.5V67.4706Z" fill="#E0E0E0"/>
</g>
</svg>
