<svg width="67" height="196" viewBox="0 0 67 196" fill="none" xmlns="http://www.w3.org/2000/svg">
<g opacity="0.9">
<path d="M72.96 149.507C72.96 152.528 70.5101 154.977 67.488 154.977H46.512C43.4899 154.977 41.04 152.528 41.04 149.507L41.04 128.54C41.04 125.519 43.4899 123.07 46.512 123.07H67.488C70.5101 123.07 72.96 125.519 72.96 128.54V149.507Z" fill="#E0E0E0"/>
<path d="M31.92 190.53C31.92 193.551 29.4701 196 26.448 196H5.472C2.4499 196 0 193.551 0 190.53L0 169.563C0 166.542 2.4499 164.093 5.472 164.093H26.448C29.4701 164.093 31.92 166.542 31.92 169.563V190.53Z" fill="#E0E0E0"/>
<path d="M31.92 108.484C31.92 111.505 29.4701 113.953 26.448 113.953H5.472C2.4499 113.953 0 111.505 0 108.484L0 87.5163C0 84.4954 2.4499 82.0465 5.472 82.0465H26.448C29.4701 82.0465 31.92 84.4954 31.92 87.5163V108.484Z" fill="#E0E0E0"/>
<path d="M27.1007 175.944L20.6519 169.498L46.4472 143.713L52.896 150.159L27.1007 175.944Z" fill="#E0E0E0"/>
<path d="M46.4472 134.921L52.896 128.475L27.1008 102.69L20.652 109.136L46.4472 134.921Z" fill="#E0E0E0"/>
<path d="M0 190.53C0 193.551 2.4499 196 5.472 196H26.448C29.4701 196 31.92 193.551 31.92 190.53V169.563C31.92 166.542 29.4701 164.093 26.448 164.093H5.472C2.4499 164.093 0 166.542 0 169.563L0 190.53Z" fill="#E0E0E0"/>
<path d="M0 108.484C0 111.505 2.4499 113.953 5.472 113.953H26.448C29.4701 113.953 31.92 111.505 31.92 108.484V87.5163C31.92 84.4954 29.4701 82.0465 26.448 82.0465H5.472C2.4499 82.0465 0 84.4954 0 87.5163L0 108.484Z" fill="#E0E0E0"/>
<path d="M0 190.53C0 193.551 2.4499 196 5.472 196H26.448C29.4701 196 31.92 193.551 31.92 190.53V169.563C31.92 166.542 29.4701 164.093 26.448 164.093H5.472C2.4499 164.093 0 166.542 0 169.563L0 190.53Z" fill="#E0E0E0"/>
<path d="M0 67.4605C0 70.4813 2.4499 72.9302 5.472 72.9302H26.448C29.4701 72.9302 31.92 70.4813 31.92 67.4605L31.92 46.493C31.92 43.4722 29.4701 41.0233 26.448 41.0233H5.472C2.4499 41.0233 0 43.4722 0 46.493L0 67.4605Z" fill="#E0E0E0"/>
<path d="M41.04 26.4372C41.04 29.4581 43.4899 31.907 46.512 31.907H67.488C70.5101 31.907 72.96 29.4581 72.96 26.4372V5.46977C72.96 2.44891 70.5101 0 67.488 0H46.512C43.4899 0 41.04 2.44891 41.04 5.46977L41.04 26.4372Z" fill="#E0E0E0"/>
<path d="M82.08 67.4605C82.08 70.4813 84.5299 72.9302 87.552 72.9302H108.528C111.55 72.9302 114 70.4813 114 67.4605V46.493C114 43.4722 111.55 41.0233 108.528 41.0233H87.552C84.5299 41.0233 82.08 43.4722 82.08 46.493V67.4605Z" fill="#E0E0E0"/>
<path d="M86.8993 52.8744L93.3481 46.4282L67.5528 20.6435L61.104 27.0897L86.8993 52.8744Z" fill="#E0E0E0"/>
<path d="M0 26.4372C0 29.4581 2.4499 31.907 5.472 31.907H26.448C29.4701 31.907 31.92 29.4581 31.92 26.4372V5.46977C31.92 2.44891 29.4701 0 26.448 0H5.472C2.4499 0 0 2.44891 0 5.46977L0 26.4372Z" fill="#E0E0E0"/>
<path d="M41.04 67.4605C41.04 70.4813 43.4899 72.9302 46.512 72.9302H67.488C70.5101 72.9302 72.96 70.4813 72.96 67.4605V46.493C72.96 43.4722 70.5101 41.0233 67.488 41.0233H46.512C43.4899 41.0233 41.04 43.4722 41.04 46.493V67.4605Z" fill="#E0E0E0"/>
<path d="M45.8593 52.8744L52.3081 46.4282L26.5129 20.6435L20.064 27.0897L45.8593 52.8744Z" fill="#E0E0E0"/>
<path d="M114 149.507C114 152.528 111.55 154.977 108.528 154.977H87.552C84.5299 154.977 82.08 152.528 82.08 149.507V128.54C82.08 125.519 84.5299 123.07 87.552 123.07H108.528C111.55 123.07 114 125.519 114 128.54V149.507Z" fill="#E0E0E0"/>
<path d="M114 67.4605C114 70.4813 111.55 72.9302 108.528 72.9302H87.552C84.5299 72.9302 82.08 70.4813 82.08 67.4605V46.493C82.08 43.4722 84.5299 41.0233 87.552 41.0233H108.528C111.55 41.0233 114 43.4722 114 46.493V67.4605Z" fill="#E0E0E0"/>
<path d="M72.96 108.484C72.96 111.505 70.5101 113.953 67.488 113.953H46.512C43.4899 113.953 41.04 111.505 41.04 108.484V87.5163C41.04 84.4954 43.4899 82.0465 46.512 82.0465H67.488C70.5101 82.0465 72.96 84.4954 72.96 87.5163V108.484Z" fill="#E0E0E0"/>
<path d="M31.92 67.4605C31.92 70.4813 29.4701 72.9302 26.448 72.9302H5.472C2.4499 72.9302 0 70.4813 0 67.4605L0 46.493C0 43.4722 2.4499 41.0233 5.472 41.0233H26.448C29.4701 41.0233 31.92 43.4722 31.92 46.493L31.92 67.4605Z" fill="#E0E0E0"/>
<path d="M87.4872 134.921L93.936 128.475L68.1407 102.69L61.6919 109.136L87.4872 134.921Z" fill="#E0E0E0"/>
<path d="M46.4472 93.8977L52.896 87.4515L27.1008 61.6668L20.652 68.1129L46.4472 93.8977Z" fill="#E0E0E0"/>
<path d="M68.1407 93.8977L61.6919 87.4515L87.4872 61.6668L93.936 68.1129L68.1407 93.8977Z" fill="#E0E0E0"/>
<path d="M0 67.4605C0 70.4813 2.4499 72.9302 5.472 72.9302H26.448C29.4701 72.9302 31.92 70.4813 31.92 67.4605L31.92 46.493C31.92 43.4722 29.4701 41.0233 26.448 41.0233H5.472C2.4499 41.0233 0 43.4722 0 46.493L0 67.4605Z" fill="#E0E0E0"/>
</g>
</svg>
