<svg width="16" height="16" viewBox="0 0 16 16" fill="none" xmlns="http://www.w3.org/2000/svg">
<path fill-rule="evenodd" clip-rule="evenodd" d="M8 2.19214C11.2074 2.19214 13.8076 4.7923 13.8076 7.99976C13.8076 11.2072 11.2075 13.8074 8 13.8074C4.79254 13.8073 2.19238 11.2072 2.19238 7.99976C2.19242 4.79232 4.79256 2.19218 8 2.19214ZM8 15.3074C12.0359 15.3074 15.3076 12.0356 15.3076 7.99976C15.3076 3.96387 12.0359 0.692139 8 0.692139C3.96414 0.692177 0.69242 3.96389 0.692383 7.99976C0.692383 12.0356 3.96411 15.3073 8 15.3074ZM10.8316 4.98667C10.5141 4.76336 10.0836 4.82082 9.83451 5.10777L9.78665 5.16831L6.9263 9.23179L5.86869 8.15464L5.81205 8.10191C5.51968 7.85923 5.08513 7.87292 4.80814 8.14488C4.53111 8.41697 4.50999 8.85107 4.74759 9.14781L4.79837 9.20542L6.48685 10.9251C6.6428 11.084 6.86168 11.1659 7.08353 11.1478C7.30533 11.1297 7.50719 11.0134 7.63529 10.8314L11.0132 6.0316L11.0542 5.96617C11.2403 5.63481 11.1491 5.2101 10.8316 4.98667Z" fill="#27AE60"/>
</svg>
