<svg width="36" height="36" viewBox="0 0 36 36" fill="none" xmlns="http://www.w3.org/2000/svg">
<g clip-path="url(#clip0_127_1191)">
<path d="M13.4485 5.78571L14.5542 2.93142C14.7407 2.44816 15.0688 2.03248 15.4955 1.73882C15.9222 1.44517 16.4277 1.28724 16.9456 1.28571H19.0542C19.5722 1.28724 20.0777 1.44517 20.5044 1.73882C20.9311 2.03248 21.2592 2.44816 21.4456 2.93142L22.5514 5.78571L26.3055 7.94571L29.3398 7.48285C29.8451 7.41427 30.3594 7.49743 30.8174 7.72179C31.2751 7.94614 31.6559 8.30154 31.9113 8.74285L32.9398 10.5428C33.2034 10.9912 33.325 11.5089 33.2883 12.0276C33.2515 12.5464 33.0584 13.0418 32.7341 13.4486L30.857 15.84V20.16L32.7855 22.5514C33.1098 22.9581 33.3029 23.4536 33.3397 23.9723C33.3765 24.4911 33.2548 25.0088 32.9913 25.4571L31.9627 27.2571C31.7073 27.6984 31.3265 28.0538 30.8688 28.2782C30.4108 28.5025 29.8965 28.5858 29.3913 28.5171L26.357 28.0543L22.6028 30.2143L21.4971 33.0686C21.3106 33.5517 20.9825 33.9675 20.5558 34.2612C20.1291 34.5548 19.6236 34.7127 19.1056 34.7143H16.9456C16.4277 34.7127 15.9222 34.5548 15.4955 34.2612C15.0688 33.9675 14.7407 33.5517 14.5542 33.0686L13.4485 30.2143L9.69422 28.0543L6.65993 28.5171C6.1547 28.5858 5.64046 28.5025 5.18259 28.2782C4.72475 28.0538 4.34392 27.6984 4.0885 27.2571L3.05993 25.4571C2.79636 25.0088 2.67494 24.4911 2.71166 23.9723C2.74838 23.4536 2.94154 22.9581 3.26565 22.5514L5.14279 20.16V15.84L3.21422 13.4486C2.89011 13.0418 2.69695 12.5464 2.66023 12.0276C2.62351 11.5089 2.74493 10.9912 3.0085 10.5428L4.03707 8.74285C4.29249 8.30154 4.67332 7.94614 5.13117 7.72179C5.58903 7.49743 6.10327 7.41427 6.6085 7.48285L9.64279 7.94571L13.4485 5.78571ZM12.8571 18C12.8571 19.0171 13.1587 20.0115 13.7238 20.8572C14.2889 21.703 15.0921 22.3621 16.0318 22.7514C16.9716 23.1406 18.0056 23.2425 19.0033 23.044C20.0009 22.8456 20.9172 22.3558 21.6365 21.6365C22.3557 20.9173 22.8455 20.0009 23.044 19.0033C23.2424 18.0057 23.1406 16.9717 22.7513 16.0319C22.3621 15.0922 21.7029 14.289 20.8571 13.7239C20.0114 13.1588 19.0171 12.8571 17.9999 12.8571C16.636 12.8571 15.3279 13.399 14.3634 14.3635C13.3989 15.3279 12.8571 16.636 12.8571 18Z" stroke="#27AE60" stroke-width="3" stroke-linecap="round" stroke-linejoin="round"/>
</g>
<defs>
<clipPath id="clip0_127_1191">
<rect width="36" height="36" fill="white"/>
</clipPath>
</defs>
</svg>
