<svg width="36" height="36" viewBox="0 0 36 36" fill="none" xmlns="http://www.w3.org/2000/svg">
<g clip-path="url(#clip0_132_1372)">
<path d="M1.28564 16.7143V27C1.28564 28.4202 2.43691 29.5715 3.85707 29.5715H19.2856C20.7058 29.5715 21.8571 28.4202 21.8571 27V16.7143C21.8571 15.2942 20.7058 14.1429 19.2856 14.1429H3.85707C2.43691 14.1429 1.28564 15.2942 1.28564 16.7143Z" stroke="#27AE60" stroke-width="3" stroke-linecap="round" stroke-linejoin="round"/>
<path d="M7.71436 34.7143H15.4286" stroke="#27AE60" stroke-width="3" stroke-linecap="round" stroke-linejoin="round"/>
<path d="M11.5713 34.7143V29.5715" stroke="#27AE60" stroke-width="3" stroke-linecap="round" stroke-linejoin="round"/>
<path d="M19.2856 9.00002V7.7143C19.2856 7.00423 19.8613 6.42859 20.5714 6.42859H33.4285C34.1385 6.42859 34.7142 7.00423 34.7142 7.7143V33.4286C34.7142 34.1386 34.1385 34.7143 33.4285 34.7143H23.1428" stroke="#27AE60" stroke-width="3" stroke-linecap="round" stroke-linejoin="round"/>
<path d="M29.2499 12.5363C29.0722 12.5363 28.9282 12.3923 28.9282 12.2146C28.9282 12.0369 29.0722 11.8929 29.2499 11.8929" stroke="#27AE60" stroke-width="3" stroke-linecap="round" stroke-linejoin="round"/>
<path d="M29.2495 12.5363C29.4272 12.5363 29.5712 12.3923 29.5712 12.2146C29.5712 12.0369 29.4272 11.8929 29.2495 11.8929" stroke="#27AE60" stroke-width="3" stroke-linecap="round" stroke-linejoin="round"/>
<path d="M27 18H34.7143" stroke="#27AE60" stroke-width="3" stroke-linecap="round" stroke-linejoin="round"/>
</g>
<defs>
<clipPath id="clip0_132_1372">
<rect width="36" height="36" fill="white"/>
</clipPath>
</defs>
</svg>
