<svg width="36" height="36" viewBox="0 0 36 36" fill="none" xmlns="http://www.w3.org/2000/svg">
<g clip-path="url(#clip0_127_1215)">
<path d="M29.5715 21.8571H6.42859L4.47431 31.6285C4.40069 32.0022 4.41095 32.3874 4.50434 32.7564C4.59773 33.1254 4.7719 33.4692 5.01431 33.7628C5.25358 34.0578 5.55523 34.2961 5.89759 34.4607C6.23995 34.625 6.61448 34.7117 6.99431 34.7143H29.0058C29.3856 34.7117 29.76 34.625 30.1025 34.4607C30.4448 34.2961 30.7464 34.0578 30.9858 33.7628C31.2281 33.4692 31.4024 33.1254 31.4957 32.7564C31.5891 32.3874 31.5994 32.0022 31.5258 31.6285L29.5715 21.8571Z" stroke="white" stroke-width="3" stroke-linecap="round" stroke-linejoin="round"/>
<path d="M29.5712 14.1428C30.2532 14.1428 30.9073 14.4138 31.3895 14.896C31.8716 15.3782 32.1427 16.0323 32.1427 16.7143V21.8571H3.85693V16.7143C3.85693 16.0323 4.12786 15.3782 4.61008 14.896C5.09233 14.4138 5.74637 14.1428 6.42836 14.1428H10.2855C10.9675 14.1428 11.6215 13.8719 12.1038 13.3897C12.586 12.9075 12.8569 12.2534 12.8569 11.5714V6.42856C12.8569 5.0646 13.3988 3.75649 14.3633 2.79202C15.3277 1.82754 16.6358 1.28571 17.9998 1.28571C19.3638 1.28571 20.6719 1.82754 21.6363 2.79202C22.6008 3.75649 23.1427 5.0646 23.1427 6.42856V11.5714C23.1427 12.2534 23.4136 12.9075 23.8958 13.3897C24.378 13.8719 25.0321 14.1428 25.7141 14.1428H29.5712Z" stroke="white" stroke-width="3" stroke-linecap="round" stroke-linejoin="round"/>
<path d="M21.8569 34.7143V28.2857" stroke="white" stroke-width="3" stroke-linecap="round" stroke-linejoin="round"/>
</g>
<defs>
<clipPath id="clip0_127_1215">
<rect width="36" height="36" fill="white"/>
</clipPath>
</defs>
</svg>
