<svg width="36" height="36" viewBox="0 0 36 36" fill="none" xmlns="http://www.w3.org/2000/svg">
<g clip-path="url(#clip0_127_1220)">
<path d="M26.9999 28.2857H32.1428C32.8247 28.2857 33.4789 28.0147 33.961 27.5325C34.4432 27.0504 34.7142 26.3962 34.7142 25.7143V14.1428C34.7142 13.4608 34.4432 12.8068 33.961 12.3246C33.4789 11.8423 32.8247 11.5714 32.1428 11.5714H3.85707C3.17508 11.5714 2.52104 11.8423 2.0388 12.3246C1.55656 12.8068 1.28564 13.4608 1.28564 14.1428V25.7143C1.28564 26.3962 1.55656 27.0504 2.0388 27.5325C2.52104 28.0147 3.17508 28.2857 3.85707 28.2857H8.99993" stroke="#27AE60" stroke-width="3" stroke-linecap="round" stroke-linejoin="round"/>
<path d="M9 24.4286V33.4286C9 33.7696 9.13546 34.0966 9.37659 34.3378C9.61768 34.5788 9.94472 34.7143 10.2857 34.7143H25.7143C26.0553 34.7143 26.3823 34.5788 26.6235 34.3378C26.8645 34.0966 27 33.7696 27 33.4286V24.4286H9Z" stroke="#27AE60" stroke-width="3" stroke-linecap="round" stroke-linejoin="round"/>
<path d="M27 11.5714V2.57142C27 2.23043 26.8645 1.9034 26.6235 1.66228C26.3823 1.42116 26.0553 1.28571 25.7143 1.28571H10.2857C9.94472 1.28571 9.61768 1.42116 9.37659 1.66228C9.13546 1.9034 9 2.23043 9 2.57142V11.5714" stroke="#27AE60" stroke-width="3" stroke-linecap="round" stroke-linejoin="round"/>
<path d="M28.2858 18H25.7144" stroke="#27AE60" stroke-width="3" stroke-linecap="round" stroke-linejoin="round"/>
</g>
<defs>
<clipPath id="clip0_127_1220">
<rect width="36" height="36" fill="white"/>
</clipPath>
</defs>
</svg>
