<svg width="36" height="36" viewBox="0 0 36 36" fill="none" xmlns="http://www.w3.org/2000/svg">
<g clip-path="url(#clip0_132_1399)">
<path d="M20.3656 33.9686L18.8484 34.56C18.3013 34.7652 17.6984 34.7652 17.1513 34.56L15.6341 33.9686C11.7914 32.462 8.49062 29.8342 6.161 26.4271C3.83137 23.0197 2.58062 18.9904 2.57129 14.8629V7.71428C5.48341 8.12931 8.45356 7.75123 11.1689 6.61985C13.8841 5.4885 16.244 3.64574 17.9999 1.28571C21.2141 5.96571 26.537 8.17714 33.4284 7.71428V14.8629C33.4192 18.9904 32.1684 23.0197 29.8387 26.4271C27.509 29.8342 24.2084 32.462 20.3656 33.9686Z" stroke="#27AE60" stroke-width="3" stroke-linecap="round" stroke-linejoin="round"/>
</g>
<defs>
<clipPath id="clip0_132_1399">
<rect width="36" height="36" fill="white"/>
</clipPath>
</defs>
</svg>
