<svg width="36" height="36" viewBox="0 0 36 36" fill="none" xmlns="http://www.w3.org/2000/svg">
<g clip-path="url(#clip0_127_1239)">
<path d="M18.9094 34.415C18.3185 34.6428 17.664 34.6428 17.0732 34.415C12.463 32.6448 8.49817 29.5182 5.70244 25.4474C2.90668 21.3768 1.41156 16.5538 1.41456 11.6155V3.9647C1.41456 3.28833 1.68324 2.63964 2.16151 2.16138C2.63979 1.68312 3.28846 1.41443 3.96482 1.41443H32.0178C32.6941 1.41443 33.3428 1.68312 33.8211 2.16138C34.2994 2.63964 34.5681 3.28833 34.5681 3.9647V11.6155C34.5709 16.5538 33.0759 21.3768 30.2803 25.4474C27.4843 29.5182 23.5196 32.6448 18.9094 34.415Z" stroke="#27AE60" stroke-width="3" stroke-linecap="round" stroke-linejoin="round"/>
</g>
<defs>
<clipPath id="clip0_127_1239">
<rect width="36" height="36" fill="white"/>
</clipPath>
</defs>
</svg>
