<svg width="36" height="36" viewBox="0 0 36 36" fill="none" xmlns="http://www.w3.org/2000/svg">
<g clip-path="url(#clip0_127_1206)">
<path d="M34.482 9.24798C34.4324 8.97852 34.3267 8.72251 34.1717 8.49656C34.0166 8.27063 33.8158 8.07983 33.582 7.93655L28.4392 13.0794C28.1993 13.3283 27.9118 13.5262 27.5937 13.6615C27.2756 13.7967 26.9334 13.8663 26.5878 13.8663C26.2422 13.8663 25.9002 13.7967 25.582 13.6615C25.2639 13.5262 24.9763 13.3283 24.7364 13.0794L22.7821 11.3308C22.311 10.8502 22.047 10.2039 22.047 9.53084C22.047 8.85777 22.311 8.21151 22.7821 7.73084L27.9249 2.58798C27.8128 2.32451 27.6441 2.0889 27.4309 1.89782C27.2175 1.70675 26.965 1.56489 26.6906 1.48227C24.8963 1.12443 23.0374 1.2776 21.3258 1.92436C19.6142 2.57111 18.1185 3.68544 17.0092 5.14051C15.8998 6.59558 15.2212 8.33291 15.0508 10.1547C14.8911 11.8612 15.1833 13.5777 15.8951 15.1325L2.09495 28.9324C1.07623 29.9512 1.09313 31.608 2.13241 32.6057L3.57442 33.9902C4.58021 34.9558 6.17231 34.9439 7.16357 33.9632L21.1221 20.1559C22.6319 20.7794 24.2764 21.0165 25.9061 20.8418C27.7079 20.6487 29.421 19.9595 30.8545 18.851C32.2884 17.7424 33.3864 16.2579 34.0266 14.5626C34.6672 12.8673 34.8248 11.0275 34.482 9.24798Z" stroke="#27AE60" stroke-width="3" stroke-linecap="round" stroke-linejoin="round"/>
</g>
<defs>
<clipPath id="clip0_127_1206">
<rect width="36" height="36" fill="white"/>
</clipPath>
</defs>
</svg>
