<svg width="18" height="18" viewBox="0 0 18 18" fill="none" xmlns="http://www.w3.org/2000/svg">
<g clip-path="url(#clip0_132_1703)">
<path d="M14.7858 6.42878C14.7858 10.2859 9.00007 14.7859 9.00007 14.7859C9.00007 14.7859 3.21436 10.2859 3.21436 6.42878C3.21436 3.27749 5.84878 0.643066 9.00007 0.643066C12.1514 0.643066 14.7858 3.27749 14.7858 6.42878Z" stroke="#27AE60" stroke-width="1.5" stroke-linecap="round" stroke-linejoin="round"/>
<path d="M9.00035 8.35714C10.0655 8.35714 10.9289 7.4937 10.9289 6.42857C10.9289 5.36345 10.0655 4.5 9.00035 4.5C7.93522 4.5 7.07178 5.36345 7.07178 6.42857C7.07178 7.4937 7.93522 8.35714 9.00035 8.35714Z" stroke="#27AE60" stroke-width="1.5" stroke-linecap="round" stroke-linejoin="round"/>
<path d="M14.2425 12.8574H15.4288L17.3574 17.3574H0.643066L2.57164 12.8574H3.75797" stroke="#27AE60" stroke-width="1.5" stroke-linecap="round" stroke-linejoin="round"/>
</g>
<defs>
<clipPath id="clip0_132_1703">
<rect width="18" height="18" fill="white"/>
</clipPath>
</defs>
</svg>
