<svg width="18" height="18" viewBox="0 0 18 18" fill="none" xmlns="http://www.w3.org/2000/svg">
<g clip-path="url(#clip0_132_1714)">
<path d="M6.74741 16.6908C5.95728 17.2004 5.01574 17.4226 4.08109 17.3199C3.14646 17.217 2.27571 16.7956 1.61529 16.1262L1.03792 15.5617C0.784793 15.3027 0.643066 14.9551 0.643066 14.593C0.643066 14.231 0.784793 13.8832 1.03792 13.6244L3.48851 11.1994C3.74525 10.9471 4.09081 10.8057 4.45079 10.8057C4.81075 10.8057 5.15632 10.9471 5.41305 11.1994C5.67196 11.4525 6.01967 11.5942 6.38175 11.5942C6.74383 11.5942 7.09153 11.4525 7.35043 11.1994L11.1995 7.3503C11.3279 7.22376 11.4299 7.07295 11.4995 6.90666C11.5691 6.74037 11.6049 6.56188 11.6049 6.38161C11.6049 6.20133 11.5691 6.02286 11.4995 5.85655C11.4299 5.69026 11.3279 5.53946 11.1995 5.41292C10.9472 5.15619 10.8058 4.81061 10.8058 4.45065C10.8058 4.09068 10.9472 3.74511 11.1995 3.48837L13.6373 1.05061C13.8962 0.797487 14.2439 0.655762 14.6059 0.655762C14.9681 0.655762 15.3158 0.797487 15.5747 1.05061L16.1393 1.62798C16.8085 2.2884 17.2299 3.15915 17.3328 4.09379C17.4357 5.02844 17.2135 5.96998 16.7037 6.7601C14.0478 10.6743 10.6684 14.0449 6.74741 16.6908Z" stroke="#27AE60" stroke-width="1.5" stroke-linecap="round" stroke-linejoin="round"/>
</g>
<defs>
<clipPath id="clip0_132_1714">
<rect width="18" height="18" fill="white"/>
</clipPath>
</defs>
</svg>
