<svg width="166" height="331" viewBox="0 0 166 331" fill="none" xmlns="http://www.w3.org/2000/svg">
<g clip-path="url(#clip0_2425_202)">
<g opacity="0.9">
<path d="M10.3924 318.763C10.3924 325.187 15.6093 330.395 22.0447 330.395H66.712C73.1474 330.395 78.3643 325.187 78.3643 318.763V274.173C78.3643 267.749 73.1474 262.541 66.712 262.541H22.0447C15.6093 262.541 10.3924 267.749 10.3924 274.173V318.763Z" fill="#E0E0E0"/>
<path d="M97.7849 231.522C97.7849 237.946 103.002 243.154 109.437 243.154H154.105C160.54 243.154 165.757 237.946 165.757 231.522V186.932C165.757 180.508 160.54 175.3 154.105 175.3H109.437C103.002 175.3 97.7849 180.508 97.7849 186.932L97.7849 231.522Z" fill="#E0E0E0"/>
<path d="M66.85 287.744L53.1176 274.035L108.047 219.201L121.78 232.91L66.85 287.744Z" fill="#E0E0E0"/>
<path d="M165.757 231.522C165.757 237.946 160.54 243.154 154.105 243.154H109.437C103.002 243.154 97.7849 237.946 97.7849 231.522L97.7849 186.932C97.7849 180.508 103.002 175.3 109.437 175.3H154.105C160.54 175.3 165.757 180.508 165.757 186.932V231.522Z" fill="#E0E0E0"/>
<path d="M165.757 144.281C165.757 150.705 160.54 155.913 154.105 155.913H109.437C103.002 155.913 97.7849 150.705 97.7849 144.281V99.6912C97.7849 93.267 103.002 88.0591 109.437 88.0591H154.105C160.54 88.0591 165.757 93.267 165.757 99.6912V144.281Z" fill="#E0E0E0"/>
<path d="M78.3643 57.0401C78.3643 63.4644 73.1474 68.6722 66.712 68.6722H22.0447C15.6093 68.6722 10.3924 63.4644 10.3924 57.0401V12.4503C10.3924 6.026 15.6093 0.818115 22.0447 0.818115H66.712C73.1474 0.818115 78.3643 6.026 78.3643 12.4503V57.0401Z" fill="#E0E0E0"/>
<path d="M-9.02817 144.281C-9.02817 150.705 -14.2451 155.913 -20.6805 155.913H-65.3477C-71.7832 155.913 -77.0001 150.705 -77.0001 144.281V99.6912C-77.0001 93.267 -71.7832 88.0591 -65.3477 88.0591H-20.6805C-14.2451 88.0591 -9.02817 93.267 -9.02817 99.6912V144.281Z" fill="#E0E0E0"/>
<path d="M-19.2906 113.262L-33.023 99.5535L21.9066 44.7191L35.6391 58.4277L-19.2906 113.262Z" fill="#E0E0E0"/>
<path d="M165.757 57.0401C165.757 63.4644 160.54 68.6722 154.105 68.6722H109.437C103.002 68.6722 97.7849 63.4644 97.7849 57.0401V12.4503C97.7849 6.026 103.002 0.818115 109.437 0.818115H154.105C160.54 0.818115 165.757 6.026 165.757 12.4503V57.0401Z" fill="#E0E0E0"/>
<path d="M78.3643 144.281C78.3643 150.705 73.1474 155.913 66.712 155.913H22.0447C15.6093 155.913 10.3924 150.705 10.3924 144.281V99.6912C10.3924 93.267 15.6093 88.0591 22.0447 88.0591H66.712C73.1474 88.0591 78.3643 93.267 78.3643 99.6912V144.281Z" fill="#E0E0E0"/>
<path d="M68.1019 113.262L54.3695 99.5535L109.299 44.7191L123.032 58.4277L68.1019 113.262Z" fill="#E0E0E0"/>
<path d="M-77.0001 318.763C-77.0001 325.187 -71.7832 330.395 -65.3477 330.395H-20.6805C-14.2451 330.395 -9.02817 325.187 -9.02817 318.763V274.173C-9.02817 267.749 -14.2451 262.541 -20.6805 262.541H-65.3477C-71.7832 262.541 -77.0001 267.749 -77.0001 274.173V318.763Z" fill="#E0E0E0"/>
<path d="M-77.0001 144.281C-77.0001 150.705 -71.7832 155.913 -65.3477 155.913H-20.6805C-14.2451 155.913 -9.02817 150.705 -9.02817 144.281V99.6912C-9.02817 93.267 -14.2451 88.0591 -20.6805 88.0591H-65.3477C-71.7832 88.0591 -77.0001 93.267 -77.0001 99.6912V144.281Z" fill="#E0E0E0"/>
<path d="M10.3924 231.522C10.3924 237.946 15.6093 243.154 22.0447 243.154H66.712C73.1474 243.154 78.3643 237.946 78.3643 231.522L78.3643 186.932C78.3643 180.508 73.1474 175.3 66.712 175.3H22.0447C15.6093 175.3 10.3924 180.508 10.3924 186.932V231.522Z" fill="#E0E0E0"/>
<path d="M97.7849 144.281C97.7849 150.705 103.002 155.913 109.437 155.913H154.105C160.54 155.913 165.757 150.705 165.757 144.281V99.6912C165.757 93.267 160.54 88.0591 154.105 88.0591H109.437C103.002 88.0591 97.7849 93.267 97.7849 99.6912V144.281Z" fill="#E0E0E0"/>
<path d="M-20.5425 287.744L-34.2749 274.035L20.6548 219.201L34.3872 232.91L-20.5425 287.744Z" fill="#E0E0E0"/>
<path d="M66.85 200.503L53.1176 186.794L108.047 131.96L121.78 145.669L66.85 200.503Z" fill="#E0E0E0"/>
<path d="M20.6548 200.503L34.3872 186.794L-20.5424 131.96L-34.2748 145.669L20.6548 200.503Z" fill="#E0E0E0"/>
<path d="M165.757 144.281C165.757 150.705 160.54 155.913 154.105 155.913H109.437C103.002 155.913 97.7849 150.705 97.7849 144.281V99.6912C97.7849 93.267 103.002 88.0591 109.437 88.0591H154.105C160.54 88.0591 165.757 93.267 165.757 99.6912V144.281Z" fill="#E0E0E0"/>
</g>
</g>
<defs>
<clipPath id="clip0_2425_202">
<rect width="242.757" height="329.577" fill="white" transform="matrix(-1 0 0 1 165.757 0.818115)"/>
</clipPath>
</defs>
</svg>
