<svg width="133" height="417" viewBox="0 0 133 417" fill="none" xmlns="http://www.w3.org/2000/svg">
<g clip-path="url(#clip0_2425_203)">
<g opacity="0.9">
<path d="M155.61 317.945C155.61 324.369 150.393 329.577 143.957 329.577H99.29C92.8546 329.577 87.6376 324.369 87.6376 317.945L87.6376 273.355C87.6376 266.931 92.8546 261.723 99.29 261.723H143.957C150.393 261.723 155.61 266.931 155.61 273.355V317.945Z" fill="#E0E0E0"/>
<path d="M68.2171 405.186C68.2171 411.61 63.0001 416.818 56.5647 416.818H11.8974C5.46204 416.818 0.245117 411.61 0.245117 405.186L0.245117 360.596C0.245117 354.172 5.46204 348.964 11.8974 348.964H56.5647C63.0001 348.964 68.2171 354.172 68.2171 360.596V405.186Z" fill="#E0E0E0"/>
<path d="M68.2171 230.704C68.2171 237.128 63.0001 242.336 56.5647 242.336H11.8974C5.46204 242.336 0.245117 237.128 0.245117 230.704L0.245117 186.114C0.245117 179.69 5.46204 174.482 11.8974 174.482H56.5647C63.0001 174.482 68.2171 179.69 68.2171 186.114V230.704Z" fill="#E0E0E0"/>
<path d="M57.9547 374.167L44.2222 360.458L99.1519 305.624L112.884 319.333L57.9547 374.167Z" fill="#E0E0E0"/>
<path d="M99.152 286.926L112.884 273.217L57.9548 218.383L44.2224 232.092L99.152 286.926Z" fill="#E0E0E0"/>
<path d="M0.245117 405.186C0.245117 411.61 5.46204 416.818 11.8974 416.818H56.5647C63.0001 416.818 68.2171 411.61 68.2171 405.186V360.596C68.2171 354.172 63.0001 348.964 56.5647 348.964H11.8974C5.46204 348.964 0.245117 354.172 0.245117 360.596L0.245117 405.186Z" fill="#E0E0E0"/>
<path d="M0.245117 230.704C0.245117 237.128 5.46204 242.336 11.8974 242.336H56.5647C63.0001 242.336 68.2171 237.128 68.2171 230.704V186.114C68.2171 179.69 63.0001 174.482 56.5647 174.482H11.8974C5.46204 174.482 0.245117 179.69 0.245117 186.114L0.245117 230.704Z" fill="#E0E0E0"/>
<path d="M0.245117 405.186C0.245117 411.61 5.46204 416.818 11.8974 416.818H56.5647C63.0001 416.818 68.2171 411.61 68.2171 405.186V360.596C68.2171 354.172 63.0001 348.964 56.5647 348.964H11.8974C5.46204 348.964 0.245117 354.172 0.245117 360.596L0.245117 405.186Z" fill="#E0E0E0"/>
<path d="M0.245117 143.463C0.245117 149.887 5.46204 155.095 11.8974 155.095H56.5647C63.0001 155.095 68.2171 149.887 68.2171 143.463V98.8731C68.2171 92.4488 63.0001 87.2409 56.5647 87.2409H11.8974C5.46204 87.2409 0.245117 92.4488 0.245117 98.8731L0.245117 143.463Z" fill="#E0E0E0"/>
<path d="M87.6376 56.2219C87.6376 62.6462 92.8546 67.8541 99.29 67.8541H143.957C150.393 67.8541 155.61 62.6462 155.61 56.2219V11.6321C155.61 5.20782 150.393 -6.10352e-05 143.957 -6.10352e-05H99.29C92.8546 -6.10352e-05 87.6376 5.20782 87.6376 11.6321V56.2219Z" fill="#E0E0E0"/>
<path d="M175.03 143.463C175.03 149.887 180.247 155.095 186.682 155.095H231.35C237.785 155.095 243.002 149.887 243.002 143.463V98.8731C243.002 92.4488 237.785 87.2409 231.35 87.2409H186.682C180.247 87.2409 175.03 92.4488 175.03 98.8731V143.463Z" fill="#E0E0E0"/>
<path d="M185.293 112.444L199.025 98.7353L144.095 43.9009L130.363 57.6095L185.293 112.444Z" fill="#E0E0E0"/>
<path d="M0.245117 56.2219C0.245117 62.6462 5.46204 67.8541 11.8974 67.8541H56.5647C63.0001 67.8541 68.2171 62.6462 68.2171 56.2219V11.6321C68.2171 5.20782 63.0001 -6.10352e-05 56.5647 -6.10352e-05H11.8974C5.46204 -6.10352e-05 0.245117 5.20782 0.245117 11.6321L0.245117 56.2219Z" fill="#E0E0E0"/>
<path d="M87.6376 143.463C87.6376 149.887 92.8546 155.095 99.29 155.095H143.957C150.393 155.095 155.61 149.887 155.61 143.463V98.8731C155.61 92.4488 150.393 87.2409 143.957 87.2409H99.29C92.8546 87.2409 87.6376 92.4488 87.6376 98.8731V143.463Z" fill="#E0E0E0"/>
<path d="M97.9 112.444L111.632 98.7353L56.7028 43.9009L42.9704 57.6095L97.9 112.444Z" fill="#E0E0E0"/>
<path d="M243.002 317.945C243.002 324.369 237.785 329.577 231.35 329.577H186.682C180.247 329.577 175.03 324.369 175.03 317.945V273.355C175.03 266.931 180.247 261.723 186.682 261.723H231.35C237.785 261.723 243.002 266.931 243.002 273.355V317.945Z" fill="#E0E0E0"/>
<path d="M243.002 143.463C243.002 149.887 237.785 155.095 231.35 155.095H186.682C180.247 155.095 175.03 149.887 175.03 143.463V98.8731C175.03 92.4488 180.247 87.2409 186.682 87.2409H231.35C237.785 87.2409 243.002 92.4488 243.002 98.8731V143.463Z" fill="#E0E0E0"/>
<path d="M155.61 230.704C155.61 237.128 150.393 242.336 143.957 242.336H99.29C92.8546 242.336 87.6376 237.128 87.6376 230.704V186.114C87.6376 179.69 92.8546 174.482 99.29 174.482H143.957C150.393 174.482 155.61 179.69 155.61 186.114V230.704Z" fill="#E0E0E0"/>
<path d="M68.2171 143.463C68.2171 149.887 63.0001 155.095 56.5647 155.095H11.8974C5.46204 155.095 0.245117 149.887 0.245117 143.463L0.245117 98.8731C0.245117 92.4488 5.46204 87.2409 11.8974 87.2409H56.5647C63.0001 87.2409 68.2171 92.4488 68.2171 98.8731V143.463Z" fill="#E0E0E0"/>
<path d="M186.544 286.926L200.277 273.217L145.347 218.383L131.615 232.092L186.544 286.926Z" fill="#E0E0E0"/>
<path d="M99.152 199.685L112.884 185.976L57.9548 131.142L44.2224 144.85L99.152 199.685Z" fill="#E0E0E0"/>
<path d="M145.347 199.685L131.615 185.976L186.544 131.142L200.277 144.85L145.347 199.685Z" fill="#E0E0E0"/>
<path d="M0.245117 143.463C0.245117 149.887 5.46204 155.095 11.8974 155.095H56.5647C63.0001 155.095 68.2171 149.887 68.2171 143.463V98.8731C68.2171 92.4488 63.0001 87.2409 56.5647 87.2409H11.8974C5.46204 87.2409 0.245117 92.4488 0.245117 98.8731L0.245117 143.463Z" fill="#E0E0E0"/>
</g>
</g>
<defs>
<clipPath id="clip0_2425_203">
<rect width="242.757" height="416.818" fill="white" transform="matrix(-1 0 0 1 243.002 0)"/>
</clipPath>
</defs>
</svg>
