<svg width="151" height="91" viewBox="0 0 151 91" fill="none" xmlns="http://www.w3.org/2000/svg">
<path d="M142 90.6602L150.66 82L142 73.3397L133.34 82L142 90.6602ZM2 0.5C1.17157 0.5 0.499996 1.17157 0.499997 2C0.499997 2.82842 1.17157 3.5 2 3.5L2 0.5ZM142 1.99999L143.5 1.99999L143.5 0.499994L142 0.499994L142 1.99999ZM59.0616 0.499998L2 0.5L2 3.5L59.0616 3.5L59.0616 0.499998ZM143.5 82L143.5 1.99999L140.5 1.99999L140.5 82L143.5 82ZM142 0.499994L59.0616 0.499998L59.0616 3.5L142 3.49999L142 0.499994Z" fill="white"/>
</svg>
