<svg width="123" height="130" viewBox="0 0 123 130" fill="none" xmlns="http://www.w3.org/2000/svg">
<g opacity="0.9">
<path d="M7.80001 -23.272C7.80001 -27.5401 4.36155 -31 0.120007 -31L-29.32 -31C-33.5615 -31 -37 -27.5401 -37 -23.272V6.35201C-37 10.6201 -33.5615 14.08 -29.32 14.08H0.120007C4.36155 14.08 7.80001 10.6201 7.80001 6.35201V-23.272Z" fill="#E0E0E0"/>
<path d="M-37 -23.272C-37 -27.5401 -33.5615 -31 -29.32 -31L0.120007 -31C4.36155 -31 7.80001 -27.5401 7.80001 -23.272V6.35201C7.80001 10.6201 4.36155 14.08 0.120007 14.08H-29.32C-33.5615 14.08 -37 10.6201 -37 6.35201V-23.272Z" fill="#E0E0E0"/>
<path d="M-37 34.688C-37 30.4199 -33.5615 26.96 -29.32 26.96H0.120007C4.36155 26.96 7.80001 30.4199 7.80001 34.688V64.312C7.80001 68.5801 4.36155 72.04 0.120007 72.04H-29.32C-33.5615 72.04 -37 68.5801 -37 64.312V34.688Z" fill="#E0E0E0"/>
<path d="M20.6 92.648C20.6 88.3799 24.0385 84.92 28.28 84.92H57.72C61.9616 84.92 65.4 88.3799 65.4 92.648V122.272C65.4 126.54 61.9616 130 57.72 130H28.28C24.0385 130 20.6 126.54 20.6 122.272V92.648Z" fill="#E0E0E0"/>
<path d="M78.2 34.688C78.2 30.4199 81.6385 26.96 85.88 26.96H115.32C119.562 26.96 123 30.4199 123 34.688V64.312C123 68.5801 119.562 72.04 115.32 72.04H85.88C81.6385 72.04 78.2 68.5801 78.2 64.312V34.688Z" fill="#E0E0E0"/>
<path d="M84.9639 55.296L94.0149 64.4035L57.811 100.834L48.76 91.7261L84.9639 55.296Z" fill="#E0E0E0"/>
<path d="M-37 92.648C-37 88.3799 -33.5615 84.92 -29.32 84.92H0.120007C4.36155 84.92 7.80001 88.3799 7.80001 92.648V122.272C7.80001 126.54 4.36155 130 0.120007 130H-29.32C-33.5615 130 -37 126.54 -37 122.272V92.648Z" fill="#E0E0E0"/>
<path d="M20.6 34.688C20.6 30.4199 24.0385 26.96 28.28 26.96H57.72C61.9616 26.96 65.4 30.4199 65.4 34.688V64.312C65.4 68.5801 61.9616 72.04 57.72 72.04H28.28C24.0385 72.04 20.6 68.5801 20.6 64.312V34.688Z" fill="#E0E0E0"/>
<path d="M27.3639 55.296L36.4149 64.4035L0.211025 100.834L-8.83995 91.7261L27.3639 55.296Z" fill="#E0E0E0"/>
<path d="M123 34.688C123 30.4199 119.562 26.96 115.32 26.96H85.88C81.6385 26.96 78.2 30.4199 78.2 34.688V64.312C78.2 68.5801 81.6385 72.04 85.88 72.04H115.32C119.562 72.04 123 68.5801 123 64.312V34.688Z" fill="#E0E0E0"/>
<path d="M65.4 -23.272C65.4 -27.5401 61.9616 -31 57.72 -31L28.28 -31C24.0385 -31 20.6 -27.5401 20.6 -23.272V6.35201C20.6 10.6201 24.0385 14.08 28.28 14.08H57.72C61.9616 14.08 65.4 10.6201 65.4 6.35201V-23.272Z" fill="#E0E0E0"/>
<path d="M7.80001 34.688C7.80001 30.4199 4.36155 26.96 0.120007 26.96H-29.32C-33.5615 26.96 -37 30.4199 -37 34.688V64.312C-37 68.5801 -33.5615 72.04 -29.32 72.04H0.120007C4.36155 72.04 7.80001 68.5801 7.80001 64.312V34.688Z" fill="#E0E0E0"/>
<path d="M28.1891 -2.664L37.24 6.44354L1.03618 42.8737L-8.0148 33.7661L28.1891 -2.664Z" fill="#E0E0E0"/>
<path d="M58.6361 -2.664L49.5851 6.44354L85.789 42.8737L94.84 33.7661L58.6361 -2.664Z" fill="#E0E0E0"/>
<path d="M-37 34.688C-37 30.4199 -33.5615 26.96 -29.32 26.96H0.120007C4.36155 26.96 7.80001 30.4199 7.80001 34.688V64.312C7.80001 68.5801 4.36155 72.04 0.120007 72.04H-29.32C-33.5615 72.04 -37 68.5801 -37 64.312V34.688Z" fill="#E0E0E0"/>
</g>
</svg>
