<svg width="137" height="229" viewBox="0 0 137 229" fill="none" xmlns="http://www.w3.org/2000/svg">
<g opacity="0.9">
<path d="M106.88 68.7C106.88 64.2362 103.291 60.6176 98.864 60.6176H68.136C63.7089 60.6176 60.12 64.2362 60.12 68.7V99.6823C60.12 104.146 63.7089 107.765 68.136 107.765H98.864C103.291 107.765 106.88 104.146 106.88 99.6823V68.7Z" fill="#E0E0E0"/>
<path d="M46.76 8.08235C46.76 3.61859 43.1711 0 38.744 0L8.016 0C3.58889 0 0 3.61859 0 8.08235L0 39.0647C0 43.5285 3.58889 47.1471 8.016 47.1471H38.744C43.1711 47.1471 46.76 43.5285 46.76 39.0647V8.08235Z" fill="#E0E0E0"/>
<path d="M46.76 129.318C46.76 124.854 43.1711 121.235 38.744 121.235H8.016C3.58889 121.235 0 124.854 0 129.318L0 160.3C0 164.764 3.58889 168.382 8.016 168.382H38.744C43.1711 168.382 46.76 164.764 46.76 160.3V129.318Z" fill="#E0E0E0"/>
<path d="M39.7002 29.6353L30.2532 39.1604L68.041 77.261L77.488 67.7359L39.7002 29.6353Z" fill="#E0E0E0"/>
<path d="M68.0411 90.2529L77.488 99.7781L39.7003 137.879L30.2533 128.354L68.0411 90.2529Z" fill="#E0E0E0"/>
<path d="M0 8.08235C0 3.61859 3.58889 0 8.016 0L38.744 0C43.1711 0 46.76 3.61859 46.76 8.08235V39.0647C46.76 43.5285 43.1711 47.1471 38.744 47.1471H8.016C3.58889 47.1471 0 43.5285 0 39.0647L0 8.08235Z" fill="#E0E0E0"/>
<path d="M0 129.318C0 124.854 3.58889 121.235 8.016 121.235H38.744C43.1711 121.235 46.76 124.854 46.76 129.318V160.3C46.76 164.764 43.1711 168.382 38.744 168.382H8.016C3.58889 168.382 0 164.764 0 160.3L0 129.318Z" fill="#E0E0E0"/>
<path d="M106.88 8.08235C106.88 3.61859 103.291 0 98.864 0L68.136 0C63.7089 0 60.12 3.61859 60.12 8.08235V39.0647C60.12 43.5285 63.7089 47.1471 68.136 47.1471H98.864C103.291 47.1471 106.88 43.5285 106.88 39.0647V8.08235Z" fill="#E0E0E0"/>
<path d="M0 8.08235C0 3.61859 3.58889 0 8.016 0L38.744 0C43.1711 0 46.76 3.61859 46.76 8.08235V39.0647C46.76 43.5285 43.1711 47.1471 38.744 47.1471H8.016C3.58889 47.1471 0 43.5285 0 39.0647L0 8.08235Z" fill="#E0E0E0"/>
<path d="M0 189.935C0 185.472 3.58889 181.853 8.016 181.853H38.744C43.1711 181.853 46.76 185.472 46.76 189.935V220.918C46.76 225.381 43.1711 229 38.744 229H8.016C3.58889 229 0 225.381 0 220.918L0 189.935Z" fill="#E0E0E0"/>
<path d="M120.24 189.935C120.24 185.472 123.829 181.853 128.256 181.853H158.984C163.411 181.853 167 185.472 167 189.935V220.918C167 225.381 163.411 229 158.984 229H128.256C123.829 229 120.24 225.381 120.24 220.918V189.935Z" fill="#E0E0E0"/>
<path d="M60.12 189.935C60.12 185.472 63.7089 181.853 68.136 181.853H98.864C103.291 181.853 106.88 185.472 106.88 189.935V220.918C106.88 225.381 103.291 229 98.864 229H68.136C63.7089 229 60.12 225.381 60.12 220.918V189.935Z" fill="#E0E0E0"/>
<path d="M167 68.7C167 64.2362 163.411 60.6176 158.984 60.6176H128.256C123.829 60.6176 120.24 64.2362 120.24 68.7V99.6823C120.24 104.146 123.829 107.765 128.256 107.765H158.984C163.411 107.765 167 104.146 167 99.6823V68.7Z" fill="#E0E0E0"/>
<path d="M167 189.935C167 185.472 163.411 181.853 158.984 181.853H128.256C123.829 181.853 120.24 185.472 120.24 189.935V220.918C120.24 225.381 123.829 229 128.256 229H158.984C163.411 229 167 225.381 167 220.918V189.935Z" fill="#E0E0E0"/>
<path d="M106.88 8.08235C106.88 3.61859 103.291 0 98.864 0L68.136 0C63.7089 0 60.12 3.61859 60.12 8.08235V39.0647C60.12 43.5285 63.7089 47.1471 68.136 47.1471H98.864C103.291 47.1471 106.88 43.5285 106.88 39.0647V8.08235Z" fill="#E0E0E0"/>
<path d="M106.88 129.318C106.88 124.854 103.291 121.235 98.864 121.235H68.136C63.7089 121.235 60.12 124.854 60.12 129.318V160.3C60.12 164.764 63.7089 168.382 68.136 168.382H98.864C103.291 168.382 106.88 164.764 106.88 160.3V129.318Z" fill="#E0E0E0"/>
<path d="M46.76 189.935C46.76 185.472 43.1711 181.853 38.744 181.853H8.016C3.58889 181.853 0 185.472 0 189.935L0 220.918C0 225.381 3.58889 229 8.016 229H38.744C43.1711 229 46.76 225.381 46.76 220.918V189.935Z" fill="#E0E0E0"/>
<path d="M99.8202 29.6353L90.3732 39.1604L128.161 77.261L137.608 67.7359L99.8202 29.6353Z" fill="#E0E0E0"/>
<path d="M128.161 90.2529L137.608 99.7781L99.8202 137.879L90.3733 128.354L128.161 90.2529Z" fill="#E0E0E0"/>
<path d="M68.0411 150.871L77.488 160.396L39.7003 198.496L30.2533 188.971L68.0411 150.871Z" fill="#E0E0E0"/>
<path d="M99.8202 150.871L90.3732 160.396L128.161 198.496L137.608 188.971L99.8202 150.871Z" fill="#E0E0E0"/>
<path d="M0 189.935C0 185.472 3.58889 181.853 8.016 181.853H38.744C43.1711 181.853 46.76 185.472 46.76 189.935V220.918C46.76 225.381 43.1711 229 38.744 229H8.016C3.58889 229 0 225.381 0 220.918L0 189.935Z" fill="#E0E0E0"/>
</g>
</svg>
