<svg width="1280" height="394" viewBox="0 0 1280 394" fill="none" xmlns="http://www.w3.org/2000/svg">
<g clip-path="url(#clip0_132_1749)">
<path d="M18.8075 239.403C10.4881 239.403 3.74386 232.664 3.74386 224.351V166.649C3.74386 158.336 10.4881 151.596 18.8075 151.596H76.5513C84.8707 151.596 91.615 158.336 91.615 166.649V224.351C91.615 232.664 84.8707 239.403 76.5513 239.403H18.8075Z" fill="#239A55"/>
<path d="M131.785 126.509C123.465 126.509 116.721 119.769 116.721 111.456V53.7544C116.721 45.4411 123.465 38.7018 131.785 38.7018H189.528C197.848 38.7018 204.592 45.4411 204.592 53.7544V111.456C204.592 119.769 197.848 126.509 189.528 126.509H131.785Z" fill="#239A55"/>
<path d="M-54 113.252L-36.2474 95.512L34.7632 166.471L17.0106 184.21L-54 113.252Z" fill="#239A55"/>
<path d="M58.9771 166.471L76.7298 184.211L147.74 113.252L129.988 95.5121L58.9771 166.471Z" fill="#239A55"/>
<path d="M131.785 38.7018C123.465 38.7018 116.721 45.4411 116.721 53.7544V111.456C116.721 119.769 123.465 126.509 131.785 126.509H189.528C197.848 126.509 204.592 119.769 204.592 111.456V53.7544C204.592 45.4411 197.848 38.7018 189.528 38.7018H131.785Z" fill="#239A55"/>
<path d="M-54 51.9589L-36.2474 69.6986L34.7632 -1.26014L17.0106 -18.9998L-54 51.9589Z" fill="#239A55"/>
<path d="M58.9771 -1.2603L76.7298 -19L147.74 51.9587L129.988 69.6984L58.9771 -1.2603Z" fill="#239A55"/>
<path d="M131.785 352.298C123.465 352.298 116.721 345.559 116.721 337.245V279.544C116.721 271.23 123.465 264.491 131.785 264.491H189.528C197.848 264.491 204.592 271.23 204.592 279.544V337.245C204.592 345.559 197.848 352.298 189.528 352.298H131.785Z" fill="#239A55"/>
<path d="M-54 339.041L-36.2474 321.301L34.7632 392.26L17.0106 410L-54 339.041Z" fill="#239A55"/>
<path d="M58.9771 392.26L76.7298 410L147.74 339.041L129.988 321.301L58.9771 392.26Z" fill="#239A55"/>
<path d="M131.785 352.298C123.465 352.298 116.721 345.559 116.721 337.245V279.544C116.721 271.23 123.465 264.491 131.785 264.491H189.528C197.848 264.491 204.592 271.23 204.592 279.544V337.245C204.592 345.559 197.848 352.298 189.528 352.298H131.785Z" fill="#239A55"/>
<path d="M357.739 352.298C349.419 352.298 342.675 345.559 342.675 337.245V279.544C342.675 271.23 349.419 264.491 357.739 264.491H415.483C423.802 264.491 430.546 271.23 430.546 279.544V337.245C430.546 345.559 423.802 352.298 415.483 352.298H357.739Z" fill="#239A55"/>
<path d="M171.954 339.041L189.707 321.301L260.717 392.26L242.965 410L171.954 339.041Z" fill="#239A55"/>
<path d="M284.931 392.26L302.684 410L373.695 339.041L355.942 321.301L284.931 392.26Z" fill="#239A55"/>
<path d="M357.739 352.298C349.419 352.298 342.675 345.559 342.675 337.245V279.544C342.675 271.23 349.419 264.491 357.739 264.491H415.483C423.802 264.491 430.546 271.23 430.546 279.544V337.245C430.546 345.559 423.802 352.298 415.483 352.298H357.739Z" fill="#239A55"/>
<path d="M397.909 339.041L415.661 321.301L486.672 392.26L468.919 410L397.909 339.041Z" fill="#239A55"/>
<path d="M510.886 392.26L528.638 410L599.649 339.041L587.459 326.86L581.896 321.301L568.629 334.558L510.886 392.26Z" fill="#239A55"/>
<path d="M18.8075 38.7018C10.4881 38.7018 3.74386 45.4411 3.74386 53.7544V111.456C3.74386 119.769 10.4881 126.509 18.8075 126.509H76.5513C84.8707 126.509 91.615 119.769 91.615 111.456V53.7544C91.615 45.4411 84.8707 38.7018 76.5513 38.7018H18.8075Z" fill="#239A55"/>
<path d="M244.762 38.7018C236.442 38.7018 229.698 45.4411 229.698 53.7544V111.456C229.698 119.769 236.442 126.509 244.762 126.509H302.506C310.825 126.509 317.569 119.769 317.569 111.456V53.7544C317.569 45.4411 310.825 38.7018 302.506 38.7018H244.762Z" fill="#239A55"/>
<path d="M171.954 -1.2603L189.707 -19L260.717 51.9587L242.965 69.6984L171.954 -1.2603Z" fill="#239A55"/>
<path d="M357.739 151.596C349.419 151.596 342.675 158.336 342.675 166.649V224.351C342.675 232.664 349.419 239.403 357.739 239.403H415.483C423.802 239.403 430.546 232.664 430.546 224.351V166.649C430.546 158.336 423.802 151.596 415.483 151.596H357.739Z" fill="#239A55"/>
<path d="M244.762 264.491C236.442 264.491 229.698 271.23 229.698 279.544V337.245C229.698 345.559 236.442 352.298 244.762 352.298H302.506C310.825 352.298 317.569 345.559 317.569 337.245V279.544C317.569 271.23 310.825 264.491 302.506 264.491H244.762Z" fill="#239A55"/>
<path d="M470.716 264.491C462.397 264.491 455.652 271.23 455.652 279.544V337.245C455.652 345.559 462.397 352.298 470.716 352.298H528.46C536.779 352.298 543.523 345.559 543.523 337.245V279.544C543.523 271.23 536.779 264.491 528.46 264.491H470.716Z" fill="#239A55"/>
<path d="M284.931 277.748L302.684 295.488L373.695 224.529L355.942 206.789L284.931 277.748Z" fill="#239A55"/>
<path d="M397.909 224.529L415.661 206.789L486.672 277.748L468.919 295.488L397.909 224.529Z" fill="#239A55"/>
<path d="M357.739 38.7018C349.419 38.7018 342.675 45.4411 342.675 53.7544V111.456C342.675 119.769 349.419 126.509 357.739 126.509H415.483C423.802 126.509 430.546 119.769 430.546 111.456V53.7544C430.546 45.4411 423.802 38.7018 415.483 38.7018H357.739Z" fill="#239A55"/>
<path d="M244.762 151.596C236.442 151.596 229.698 158.336 229.698 166.649V224.351C229.698 232.664 236.442 239.403 244.762 239.403H302.506C310.825 239.403 317.569 232.664 317.569 224.351V166.649C317.569 158.336 310.825 151.596 302.506 151.596H244.762Z" fill="#239A55"/>
<path d="M470.716 151.596C462.397 151.596 455.652 158.336 455.652 166.649V224.351C455.652 232.664 462.397 239.403 470.716 239.403H528.46C536.779 239.403 543.523 232.664 543.523 224.351V166.649C543.523 158.336 536.779 151.596 528.46 151.596H470.716Z" fill="#239A55"/>
<path d="M284.931 164.854L302.684 182.593L373.695 111.635L355.942 93.8948L284.931 164.854Z" fill="#239A55"/>
<path d="M397.909 111.634L415.661 93.8947L486.672 164.853L468.919 182.593L397.909 111.634Z" fill="#239A55"/>
<path d="M470.716 239.403C462.397 239.403 455.652 232.664 455.652 224.351V166.649C455.652 158.336 462.397 151.596 470.716 151.596H528.46C536.779 151.596 543.523 158.336 543.523 166.649V224.351C543.523 232.664 536.779 239.403 528.46 239.403H470.716Z" fill="#239A55"/>
<path d="M510.886 226.146L528.638 208.407L599.649 279.365L587.459 291.546L581.896 297.105L568.629 283.848L510.886 226.146Z" fill="#239A55"/>
<path d="M470.716 126.509C462.397 126.509 455.652 119.769 455.652 111.456V53.7544C455.652 45.4411 462.397 38.7018 470.716 38.7018H528.46C536.779 38.7018 543.523 45.4411 543.523 53.7544V111.456C543.523 119.769 536.779 126.509 528.46 126.509H470.716Z" fill="#239A55"/>
<path d="M18.8075 352.298C10.4881 352.298 3.74386 345.559 3.74386 337.245V279.544C3.74386 271.23 10.4881 264.491 18.8075 264.491H76.5513C84.8707 264.491 91.615 271.23 91.615 279.544V337.245C91.615 345.559 84.8707 352.298 76.5513 352.298H18.8075Z" fill="#239A55"/>
<path d="M244.762 352.298C236.442 352.298 229.698 345.559 229.698 337.245V279.544C229.698 271.23 236.442 264.491 244.762 264.491H302.506C310.825 264.491 317.569 271.23 317.569 279.544V337.245C317.569 345.559 310.825 352.298 302.506 352.298H244.762Z" fill="#239A55"/>
<path d="M131.785 239.403C123.465 239.403 116.721 232.664 116.721 224.351V166.649C116.721 158.336 123.465 151.596 131.785 151.596H189.528C197.848 151.596 204.592 158.336 204.592 166.649V224.351C204.592 232.664 197.848 239.403 189.528 239.403H131.785Z" fill="#239A55"/>
<path d="M244.762 126.509C236.442 126.509 229.698 119.769 229.698 111.456V53.7544C229.698 45.4411 236.442 38.7018 244.762 38.7018H302.506C310.825 38.7018 317.569 45.4411 317.569 53.7544V111.456C317.569 119.769 310.825 126.509 302.506 126.509H244.762Z" fill="#239A55"/>
<path d="M-54 226.146L-36.2474 208.407L34.7632 279.365L17.0106 297.105L-54 226.146Z" fill="#239A55"/>
<path d="M58.9771 279.365L76.7298 297.105L147.74 226.146L129.988 208.407L58.9771 279.365Z" fill="#239A55"/>
<path d="M171.954 166.471L189.707 184.211L260.717 113.252L242.965 95.5121L171.954 166.471Z" fill="#239A55"/>
<path d="M171.954 226.146L189.707 208.407L260.717 279.365L242.965 297.105L171.954 226.146Z" fill="#239A55"/>
<path d="M244.762 38.7018C236.442 38.7018 229.698 45.4411 229.698 53.7544V111.456C229.698 119.769 236.442 126.509 244.762 126.509H302.506C310.825 126.509 317.569 119.769 317.569 111.456V53.7544C317.569 45.4411 310.825 38.7018 302.506 38.7018H244.762Z" fill="#239A55"/>
<path d="M470.716 38.7018C462.397 38.7018 455.652 45.4411 455.652 53.7544V111.456C455.652 119.769 462.397 126.509 470.716 126.509H528.46C536.779 126.509 543.523 119.769 543.523 111.456V53.7544C543.523 45.4411 536.779 38.7018 528.46 38.7018H470.716Z" fill="#239A55"/>
<path d="M284.931 51.9589L302.684 69.6986L373.695 -1.26014L355.942 -18.9998L284.931 51.9589Z" fill="#239A55"/>
<path d="M397.909 -1.2603L415.661 -19L486.672 51.9587L468.919 69.6984L397.909 -1.2603Z" fill="#239A55"/>
<path d="M470.716 38.7018C462.397 38.7018 455.652 45.4411 455.652 53.7544V111.456C455.652 119.769 462.397 126.509 470.716 126.509H528.46C536.779 126.509 543.523 119.769 543.523 111.456V53.7544C543.523 45.4411 536.779 38.7018 528.46 38.7018H470.716Z" fill="#239A55"/>
<path d="M510.886 51.9589L528.638 69.6986L599.649 -1.26014L581.896 -18.9998L510.886 51.9589Z" fill="#239A55"/>
<path d="M583.693 151.596C575.374 151.596 568.629 158.336 568.629 166.649V224.351C568.629 232.664 575.374 239.403 583.693 239.403L641.437 239.404C649.756 239.404 656.501 232.664 656.501 224.351V166.649C656.501 158.336 649.756 151.597 641.437 151.597L583.693 151.596Z" fill="#239A55"/>
<path d="M696.67 264.491C688.351 264.491 681.607 271.23 681.607 279.544V337.246C681.607 345.559 688.351 352.298 696.67 352.298H754.414C762.733 352.298 769.478 345.559 769.478 337.246V279.544C769.478 271.23 762.733 264.491 754.414 264.491H696.67Z" fill="#239A55"/>
<path d="M623.863 224.529L641.615 206.789L712.626 277.748L694.873 295.488L623.863 224.529Z" fill="#239A55"/>
<path d="M696.67 352.298C688.351 352.298 681.607 345.559 681.607 337.246V279.544C681.607 271.23 688.351 264.491 696.67 264.491H754.414C762.733 264.491 769.478 271.23 769.478 279.544V337.246C769.478 345.559 762.733 352.298 754.414 352.298H696.67Z" fill="#239A55"/>
<path d="M623.863 392.26L641.615 410L712.626 339.041L694.873 321.301L623.863 392.26Z" fill="#239A55"/>
<path d="M470.716 38.7018C462.397 38.7018 455.652 45.4411 455.652 53.7544V111.456C455.652 119.769 462.397 126.509 470.716 126.509H528.46C536.779 126.509 543.523 119.769 543.523 111.456V53.7544C543.523 45.4411 536.779 38.7018 528.46 38.7018H470.716Z" fill="#239A55"/>
<path d="M696.67 38.7019C688.351 38.7019 681.607 45.4412 681.607 53.7545V111.456C681.607 119.77 688.351 126.509 696.67 126.509H754.414C762.733 126.509 769.478 119.77 769.478 111.456V53.7545C769.478 45.4412 762.733 38.7019 754.414 38.7019H696.67Z" fill="#239A55"/>
<path d="M510.886 51.9589L528.638 69.6986L599.649 -1.26014L581.896 -18.9998L510.886 51.9589Z" fill="#239A55"/>
<path d="M623.863 -1.26022L641.615 -18.9999L712.626 51.9588L694.873 69.6985L623.863 -1.26022Z" fill="#239A55"/>
<path d="M470.716 38.7018C462.397 38.7018 455.652 45.4411 455.652 53.7544V111.456C455.652 119.769 462.397 126.509 470.716 126.509H528.46C536.779 126.509 543.523 119.769 543.523 111.456V53.7544C543.523 45.4411 536.779 38.7018 528.46 38.7018H470.716Z" fill="#239A55"/>
<path d="M397.909 -1.2603L415.661 -19L486.672 51.9587L468.919 69.6984L397.909 -1.2603Z" fill="#239A55"/>
<path d="M470.716 151.596C462.397 151.596 455.652 158.336 455.652 166.649V224.351C455.652 232.664 462.397 239.403 470.716 239.403H528.46C536.779 239.403 543.523 232.664 543.523 224.351V166.649C543.523 158.336 536.779 151.596 528.46 151.596H470.716Z" fill="#239A55"/>
<path d="M397.909 111.634L415.661 93.8947L486.672 164.853L468.919 182.593L397.909 111.634Z" fill="#239A55"/>
<path d="M696.67 38.7019C688.351 38.7019 681.607 45.4412 681.607 53.7545V111.456C681.607 119.77 688.351 126.509 696.67 126.509H754.414C762.733 126.509 769.478 119.77 769.478 111.456V53.7545C769.478 45.4412 762.733 38.7019 754.414 38.7019H696.67Z" fill="#239A55"/>
<path d="M922.624 38.7019C914.305 38.7019 907.561 45.4412 907.561 53.7545V111.456C907.561 119.77 914.305 126.509 922.624 126.509H980.368C988.688 126.509 995.432 119.77 995.432 111.456V53.7545C995.432 45.4412 988.688 38.7019 980.368 38.7019H922.624Z" fill="#239A55"/>
<path d="M736.84 51.959L754.593 69.6986L825.603 -1.26009L807.85 -18.9998L736.84 51.959Z" fill="#239A55"/>
<path d="M849.817 -1.26022L867.57 -18.9999L938.58 51.9588L920.827 69.6985L849.817 -1.26022Z" fill="#239A55"/>
<path d="M922.624 38.7019C914.305 38.7019 907.561 45.4412 907.561 53.7545V111.456C907.561 119.77 914.305 126.509 922.624 126.509H980.368C988.688 126.509 995.432 119.77 995.432 111.456V53.7545C995.432 45.4412 988.688 38.7019 980.368 38.7019H922.624Z" fill="#239A55"/>
<path d="M962.794 51.959L980.547 69.6986L1051.56 -1.26009L1033.8 -18.9998L962.794 51.959Z" fill="#239A55"/>
<path d="M1075.77 -1.26022L1093.52 -18.9999L1164.53 51.9588L1152.34 64.1398L1146.78 69.6985L1133.52 56.4415L1075.77 -1.26022Z" fill="#239A55"/>
<path d="M583.693 352.298C575.374 352.298 568.629 345.559 568.629 337.245V279.544C568.629 271.23 575.374 264.491 583.693 264.491L641.437 264.491C649.756 264.491 656.501 271.23 656.501 279.544V337.246C656.501 345.559 649.756 352.298 641.437 352.298L583.693 352.298Z" fill="#239A55"/>
<path d="M809.647 352.298C801.328 352.298 794.584 345.559 794.584 337.246V279.544C794.584 271.23 801.328 264.491 809.647 264.491H867.391C875.711 264.491 882.455 271.23 882.455 279.544V337.246C882.455 345.559 875.711 352.298 867.391 352.298H809.647Z" fill="#239A55"/>
<path d="M736.84 392.26L754.593 410L825.603 339.041L807.85 321.301L736.84 392.26Z" fill="#239A55"/>
<path d="M922.624 239.404C914.305 239.404 907.561 232.664 907.561 224.351V166.649C907.561 158.336 914.305 151.597 922.624 151.597H980.368C988.688 151.597 995.432 158.336 995.432 166.649V224.351C995.432 232.664 988.688 239.404 980.368 239.404H922.624Z" fill="#239A55"/>
<path d="M809.647 126.509C801.328 126.509 794.584 119.77 794.584 111.456V53.7545C794.584 45.4412 801.328 38.7019 809.647 38.7019H867.391C875.711 38.7019 882.455 45.4412 882.455 53.7545V111.456C882.455 119.77 875.711 126.509 867.391 126.509H809.647Z" fill="#239A55"/>
<path d="M1035.6 126.509C1027.28 126.509 1020.54 119.77 1020.54 111.456V53.7545C1020.54 45.4412 1027.28 38.7019 1035.6 38.7019H1093.35C1101.66 38.7019 1108.41 45.4412 1108.41 53.7545V111.456C1108.41 119.77 1101.66 126.509 1093.35 126.509H1035.6Z" fill="#239A55"/>
<path d="M849.817 113.252L867.57 95.512L938.58 166.471L920.827 184.21L849.817 113.252Z" fill="#239A55"/>
<path d="M962.794 166.471L980.547 184.211L1051.56 113.252L1033.8 95.5122L962.794 166.471Z" fill="#239A55"/>
<path d="M922.624 352.298C914.305 352.298 907.561 345.559 907.561 337.246V279.544C907.561 271.23 914.305 264.491 922.624 264.491H980.368C988.688 264.491 995.432 271.23 995.432 279.544V337.246C995.432 345.559 988.688 352.298 980.368 352.298H922.624Z" fill="#239A55"/>
<path d="M809.647 239.404C801.328 239.404 794.584 232.664 794.584 224.351V166.649C794.584 158.336 801.328 151.597 809.647 151.597H867.391C875.711 151.597 882.455 158.336 882.455 166.649V224.351C882.455 232.664 875.711 239.404 867.391 239.404H809.647Z" fill="#239A55"/>
<path d="M1035.6 239.404C1027.28 239.404 1020.54 232.664 1020.54 224.351V166.649C1020.54 158.336 1027.28 151.597 1035.6 151.597H1093.35C1101.66 151.597 1108.41 158.336 1108.41 166.649V224.351C1108.41 232.664 1101.66 239.404 1093.35 239.404H1035.6Z" fill="#239A55"/>
<path d="M849.817 226.146L867.57 208.407L938.58 279.365L920.827 297.105L849.817 226.146Z" fill="#239A55"/>
<path d="M962.794 279.366L980.547 297.105L1051.56 226.147L1033.8 208.407L962.794 279.366Z" fill="#239A55"/>
<path d="M1035.6 151.597C1027.28 151.597 1020.54 158.336 1020.54 166.649V224.351C1020.54 232.664 1027.28 239.404 1035.6 239.404H1093.35C1101.66 239.404 1108.41 232.664 1108.41 224.351V166.649C1108.41 158.336 1101.66 151.597 1093.35 151.597H1035.6Z" fill="#239A55"/>
<path d="M1075.77 164.854L1093.52 182.593L1164.53 111.635L1152.34 99.4537L1146.78 93.8949L1133.52 107.152L1075.77 164.854Z" fill="#239A55"/>
<path d="M1035.6 264.491C1027.28 264.491 1020.54 271.23 1020.54 279.544V337.246C1020.54 345.559 1027.28 352.298 1035.6 352.298H1093.35C1101.66 352.298 1108.41 345.559 1108.41 337.246V279.544C1108.41 271.23 1101.66 264.491 1093.35 264.491H1035.6Z" fill="#239A55"/>
<path d="M1075.77 277.748L1093.52 295.488L1164.53 224.529L1152.34 212.348L1146.78 206.79L1133.52 220.047L1075.77 277.748Z" fill="#239A55"/>
<path d="M583.693 38.7019C575.374 38.7019 568.629 45.4412 568.629 53.7545V111.456C568.629 119.77 575.374 126.509 583.693 126.509H641.437C649.756 126.509 656.501 119.77 656.501 111.456V53.7545C656.501 45.4412 649.756 38.7019 641.437 38.7019H583.693Z" fill="#239A55"/>
<path d="M809.647 38.7019C801.328 38.7019 794.584 45.4412 794.584 53.7545V111.456C794.584 119.77 801.328 126.509 809.647 126.509H867.391C875.711 126.509 882.455 119.77 882.455 111.456V53.7545C882.455 45.4412 875.711 38.7019 867.391 38.7019H809.647Z" fill="#239A55"/>
<path d="M470.716 151.596C462.397 151.596 455.652 158.336 455.652 166.649V224.351C455.652 232.664 462.397 239.403 470.716 239.403H528.46C536.779 239.403 543.523 232.664 543.523 224.351V166.649C543.523 158.336 536.779 151.596 528.46 151.596H470.716Z" fill="#239A55"/>
<path d="M696.67 151.597C688.351 151.597 681.607 158.336 681.607 166.649V224.351C681.607 232.664 688.351 239.404 696.67 239.404H754.414C762.733 239.404 769.478 232.664 769.478 224.351V166.649C769.478 158.336 762.733 151.597 754.414 151.597H696.67Z" fill="#239A55"/>
<path d="M809.647 264.491C801.328 264.491 794.584 271.23 794.584 279.544V337.246C794.584 345.559 801.328 352.298 809.647 352.298H867.391C875.711 352.298 882.455 345.559 882.455 337.246V279.544C882.455 271.23 875.711 264.491 867.391 264.491H809.647Z" fill="#239A55"/>
<path d="M510.886 164.854L528.638 182.593L599.649 111.635L581.896 93.8949L510.886 164.854Z" fill="#239A55"/>
<path d="M623.863 111.635L641.615 93.8948L712.626 164.854L694.873 182.593L623.863 111.635Z" fill="#239A55"/>
<path d="M736.84 224.529L754.593 206.789L825.603 277.748L807.85 295.488L736.84 224.529Z" fill="#239A55"/>
<path d="M736.84 164.854L754.593 182.593L825.603 111.635L807.85 93.8949L736.84 164.854Z" fill="#239A55"/>
<path d="M809.647 352.298C801.328 352.298 794.584 345.559 794.584 337.246V279.544C794.584 271.23 801.328 264.491 809.647 264.491H867.391C875.711 264.491 882.455 271.23 882.455 279.544V337.246C882.455 345.559 875.711 352.298 867.391 352.298H809.647Z" fill="#239A55"/>
<path d="M1035.6 352.298C1027.28 352.298 1020.54 345.559 1020.54 337.246V279.544C1020.54 271.23 1027.28 264.491 1035.6 264.491H1093.35C1101.66 264.491 1108.41 271.23 1108.41 279.544V337.246C1108.41 345.559 1101.66 352.298 1093.35 352.298H1035.6Z" fill="#239A55"/>
<path d="M849.817 339.041L867.57 321.301L938.58 392.26L920.827 410L849.817 339.041Z" fill="#239A55"/>
<path d="M962.794 392.26L980.547 410L1051.56 339.041L1033.8 321.301L962.794 392.26Z" fill="#239A55"/>
<path d="M1035.6 352.298C1027.28 352.298 1020.54 345.559 1020.54 337.246V279.544C1020.54 271.23 1027.28 264.491 1035.6 264.491H1093.35C1101.66 264.491 1108.41 271.23 1108.41 279.544V337.246C1108.41 345.559 1101.66 352.298 1093.35 352.298H1035.6Z" fill="#239A55"/>
<path d="M1075.77 339.041L1093.52 321.301L1164.53 392.26L1146.78 410L1075.77 339.041Z" fill="#239A55"/>
<path d="M1318.94 38.7019C1327.26 38.7019 1334 45.4412 1334 53.7545V111.456C1334 119.77 1327.26 126.509 1318.94 126.509H1261.19C1252.87 126.509 1246.13 119.77 1246.13 111.456V53.7545C1246.13 45.4412 1252.87 38.7019 1261.19 38.7019H1318.94Z" fill="#239A55"/>
<path d="M1318.94 38.7019C1327.26 38.7019 1334 45.4412 1334 53.7545V111.456C1334 119.77 1327.26 126.509 1318.94 126.509H1261.19C1252.87 126.509 1246.13 119.77 1246.13 111.456V53.7545C1246.13 45.4412 1252.87 38.7019 1261.19 38.7019H1318.94Z" fill="#239A55"/>
<path d="M1278.77 51.959L1261.01 69.6986L1190 -1.26009L1207.76 -18.9998L1278.77 51.959Z" fill="#239A55"/>
<path d="M1318.94 239.404C1327.26 239.404 1334 232.664 1334 224.351V166.649C1334 158.336 1327.26 151.597 1318.94 151.597H1261.19C1252.87 151.597 1246.13 158.336 1246.13 166.649V224.351C1246.13 232.664 1252.87 239.404 1261.19 239.404H1318.94Z" fill="#239A55"/>
<path d="M1205.96 126.509C1214.28 126.509 1221.02 119.77 1221.02 111.456V53.7545C1221.02 45.4412 1214.28 38.7019 1205.96 38.7019H1148.22C1139.9 38.7019 1133.15 45.4412 1133.15 53.7545V111.456C1133.15 119.77 1139.9 126.509 1148.22 126.509H1205.96Z" fill="#239A55"/>
<path d="M1278.77 166.471L1261.01 184.211L1190 113.252L1207.76 95.5122L1278.77 166.471Z" fill="#239A55"/>
<path d="M1318.94 352.298C1327.26 352.298 1334 345.559 1334 337.246V279.544C1334 271.23 1327.26 264.491 1318.94 264.491H1261.19C1252.87 264.491 1246.13 271.23 1246.13 279.544V337.246C1246.13 345.559 1252.87 352.298 1261.19 352.298H1318.94Z" fill="#239A55"/>
<path d="M1205.96 239.404C1214.28 239.404 1221.02 232.664 1221.02 224.351V166.649C1221.02 158.336 1214.28 151.597 1205.96 151.597H1148.22C1139.9 151.597 1133.15 158.336 1133.15 166.649V224.351C1133.15 232.664 1139.9 239.404 1148.22 239.404H1205.96Z" fill="#239A55"/>
<path d="M1278.77 279.366L1261.01 297.105L1190 226.147L1207.76 208.407L1278.77 279.366Z" fill="#239A55"/>
<path d="M1205.96 151.597C1214.28 151.597 1221.02 158.336 1221.02 166.649V224.351C1221.02 232.664 1214.28 239.404 1205.96 239.404H1148.22C1139.9 239.404 1133.15 232.664 1133.15 224.351V166.649C1133.15 158.336 1139.9 151.597 1148.22 151.597H1205.96Z" fill="#239A55"/>
<path d="M1205.96 264.491C1214.28 264.491 1221.02 271.23 1221.02 279.544V337.246C1221.02 345.559 1214.28 352.298 1205.96 352.298H1148.22C1139.9 352.298 1133.15 345.559 1133.15 337.246V279.544C1133.15 271.23 1139.9 264.491 1148.22 264.491H1205.96Z" fill="#239A55"/>
<path d="M1205.96 352.298C1214.28 352.298 1221.02 345.559 1221.02 337.246V279.544C1221.02 271.23 1214.28 264.491 1205.96 264.491H1148.22C1139.9 264.491 1133.15 271.23 1133.15 279.544V337.246C1133.15 345.559 1139.9 352.298 1148.22 352.298H1205.96Z" fill="#239A55"/>
<path d="M1278.77 392.26L1261.01 410L1190 339.041L1207.76 321.302L1278.77 392.26Z" fill="#239A55"/>
<path d="M1205.96 352.298C1214.28 352.298 1221.02 345.559 1221.02 337.246V279.544C1221.02 271.23 1214.28 264.491 1205.96 264.491H1148.22C1139.9 264.491 1133.15 271.23 1133.15 279.544V337.246C1133.15 345.559 1139.9 352.298 1148.22 352.298H1205.96Z" fill="#239A55"/>
</g>
<defs>
<clipPath id="clip0_132_1749">
<rect y="394" width="394" height="1280" rx="12" transform="rotate(-90 0 394)" fill="white"/>
</clipPath>
</defs>
</svg>
