<svg width="50" height="50" viewBox="0 0 50 50" fill="none" xmlns="http://www.w3.org/2000/svg">
<path d="M0 12C0 5.37258 5.37258 0 12 0L37.9995 0C44.6269 0 49.9995 5.37258 49.9995 12V37.9995C49.9995 44.6269 44.6269 49.9995 37.9995 49.9995H12C5.37258 49.9995 0 44.6269 0 37.9995L0 12Z" fill="#27AE60"/>
<path d="M22.3051 13.5714H11.2859C10.6547 13.5714 10.1431 14.0831 10.1431 14.7143V33C10.1431 33.6311 10.6547 34.1428 11.2859 34.1428H38.7145C39.3456 34.1428 39.8574 33.6311 39.8574 33V21.7696" stroke="white" stroke-width="2.5" stroke-linecap="round" stroke-linejoin="round"/>
<path d="M22.7144 34.1428L20.4287 39.8571" stroke="white" stroke-width="2.5" stroke-linecap="round" stroke-linejoin="round"/>
<path d="M27.2861 34.1428L29.5718 39.8571" stroke="white" stroke-width="2.5" stroke-linecap="round" stroke-linejoin="round"/>
<path d="M18.1431 39.8572H31.8574" stroke="white" stroke-width="2.5" stroke-linecap="round" stroke-linejoin="round"/>
<path d="M27.2861 16.1987L31.8576 19.6272L39.8576 10.4844" stroke="white" stroke-width="2.5" stroke-linecap="round" stroke-linejoin="round"/>
</svg>
