<svg width="40" height="40" viewBox="0 0 40 40" fill="none" xmlns="http://www.w3.org/2000/svg">
<path d="M0 12C0 5.37258 5.37258 0 12 0L28 0C34.6274 0 40 5.37258 40 12V28C40 34.6274 34.6274 40 28 40H12C5.37258 40 0 34.6274 0 28L0 12Z" fill="#27AE60"/>
<g clip-path="url(#clip0_132_1504)">
<path d="M22.5715 8.85718H17.4286C16.4819 8.85718 15.7144 9.62469 15.7144 10.5715V11.4286C15.7144 12.3754 16.4819 13.1429 17.4286 13.1429H22.5715C23.5183 13.1429 24.2858 12.3754 24.2858 11.4286V10.5715C24.2858 9.62469 23.5183 8.85718 22.5715 8.85718Z" stroke="white" stroke-width="2" stroke-linecap="round" stroke-linejoin="round"/>
<path d="M24.7143 10.5715H27.2857C27.7403 10.5715 28.1765 10.7522 28.4979 11.0736C28.8193 11.3951 29 11.8312 29 12.2858V29.4287C29 29.8833 28.8193 30.3194 28.4979 30.6408C28.1765 30.9623 27.7403 31.143 27.2857 31.143H12.7143C12.2596 31.143 11.8236 30.9623 11.5021 30.6408C11.1806 30.3194 11 29.8833 11 29.4287V12.2858C11 11.8312 11.1806 11.3951 11.5021 11.0736C11.8236 10.7522 12.2596 10.5715 12.7143 10.5715H15.2857" stroke="white" stroke-width="2" stroke-linecap="round" stroke-linejoin="round"/>
<path d="M16.5713 23.4285L19.1427 25.1428L24.2856 18.2856" stroke="white" stroke-width="2" stroke-linecap="round" stroke-linejoin="round"/>
</g>
<defs>
<clipPath id="clip0_132_1504">
<rect width="24" height="24" fill="white" transform="translate(8 8)"/>
</clipPath>
</defs>
</svg>
