<svg width="40" height="40" viewBox="0 0 40 40" fill="none" xmlns="http://www.w3.org/2000/svg">
<path d="M0 12C0 5.37258 5.37258 0 12 0L28 0C34.6274 0 40 5.37258 40 12V28C40 34.6274 34.6274 40 28 40H12C5.37258 40 0 34.6274 0 28L0 12Z" fill="#27AE60"/>
<g clip-path="url(#clip0_132_1499)">
<path d="M16.966 11.8572L17.7031 9.95432C17.8275 9.63214 18.0462 9.35503 18.3307 9.15926C18.6151 8.96349 18.9521 8.8582 19.2974 8.85718H20.7031C21.0485 8.8582 21.3854 8.96349 21.6699 9.15926C21.9544 9.35503 22.1731 9.63214 22.2974 9.95432L23.0346 11.8572L25.5374 13.2972L27.5602 12.9886C27.8971 12.9429 28.2399 12.9983 28.5452 13.1479C28.8504 13.2975 29.1043 13.5344 29.2745 13.8286L29.9602 15.0286C30.1359 15.3275 30.217 15.6726 30.1925 16.0185C30.168 16.3643 30.0392 16.6946 29.8231 16.9657L28.5716 18.56V21.44L29.8574 23.0343C30.0735 23.3055 30.2023 23.6358 30.2268 23.9816C30.2513 24.3274 30.1702 24.6726 29.9945 24.9715L29.3088 26.1715C29.1386 26.4656 28.8847 26.7025 28.5795 26.8522C28.2742 27.0017 27.9314 27.0572 27.5945 27.0115L25.5716 26.7029L23.0689 28.1429L22.3317 30.0457C22.2074 30.3679 21.9887 30.6451 21.7042 30.8408C21.4197 31.0366 21.0827 31.1419 20.7374 31.1429H19.2974C18.9521 31.1419 18.6151 31.0366 18.3307 30.8408C18.0462 30.6451 17.8275 30.3679 17.7031 30.0457L16.966 28.1429L14.4631 26.7029L12.4403 27.0115C12.1035 27.0572 11.7606 27.0017 11.4554 26.8522C11.1502 26.7025 10.8963 26.4656 10.726 26.1715L10.0403 24.9715C9.86457 24.6726 9.78362 24.3274 9.8081 23.9816C9.83258 23.6358 9.96135 23.3055 10.1774 23.0343L11.4289 21.44V18.56L10.1431 16.9657C9.92707 16.6946 9.79829 16.3643 9.77381 16.0185C9.74933 15.6726 9.83028 15.3275 10.006 15.0286L10.6917 13.8286C10.862 13.5344 11.1159 13.2975 11.4211 13.1479C11.7263 12.9983 12.0692 12.9429 12.406 12.9886L14.4289 13.2972L16.966 11.8572ZM16.5717 20C16.5717 20.6781 16.7728 21.341 17.1495 21.9048C17.5263 22.4687 18.0617 22.9081 18.6882 23.1676C19.3147 23.4271 20.0041 23.495 20.6692 23.3627C21.3342 23.2304 21.9452 22.9039 22.4247 22.4244C22.9041 21.9449 23.2307 21.334 23.363 20.6689C23.4953 20.0038 23.4274 19.3145 23.1679 18.688C22.9084 18.0615 22.4689 17.526 21.9051 17.1493C21.3413 16.7725 20.6784 16.5715 20.0003 16.5715C19.091 16.5715 18.2189 16.9327 17.5759 17.5757C16.9329 18.2187 16.5717 19.0907 16.5717 20Z" stroke="white" stroke-width="2" stroke-linecap="round" stroke-linejoin="round"/>
</g>
<defs>
<clipPath id="clip0_132_1499">
<rect width="24" height="24" fill="white" transform="translate(8 8)"/>
</clipPath>
</defs>
</svg>
