<svg width="56" height="56" viewBox="0 0 56 56" fill="none" xmlns="http://www.w3.org/2000/svg">
<g opacity="0.5">
<path d="M0 12C0 5.37258 5.37258 0 12 0H44C50.6274 0 56 5.37258 56 12V44C56 50.6274 50.6274 56 44 56H12C5.37258 56 0 50.6274 0 44V12Z" fill="#333333"/>
<path fill-rule="evenodd" clip-rule="evenodd" d="M26.7507 18.5828C27.2389 19.0709 27.2389 19.8624 26.7507 20.3506L20.3513 26.75H38.6668C39.3572 26.75 39.9168 27.3097 39.9168 28C39.9168 28.6904 39.3572 29.25 38.6668 29.25H20.3513L26.7507 35.6495C27.2389 36.1376 27.2389 36.9291 26.7507 37.4172C26.2626 37.9054 25.4711 37.9054 24.9829 37.4172L16.4496 28.8839C15.9615 28.3957 15.9615 27.6043 16.4496 27.1161L24.9829 18.5828C25.4711 18.0946 26.2626 18.0946 26.7507 18.5828Z" fill="white"/>
</g>
</svg>
