<svg width="243" height="330" viewBox="0 0 243 330" fill="none" xmlns="http://www.w3.org/2000/svg">
<g opacity="0.9">
<path d="M87.3924 318.368C87.3924 324.792 92.6093 330 99.0447 330H143.712C150.147 330 155.364 324.792 155.364 318.368V273.778C155.364 267.354 150.147 262.146 143.712 262.146H99.0447C92.6093 262.146 87.3924 267.354 87.3924 273.778V318.368Z" fill="#E0E0E0"/>
<path d="M174.785 231.127C174.785 237.551 180.002 242.759 186.437 242.759H231.105C237.54 242.759 242.757 237.551 242.757 231.127V186.537C242.757 180.113 237.54 174.905 231.105 174.905H186.437C180.002 174.905 174.785 180.113 174.785 186.537V231.127Z" fill="#E0E0E0"/>
<path d="M143.85 287.349L130.118 273.64L185.047 218.806L198.78 232.514L143.85 287.349Z" fill="#E0E0E0"/>
<path d="M242.757 231.127C242.757 237.551 237.54 242.759 231.105 242.759H186.437C180.002 242.759 174.785 237.551 174.785 231.127V186.537C174.785 180.113 180.002 174.905 186.437 174.905H231.105C237.54 174.905 242.757 180.113 242.757 186.537V231.127Z" fill="#E0E0E0"/>
<path d="M242.757 143.886C242.757 150.31 237.54 155.518 231.105 155.518H186.437C180.002 155.518 174.785 150.31 174.785 143.886V99.296C174.785 92.8717 180.002 87.6638 186.437 87.6638H231.105C237.54 87.6638 242.757 92.8717 242.757 99.296V143.886Z" fill="#E0E0E0"/>
<path d="M155.364 56.6448C155.364 63.0691 150.147 68.277 143.712 68.277H99.0447C92.6093 68.277 87.3924 63.0691 87.3924 56.6448V12.055C87.3924 5.63074 92.6093 0.422852 99.0447 0.422852H143.712C150.147 0.422852 155.364 5.63074 155.364 12.055V56.6448Z" fill="#E0E0E0"/>
<path d="M67.9718 143.886C67.9718 150.31 62.7549 155.518 56.3195 155.518H11.6523C5.21684 155.518 -9.15527e-05 150.31 -9.15527e-05 143.886V99.296C-9.15527e-05 92.8717 5.21684 87.6638 11.6523 87.6638H56.3195C62.7549 87.6638 67.9718 92.8717 67.9718 99.296V143.886Z" fill="#E0E0E0"/>
<path d="M57.7094 112.867L43.977 99.1582L98.9066 44.3238L112.639 58.0324L57.7094 112.867Z" fill="#E0E0E0"/>
<path d="M242.757 56.6448C242.757 63.0691 237.54 68.277 231.105 68.277H186.437C180.002 68.277 174.785 63.0691 174.785 56.6448V12.055C174.785 5.63074 180.002 0.422852 186.437 0.422852H231.105C237.54 0.422852 242.757 5.63074 242.757 12.055V56.6448Z" fill="#E0E0E0"/>
<path d="M155.364 143.886C155.364 150.31 150.147 155.518 143.712 155.518H99.0447C92.6093 155.518 87.3924 150.31 87.3924 143.886V99.296C87.3924 92.8717 92.6093 87.6638 99.0447 87.6638H143.712C150.147 87.6638 155.364 92.8717 155.364 99.296V143.886Z" fill="#E0E0E0"/>
<path d="M145.102 112.867L131.37 99.1582L186.299 44.3238L200.032 58.0324L145.102 112.867Z" fill="#E0E0E0"/>
<path d="M-9.15527e-05 318.368C-9.15527e-05 324.792 5.21684 330 11.6523 330H56.3195C62.7549 330 67.9718 324.792 67.9718 318.368V273.778C67.9718 267.354 62.7549 262.146 56.3195 262.146H11.6523C5.21684 262.146 -9.15527e-05 267.354 -9.15527e-05 273.778V318.368Z" fill="#E0E0E0"/>
<path d="M-9.15527e-05 143.886C-9.15527e-05 150.31 5.21684 155.518 11.6523 155.518H56.3195C62.7549 155.518 67.9718 150.31 67.9718 143.886V99.296C67.9718 92.8717 62.7549 87.6638 56.3195 87.6638H11.6523C5.21684 87.6638 -9.15527e-05 92.8717 -9.15527e-05 99.296V143.886Z" fill="#E0E0E0"/>
<path d="M87.3924 231.127C87.3924 237.551 92.6093 242.759 99.0447 242.759H143.712C150.147 242.759 155.364 237.551 155.364 231.127V186.537C155.364 180.113 150.147 174.905 143.712 174.905H99.0447C92.6093 174.905 87.3924 180.113 87.3924 186.537V231.127Z" fill="#E0E0E0"/>
<path d="M174.785 143.886C174.785 150.31 180.002 155.518 186.437 155.518H231.105C237.54 155.518 242.757 150.31 242.757 143.886V99.296C242.757 92.8717 237.54 87.6638 231.105 87.6638H186.437C180.002 87.6638 174.785 92.8717 174.785 99.296V143.886Z" fill="#E0E0E0"/>
<path d="M56.4575 287.349L42.7251 273.64L97.6548 218.806L111.387 232.514L56.4575 287.349Z" fill="#E0E0E0"/>
<path d="M143.85 200.108L130.118 186.399L185.047 131.565L198.78 145.273L143.85 200.108Z" fill="#E0E0E0"/>
<path d="M97.6548 200.108L111.387 186.399L56.4576 131.565L42.7252 145.273L97.6548 200.108Z" fill="#E0E0E0"/>
<path d="M242.757 143.886C242.757 150.31 237.54 155.518 231.105 155.518H186.437C180.002 155.518 174.785 150.31 174.785 143.886V99.296C174.785 92.8717 180.002 87.6638 186.437 87.6638H231.105C237.54 87.6638 242.757 92.8717 242.757 99.296V143.886Z" fill="#E0E0E0"/>
</g>
</svg>
