<svg width="56" height="56" viewBox="0 0 56 56" fill="none" xmlns="http://www.w3.org/2000/svg">
<path d="M0 12C0 5.37258 5.37258 0 12 0H44C50.6274 0 56 5.37258 56 12V44C56 50.6274 50.6274 56 44 56H12C5.37258 56 0 50.6274 0 44V12Z" fill="#27AE60"/>
<path d="M25.0769 18.497C25.5678 18.0965 26.292 18.1254 26.7497 18.583C27.2074 19.0407 27.2362 19.7649 26.8356 20.2558L26.7497 20.3505L20.3503 26.75H38.6657L38.7937 26.7568C39.424 26.8207 39.9157 27.3528 39.9157 28C39.9157 28.6472 39.4241 29.1802 38.7937 29.2441L38.6657 29.25H20.3503L26.7497 35.6494L26.8356 35.7441C27.2363 36.2351 27.2074 36.9592 26.7497 37.417C26.292 37.8745 25.5677 37.9035 25.0769 37.5029L24.9821 37.417L16.4489 28.8838C15.961 28.3957 15.9611 27.6043 16.4489 27.1162L24.9821 18.583L25.0769 18.497Z" fill="white"/>
</svg>
