<svg width="243" height="417" viewBox="0 0 243 417" fill="none" xmlns="http://www.w3.org/2000/svg">
<g opacity="0.9">
<path d="M155.61 318.127C155.61 324.551 150.393 329.759 143.957 329.759H99.29C92.8546 329.759 87.6376 324.551 87.6376 318.127L87.6376 273.537C87.6376 267.113 92.8546 261.905 99.29 261.905H143.957C150.393 261.905 155.61 267.113 155.61 273.537V318.127Z" fill="#E0E0E0"/>
<path d="M68.2171 405.368C68.2171 411.792 63.0001 417 56.5647 417H11.8974C5.46204 417 0.245117 411.792 0.245117 405.368L0.245117 360.778C0.245117 354.354 5.46204 349.146 11.8974 349.146H56.5647C63.0001 349.146 68.2171 354.354 68.2171 360.778V405.368Z" fill="#E0E0E0"/>
<path d="M68.2171 230.886C68.2171 237.31 63.0001 242.518 56.5647 242.518H11.8974C5.46204 242.518 0.245117 237.31 0.245117 230.886L0.245117 186.296C0.245117 179.872 5.46204 174.664 11.8974 174.664H56.5647C63.0001 174.664 68.2171 179.872 68.2171 186.296V230.886Z" fill="#E0E0E0"/>
<path d="M57.9547 374.349L44.2222 360.64L99.1519 305.806L112.884 319.514L57.9547 374.349Z" fill="#E0E0E0"/>
<path d="M99.152 287.108L112.884 273.399L57.9548 218.565L44.2224 232.273L99.152 287.108Z" fill="#E0E0E0"/>
<path d="M0.245117 405.368C0.245117 411.792 5.46204 417 11.8974 417H56.5647C63.0001 417 68.2171 411.792 68.2171 405.368V360.778C68.2171 354.354 63.0001 349.146 56.5647 349.146H11.8974C5.46204 349.146 0.245117 354.354 0.245117 360.778L0.245117 405.368Z" fill="#E0E0E0"/>
<path d="M0.245117 230.886C0.245117 237.31 5.46204 242.518 11.8974 242.518H56.5647C63.0001 242.518 68.2171 237.31 68.2171 230.886V186.296C68.2171 179.872 63.0001 174.664 56.5647 174.664H11.8974C5.46204 174.664 0.245117 179.872 0.245117 186.296L0.245117 230.886Z" fill="#E0E0E0"/>
<path d="M0.245117 405.368C0.245117 411.792 5.46204 417 11.8974 417H56.5647C63.0001 417 68.2171 411.792 68.2171 405.368V360.778C68.2171 354.354 63.0001 349.146 56.5647 349.146H11.8974C5.46204 349.146 0.245117 354.354 0.245117 360.778L0.245117 405.368Z" fill="#E0E0E0"/>
<path d="M0.245117 143.645C0.245117 150.069 5.46204 155.277 11.8974 155.277H56.5647C63.0001 155.277 68.2171 150.069 68.2171 143.645V99.055C68.2171 92.6307 63.0001 87.4228 56.5647 87.4228H11.8974C5.46204 87.4228 0.245117 92.6307 0.245117 99.055L0.245117 143.645Z" fill="#E0E0E0"/>
<path d="M87.6376 56.4038C87.6376 62.8281 92.8546 68.0359 99.29 68.0359H143.957C150.393 68.0359 155.61 62.8281 155.61 56.4038V11.814C155.61 5.38971 150.393 0.181824 143.957 0.181824H99.29C92.8546 0.181824 87.6376 5.38971 87.6376 11.814V56.4038Z" fill="#E0E0E0"/>
<path d="M175.03 143.645C175.03 150.069 180.247 155.277 186.682 155.277H231.35C237.785 155.277 243.002 150.069 243.002 143.645V99.055C243.002 92.6307 237.785 87.4228 231.35 87.4228H186.682C180.247 87.4228 175.03 92.6307 175.03 99.055V143.645Z" fill="#E0E0E0"/>
<path d="M185.293 112.626L199.025 98.9172L144.095 44.0828L130.363 57.7914L185.293 112.626Z" fill="#E0E0E0"/>
<path d="M0.245117 56.4038C0.245117 62.8281 5.46204 68.0359 11.8974 68.0359H56.5647C63.0001 68.0359 68.2171 62.8281 68.2171 56.4038V11.814C68.2171 5.38971 63.0001 0.181824 56.5647 0.181824H11.8974C5.46204 0.181824 0.245117 5.38971 0.245117 11.814L0.245117 56.4038Z" fill="#E0E0E0"/>
<path d="M87.6376 143.645C87.6376 150.069 92.8546 155.277 99.29 155.277H143.957C150.393 155.277 155.61 150.069 155.61 143.645V99.055C155.61 92.6307 150.393 87.4228 143.957 87.4228H99.29C92.8546 87.4228 87.6376 92.6307 87.6376 99.055V143.645Z" fill="#E0E0E0"/>
<path d="M97.9 112.626L111.632 98.9172L56.7028 44.0828L42.9704 57.7914L97.9 112.626Z" fill="#E0E0E0"/>
<path d="M243.002 318.127C243.002 324.551 237.785 329.759 231.35 329.759H186.682C180.247 329.759 175.03 324.551 175.03 318.127V273.537C175.03 267.113 180.247 261.905 186.682 261.905H231.35C237.785 261.905 243.002 267.113 243.002 273.537V318.127Z" fill="#E0E0E0"/>
<path d="M243.002 143.645C243.002 150.069 237.785 155.277 231.35 155.277H186.682C180.247 155.277 175.03 150.069 175.03 143.645V99.055C175.03 92.6307 180.247 87.4228 186.682 87.4228H231.35C237.785 87.4228 243.002 92.6307 243.002 99.055V143.645Z" fill="#E0E0E0"/>
<path d="M155.61 230.886C155.61 237.31 150.393 242.518 143.957 242.518H99.29C92.8546 242.518 87.6376 237.31 87.6376 230.886V186.296C87.6376 179.872 92.8546 174.664 99.29 174.664H143.957C150.393 174.664 155.61 179.872 155.61 186.296V230.886Z" fill="#E0E0E0"/>
<path d="M68.2171 143.645C68.2171 150.069 63.0001 155.277 56.5647 155.277H11.8974C5.46204 155.277 0.245117 150.069 0.245117 143.645L0.245117 99.055C0.245117 92.6307 5.46204 87.4228 11.8974 87.4228H56.5647C63.0001 87.4228 68.2171 92.6307 68.2171 99.055V143.645Z" fill="#E0E0E0"/>
<path d="M186.544 287.108L200.277 273.399L145.347 218.565L131.615 232.273L186.544 287.108Z" fill="#E0E0E0"/>
<path d="M99.152 199.867L112.884 186.158L57.9548 131.324L44.2224 145.032L99.152 199.867Z" fill="#E0E0E0"/>
<path d="M145.347 199.867L131.615 186.158L186.544 131.324L200.277 145.032L145.347 199.867Z" fill="#E0E0E0"/>
<path d="M0.245117 143.645C0.245117 150.069 5.46204 155.277 11.8974 155.277H56.5647C63.0001 155.277 68.2171 150.069 68.2171 143.645V99.055C68.2171 92.6307 63.0001 87.4228 56.5647 87.4228H11.8974C5.46204 87.4228 0.245117 92.6307 0.245117 99.055L0.245117 143.645Z" fill="#E0E0E0"/>
</g>
</svg>
