<svg width="56" height="56" viewBox="0 0 56 56" fill="none" xmlns="http://www.w3.org/2000/svg">
<path d="M0 12C0 5.37258 5.37258 0 12 0H44C50.6274 0 56 5.37258 56 12V44C56 50.6274 50.6274 56 44 56H12C5.37258 56 0 50.6274 0 44V12Z" fill="#333333"/>
<path fill-rule="evenodd" clip-rule="evenodd" d="M29.2496 18.5828C29.7378 18.0946 30.5292 18.0946 31.0174 18.5828L39.5507 27.1161C40.0389 27.6043 40.0389 28.3957 39.5507 28.8839L31.0174 37.4172C30.5292 37.9054 29.7378 37.9054 29.2496 37.4172C28.7615 36.9291 28.7615 36.1376 29.2496 35.6495L35.6491 29.25H17.3335C16.6431 29.25 16.0835 28.6904 16.0835 28C16.0835 27.3097 16.6431 26.75 17.3335 26.75H35.6491L29.2496 20.3506C28.7615 19.8624 28.7615 19.0709 29.2496 18.5828Z" fill="white"/>
</svg>
