<svg width="56" height="56" viewBox="0 0 56 56" fill="none" xmlns="http://www.w3.org/2000/svg">
<path d="M0 12C0 5.37258 5.37258 0 12 0H44C50.6274 0 56 5.37258 56 12V44C56 50.6274 50.6274 56 44 56H12C5.37258 56 0 50.6274 0 44V12Z" fill="#27AE60"/>
<rect width="32" height="32" transform="translate(12 12)" fill="#27AE60"/>
<path fill-rule="evenodd" clip-rule="evenodd" d="M29.2491 18.5828C29.7373 18.0946 30.5287 18.0946 31.0169 18.5828L39.5502 27.1161C40.0384 27.6043 40.0384 28.3957 39.5502 28.8839L31.0169 37.4172C30.5287 37.9054 29.7373 37.9054 29.2491 37.4172C28.761 36.9291 28.761 36.1376 29.2491 35.6495L35.6486 29.25H17.333C16.6427 29.25 16.083 28.6904 16.083 28C16.083 27.3097 16.6427 26.75 17.333 26.75H35.6486L29.2491 20.3506C28.761 19.8624 28.761 19.0709 29.2491 18.5828Z" fill="white"/>
</svg>
