<svg width="25" height="24" viewBox="0 0 25 24" fill="none" xmlns="http://www.w3.org/2000/svg">
<path fill-rule="evenodd" clip-rule="evenodd" d="M9.40261 3.5046C7.39006 4.23852 5.71163 5.66719 4.65752 7.50043C5.59985 7.14501 6.64162 6.86674 7.73803 6.66332C8.15242 5.53518 8.70658 4.4677 9.40261 3.5046ZM3.49054 11.25C3.54681 10.5649 3.67948 9.90142 3.88001 9.26812C4.83717 8.76283 6.00633 8.36475 7.29855 8.0789C7.0335 9.11268 6.87678 10.1798 6.82693 11.25H3.49054ZM8.1284 11.25C8.18769 10.076 8.38625 8.91686 8.72162 7.81647C9.69546 7.67039 10.7156 7.58204 11.7499 7.55322V11.25H8.1284ZM13.2499 11.25V7.55322C14.3211 7.58305 15.3771 7.67675 16.3823 7.8323C16.7259 8.92825 16.9294 10.082 16.9904 11.25H13.2499ZM13.2499 6.25276C14.1269 6.27608 15.0026 6.34045 15.858 6.44684C15.2801 5.1556 14.4865 3.98296 13.4816 3.01277C13.4047 3.00446 13.3274 2.99712 13.2499 2.99075V6.25276ZM18.2919 11.25C18.241 10.1881 18.0816 9.12959 17.8124 8.1038C19.0605 8.38767 20.1901 8.77726 21.1197 9.26797C21.3202 9.90131 21.4529 10.5648 21.5092 11.25H18.2919ZM17.36 6.68173C18.4203 6.88339 19.428 7.15556 20.3421 7.50031C19.2979 5.68424 17.6409 4.26521 15.6534 3.52533C16.367 4.48808 16.9352 5.55469 17.36 6.68173ZM9.22859 6.43621C10.0564 6.33616 10.9026 6.2753 11.7499 6.25276V2.99074C11.674 2.99697 11.5984 3.00414 11.5231 3.01224C10.554 3.97962 9.78759 5.14861 9.22859 6.43621ZM6.82694 12.75H3.49053C3.53609 13.3048 3.63174 13.8454 3.77295 14.3672C4.73009 14.8893 5.90998 15.3007 7.21906 15.5962C7.00193 14.6644 6.87158 13.7085 6.82694 12.75ZM7.62168 17.0076C6.48567 16.7905 5.41044 16.4925 4.4464 16.1108C5.47942 18.1306 7.24994 19.7106 9.40276 20.4956C8.63932 19.4393 8.04656 18.2574 7.62168 17.0076ZM9.09334 17.2399C9.9641 17.3499 10.8564 17.4163 11.7499 17.4401V21.0094C11.6741 21.0032 11.5985 20.996 11.5232 20.9879C10.4734 19.94 9.66147 18.6555 9.09334 17.2399ZM11.7499 16.1396C10.6824 16.1099 9.63 16.0167 8.62801 15.8621C8.34909 14.8584 8.18195 13.8103 8.1284 12.75H11.7499V16.1396ZM13.2499 17.4401V21.0094C13.3274 21.003 13.4046 20.9957 13.4815 20.9874C14.5701 19.9364 15.4108 18.6478 15.998 17.2282C15.0983 17.3452 14.1747 17.4155 13.2499 17.4401ZM16.4788 15.8453C15.4449 16.01 14.3555 16.1088 13.2499 16.1396V12.75H16.9904C16.9353 13.8041 16.7643 14.8465 16.4788 15.8453ZM17.4798 16.988C17.0443 18.2371 16.4363 19.4185 15.6533 20.4749C17.7806 19.683 19.5293 18.113 20.5533 16.1109C19.6181 16.4811 18.5782 16.7727 17.4798 16.988ZM21.2267 14.3674C20.2973 14.8743 19.1578 15.2769 17.894 15.5703C18.114 14.6469 18.2463 13.6998 18.2919 12.75H21.5092C21.4636 13.3049 21.368 13.8455 21.2267 14.3674ZM1.85986 12.0001C1.85986 6.12377 6.62355 1.36008 12.4999 1.36008C18.3762 1.36008 23.1399 6.12377 23.1399 12.0001C23.1399 17.8764 18.3762 22.6401 12.4999 22.6401C6.62355 22.6401 1.85986 17.8764 1.85986 12.0001Z" fill="white"/>
</svg>
