<svg width="181" height="181" viewBox="0 0 181 181" fill="none" xmlns="http://www.w3.org/2000/svg">
<g filter="url(#filter0_d_132_1338)">
<circle cx="90.5001" cy="86.5" r="49.7462" fill="#333333"/>
</g>
<path d="M77 95.0997C77 95.0997 84.0674 91.9377 91 94.4693C98.7465 97.2983 105 94.9854 105 94.9854V77.4963C105 77.4963 98.7476 79.8051 91.0022 76.9785C84.068 74.4478 77 77.6253 77 77.6253V95.0997Z" fill="url(#paint0_linear_132_1338)"/>
<path d="M77 95.2238C77 95.2238 84.0674 92.0618 91 94.5934C98.7465 97.4223 105 95.1094 105 95.1094V86.3649C105 86.3649 98.6562 89.3027 91.0022 86.062C82.9081 82.6351 77 86.4866 77 86.4866V95.2238Z" fill="url(#paint1_linear_132_1338)"/>
<path d="M125.218 69.1797L123.595 68.9704L123.734 67.9028L125.179 68.0945L124.537 66.7915L125.522 66.3057L126.143 67.5664L126.833 66.3533L127.785 66.8933L126.971 68.3255L128.589 68.5263L128.438 69.5896L127.052 69.4109L127.681 70.6885L126.697 71.1742L126.067 69.8966L125.352 71.1434L124.404 70.6118L125.218 69.1797Z" fill="white"/>
<path d="M125.54 80.7455L124.548 76.2301L125.046 75.4528L126.339 75.1658L126.622 76.4559L125.985 76.5974L126.692 79.8134L127.976 79.5285L127.551 77.5933L128.844 77.3063L129.269 79.2415L130.572 78.9524L129.865 75.7364L129.218 75.8799L128.935 74.5897L130.219 74.3048L131.015 74.7951L132.007 79.3105L131.491 80.0919L129.551 80.5224L128.764 80.03L128.257 80.8094L126.317 81.2399L125.54 80.7455Z" fill="white"/>
<path d="M129.138 83.2739L129.246 86.5664L131.241 86.495L131.133 83.2025L129.138 83.2739ZM125.839 83.392L125.796 82.0712L132.413 81.8343L132.586 87.1081L131.936 87.7831L128.627 87.9015L127.944 87.2742L127.815 83.3212L125.839 83.392Z" fill="white"/>
<path d="M127.091 89.961L126.608 93.2217L130.537 93.7901L131.021 90.5294L127.091 89.961ZM125.201 93.6862L125.88 89.1082L126.621 88.5569L131.86 89.3148L132.429 90.0555L131.75 94.6335L130.99 95.1821L125.751 94.4243L125.201 93.6862Z" fill="white"/>
<path d="M125.837 96.4582L124.782 99.5835L126.028 99.9988L127.082 96.8735L125.837 96.4582ZM123.316 99.7921L125.005 94.7862L131.278 96.8775L129.484 102.197L128.229 101.779L129.601 97.713L128.337 97.2917L127.071 101.044L126.235 101.453L123.726 100.616L123.316 99.7921Z" fill="white"/>
<path d="M122.328 101.919L122.968 100.76L127.026 102.982L127.81 105.665L125.896 109.134L120.099 105.96L120.734 104.809L125.371 107.348L126.331 105.609L125.806 103.824L122.328 101.919Z" fill="white"/>
<path d="M116.239 110.781L119.798 106.431L124.92 110.601L121.362 114.951L120.337 114.117L123.057 110.792L122.025 109.952L119.515 113.021L118.49 112.187L121.001 109.118L119.984 108.29L117.264 111.615L116.239 110.781Z" fill="white"/>
<path d="M114.712 112.22L115.723 111.363L120.002 116.391L118.992 117.249L117.274 115.23L114.755 117.368L116.473 119.386L115.47 120.238L111.191 115.209L112.194 114.358L113.9 116.362L116.418 114.224L114.712 112.22Z" fill="white"/>
<path d="M108.954 122.926L111.815 121.274L109.834 117.843L106.973 119.495L108.954 122.926ZM113.049 122.086L109.032 124.405L108.141 124.168L105.5 119.594L105.731 118.688L109.748 116.368L110.648 116.622L113.289 121.196L113.049 122.086Z" fill="white"/>
<path d="M101.559 121.435L98.3699 122.296L98.7094 123.562L101.898 122.701L101.559 121.435ZM102.24 123.977L99.0513 124.838L99.3956 126.123L102.584 125.262L102.24 123.977ZM97.3885 121.193L102.496 119.814L104.205 126.193L99.098 127.571L98.2941 127.094L97.7813 125.181L98.2408 124.373L97.4394 123.905L96.9265 121.991L97.3885 121.193Z" fill="white"/>
<path d="M93.1238 121.814L93.1231 123.136L90.475 123.143L89.1503 124.459L91.7984 124.452L93.774 126.429L93.773 128.421L92.4489 128.424L92.4496 127.093L91.1357 125.775L89.1496 125.78L89.1483 128.433L87.8337 128.436L87.836 123.801L89.8136 121.823L93.1238 121.814Z" fill="white"/>
<path d="M85.7965 121.567L87.0993 121.8L85.9156 128.305L84.6129 128.073L85.088 125.461L83.1433 125.115L81.6038 126.183L81.3654 127.494L80.072 127.263L80.4288 125.302L81.9589 124.232L80.9022 122.7L81.2556 120.758L82.5491 120.988L82.3123 122.29L83.38 123.814L85.3248 124.16L85.7965 121.567Z" fill="white"/>
<path d="M78.4251 123.28L75.3336 122.135L74.6346 124.003L77.7261 125.148L78.4251 123.28ZM79.5814 120.19L80.8215 120.649L78.5024 126.846L73.5507 125.013L73.1747 124.158L74.3342 121.06L75.1773 120.666L78.889 122.04L79.5814 120.19Z" fill="white"/>
<path d="M72.1085 120.619L69.2729 118.942L68.2515 120.656L69.9578 121.666L71.7696 121.188L72.1085 120.619ZM73.7978 117.783L74.9353 118.456L72.5683 122.43L69.8488 123.14L66.4445 121.126L69.8328 115.438L70.9622 116.106L69.9505 117.804L72.7861 119.482L73.7978 117.783Z" fill="white"/>
<path d="M68.1044 113.998L69.1444 114.813L65.0472 120.016L64.0072 119.202L68.1044 113.998ZM65.5438 121.247L64.7244 122.287L63.6844 121.473L64.5038 120.432L65.5438 121.247ZM63.7312 119.827L62.9118 120.868L61.8718 120.053L62.6912 119.012L63.7312 119.827Z" fill="white"/>
<path d="M66.2362 112.435L67.1593 113.38L62.4134 118.002L61.4902 117.058L63.3954 115.202L61.0942 112.847L59.189 114.703L58.2725 113.765L63.0184 109.143L63.9349 110.081L62.0434 111.923L64.3446 114.278L66.2362 112.435Z" fill="white"/>
<path d="M61.9141 107.543L62.7064 108.599L57.4022 112.57L56.6099 111.514L61.9141 107.543Z" fill="white"/>
<path d="M55.5396 103.39L57.1605 103.611L57.0134 104.678L55.5699 104.475L56.2017 105.783L55.2133 106.261L54.6019 104.996L53.9029 106.204L52.9551 105.656L53.7801 104.23L52.1633 104.017L52.323 102.955L53.7075 103.144L53.088 101.862L54.0764 101.384L54.696 102.666L55.4209 101.425L56.3645 101.964L55.5396 103.39Z" fill="white"/>
<path d="M55.3165 91.8806L56.2744 96.4035L55.7708 97.177L54.4754 97.4543L54.2017 96.162L54.8402 96.0254L54.1579 92.804L52.8717 93.0793L53.2822 95.0177L51.9868 95.2949L51.5762 93.3566L50.2715 93.6358L50.9538 96.8572L51.6015 96.7185L51.8752 98.0108L50.589 98.2861L49.7971 97.7898L48.8392 93.2669L49.3613 92.4894L51.3045 92.0735L52.0871 92.5718L52.5999 91.7963L54.5431 91.3804L55.3165 91.8806Z" fill="white"/>
<path d="M51.7381 89.5054L51.6423 86.2124L49.6476 86.2765L49.7434 89.5695L51.7381 89.5054ZM55.0373 89.3995L55.0757 90.7205L48.4583 90.9329L48.3049 85.6585L48.9572 84.9859L52.2659 84.8797L52.9466 85.5095L53.0615 89.4629L55.0373 89.3995Z" fill="white"/>
<path d="M53.8151 82.637L54.3223 79.3799L50.3973 78.7829L49.8901 82.0401L53.8151 82.637ZM55.7323 78.9256L55.0202 83.4986L54.2751 84.0445L49.0418 83.2486L48.4786 82.5037L49.1907 77.9306L49.9545 77.3876L55.1878 78.1836L55.7323 78.9256Z" fill="white"/>
<path d="M55.0919 76.2L56.169 73.0823L54.9264 72.658L53.8493 75.7757L55.0919 76.2ZM57.6366 72.8844L55.9114 77.878L49.6536 75.7412L51.4868 70.4349L52.7384 70.8622L51.3372 74.9179L52.5977 75.3483L53.8909 71.6053L54.7296 71.2026L57.2328 72.0574L57.6366 72.8844Z" fill="white"/>
<path d="M58.6051 70.7917L57.957 71.9462L53.916 69.6946L53.1516 67.0061L55.0913 63.5508L60.8643 66.7673L60.2208 67.9136L55.6024 65.3404L54.6303 67.0722L55.1414 68.8617L58.6051 70.7917Z" fill="white"/>
<path d="M64.6122 62.1008L61.0372 66.4375L55.9305 62.2481L59.5055 57.9114L60.5269 58.7493L57.7944 62.0639L58.823 62.9077L61.3448 59.8487L62.3662 60.6865L59.8444 63.7456L60.8584 64.5775L63.5909 61.2629L64.6122 62.1008Z" fill="white"/>
<path d="M66.1526 60.6143L65.1391 61.468L60.8791 56.4229L61.8927 55.5693L63.6027 57.5945L66.1293 55.4666L64.4192 53.4413L65.4255 52.5938L69.6855 57.6388L68.6792 58.4864L66.9813 56.4756L64.4547 58.6035L66.1526 60.6143Z" fill="white"/>
<path d="M70.7954 55.3764L73.6691 53.7466L71.7151 50.3008L68.8414 51.9305L70.7954 55.3764ZM74.8968 54.5684L70.8622 56.8566L69.973 56.6127L67.3676 52.0182L67.6054 51.1135L71.6401 48.8252L72.5386 49.0855L75.144 53.68L74.8968 54.5684Z" fill="white"/>
<path d="M79.2765 51.3982L82.4684 50.5495L82.1338 49.2815L78.9418 50.1302L79.2765 51.3982ZM78.6048 48.8532L81.7967 48.0045L81.4573 46.7183L78.2653 47.567L78.6048 48.8532ZM83.4457 51.6563L78.3331 53.0157L76.6478 46.6304L81.7604 45.271L82.5624 45.7509L83.068 47.6665L82.6055 48.4728L83.405 48.9435L83.9106 50.8591L83.4457 51.6563Z" fill="white"/>
<path d="M87.7331 51.0026L87.7386 49.6809L90.3867 49.6837L91.7162 48.3729L89.0682 48.3701L87.0999 46.3856L87.1082 44.3936L88.4323 44.395L88.4267 45.7261L89.7357 47.0491L91.7218 47.0512L91.7329 44.3985L93.0475 44.3998L93.0281 49.0351L91.0432 51.006L87.7331 51.0026Z" fill="white"/>
<path d="M95.2983 51.2854L93.9974 51.0437L95.2284 44.5469L96.5294 44.7886L96.0352 47.3966L97.9773 47.7574L99.5245 46.6997L99.7725 45.391L101.064 45.631L100.693 47.5893L99.1552 48.6487L100.201 50.1881L99.8331 52.1278L98.5414 51.8879L98.7876 50.5885L97.7311 49.0567L95.789 48.696L95.2983 51.2854Z" fill="white"/>
<path d="M102.654 49.6067L105.737 50.7736L106.45 48.9108L103.367 47.7439L102.654 49.6067ZM101.475 52.6878L100.238 52.2197L102.603 46.0398L107.541 47.9089L107.911 48.7664L106.728 51.8563L105.883 52.2436L102.181 50.8427L101.475 52.6878Z" fill="white"/>
<path d="M108.968 52.3069L111.791 54.0052L112.825 52.2983L111.126 51.2764L109.311 51.7407L108.968 52.3069ZM107.258 55.1302L106.125 54.449L108.522 50.4931L111.246 49.8032L114.636 51.8421L111.205 57.5049L110.081 56.8285L111.105 55.1377L108.282 53.4395L107.258 55.1302Z" fill="white"/>
<path d="M112.931 58.9526L111.898 58.1302L116.034 52.9573L117.067 53.7797L112.931 58.9526ZM115.546 51.7233L116.373 50.6887L117.407 51.5112L116.58 52.5458L115.546 51.7233ZM117.348 53.1567L118.175 52.1221L119.209 52.9446L118.382 53.9792L117.348 53.1567Z" fill="white"/>
<path d="M114.826 60.5565L113.911 59.605L118.691 55.0189L119.607 55.9705L117.688 57.8114L119.971 60.1836L121.89 58.3426L122.8 59.2873L118.019 63.8734L117.11 62.9287L119.015 61.1008L116.732 58.7287L114.826 60.5565Z" fill="white"/>
<path d="M119.122 65.4916L118.338 64.4291L123.672 60.4989L124.457 61.5614L119.122 65.4916Z" fill="white"/>
<defs>
<filter id="filter0_d_132_1338" x="0.753906" y="0.753815" width="179.492" height="179.492" filterUnits="userSpaceOnUse" color-interpolation-filters="sRGB">
<feFlood flood-opacity="0" result="BackgroundImageFix"/>
<feColorMatrix in="SourceAlpha" type="matrix" values="0 0 0 0 0 0 0 0 0 0 0 0 0 0 0 0 0 0 127 0" result="hardAlpha"/>
<feOffset dy="4"/>
<feGaussianBlur stdDeviation="20"/>
<feComposite in2="hardAlpha" operator="out"/>
<feColorMatrix type="matrix" values="0 0 0 0 0.933659 0 0 0 0 0.986341 0 0 0 0 0.956098 0 0 0 0.2 0"/>
<feBlend mode="normal" in2="BackgroundImageFix" result="effect1_dropShadow_132_1338"/>
<feBlend mode="normal" in="SourceGraphic" in2="effect1_dropShadow_132_1338" result="shape"/>
</filter>
<linearGradient id="paint0_linear_132_1338" x1="77" y1="85.938" x2="105" y2="85.938" gradientUnits="userSpaceOnUse">
<stop stop-color="#2F80ED"/>
<stop offset="1" stop-color="#1B4987"/>
</linearGradient>
<linearGradient id="paint1_linear_132_1338" x1="77" y1="90.3209" x2="105" y2="90.3209" gradientUnits="userSpaceOnUse">
<stop stop-color="#F2C94C"/>
<stop offset="1" stop-color="#BA8F0C"/>
</linearGradient>
</defs>
</svg>
