<svg width="50" height="50" viewBox="0 0 50 50" fill="none" xmlns="http://www.w3.org/2000/svg">
<path d="M0 12C0 5.37258 5.37258 0 12 0L37.9995 0C44.6269 0 49.9995 5.37258 49.9995 12V37.9995C49.9995 44.6269 44.6269 49.9995 37.9995 49.9995H12C5.37258 49.9995 0 44.6269 0 37.9995L0 12Z" fill="#27AE60"/>
<path d="M33.0002 34.1428H37.5716C38.1778 34.1428 38.7593 33.9019 39.1879 33.4733C39.6164 33.0447 39.8574 32.4632 39.8574 31.8571V21.5714C39.8574 20.9651 39.6164 20.3838 39.1879 19.9551C38.7593 19.5265 38.1778 19.2856 37.5716 19.2856H12.4288C11.8226 19.2856 11.2412 19.5265 10.8125 19.9551C10.3839 20.3838 10.1431 20.9651 10.1431 21.5714V31.8571C10.1431 32.4632 10.3839 33.0447 10.8125 33.4733C11.2412 33.9019 11.8226 34.1428 12.4288 34.1428H17.0002" stroke="white" stroke-width="2.5" stroke-linecap="round" stroke-linejoin="round"/>
<path d="M17 30.7144V38.7144C17 39.0174 17.1204 39.3082 17.3347 39.5226C17.5491 39.7368 17.8397 39.8572 18.1429 39.8572H31.8571C32.1602 39.8572 32.451 39.7368 32.6654 39.5226C32.8795 39.3082 33 39.0174 33 38.7144V30.7144H17Z" stroke="white" stroke-width="2.5" stroke-linecap="round" stroke-linejoin="round"/>
<path d="M33 19.2857V11.2857C33 10.9826 32.8795 10.6919 32.6654 10.4776C32.451 10.2632 32.1602 10.1428 31.8571 10.1428H18.1429C17.8397 10.1428 17.5491 10.2632 17.3347 10.4776C17.1204 10.6919 17 10.9826 17 11.2857V19.2857" stroke="white" stroke-width="2.5" stroke-linecap="round" stroke-linejoin="round"/>
<path d="M34.1431 25H31.8574" stroke="white" stroke-width="2.5" stroke-linecap="round" stroke-linejoin="round"/>
</svg>
