<svg width="50" height="50" viewBox="0 0 50 50" fill="none" xmlns="http://www.w3.org/2000/svg">
<path d="M0 12C0 5.37258 5.37258 0 12 0L37.9995 0C44.6269 0 49.9995 5.37258 49.9995 12V37.9995C49.9995 44.6269 44.6269 49.9995 37.9995 49.9995H12C5.37258 49.9995 0 44.6269 0 37.9995L0 12Z" fill="#27AE60"/>
<path d="M8.40918 14.9322L14.0519 17.969L19.0887 17.0969C20.7889 16.8026 22.5314 17.2893 23.833 18.4222" stroke="white" stroke-width="2.5" stroke-linecap="round" stroke-linejoin="round"/>
<path d="M36.011 30.869L28.033 36.5349C26.2793 37.7805 23.9357 37.8029 22.1584 36.5912L8.40918 27.2186" stroke="white" stroke-width="2.5" stroke-linecap="round" stroke-linejoin="round"/>
<path d="M41.4624 27.1584L35.8174 31.0158L27.0587 23.9436L23.837 26.2885C22.527 27.2419 20.697 26.985 19.7001 25.7078C18.7055 24.4334 18.8974 22.6006 20.1343 21.5598L23.4889 18.7373C25.0968 17.3845 27.1868 16.7461 29.2761 16.9697L34.5044 17.5291L41.4624 13.7681" stroke="white" stroke-width="2.5" stroke-linecap="round" stroke-linejoin="round"/>
<path d="M27.0601 23.9624C29.1676 25.8401 32.1565 24.8822 33.2678 23.3494" stroke="white" stroke-width="2.5" stroke-linecap="round" stroke-linejoin="round"/>
</svg>
